# Blender 5.1.2
# www.blender.org
mtllib box.mtl
o Cube
v 20.961864 -2.217928 6.349032
v 20.962051 -2.181565 6.348845
v 18.212595 -2.217928 3.587476
v 18.212784 -2.181565 3.587289
v 20.984463 -2.163613 6.326533
v 18.235195 -2.163613 3.564977
v 21.006687 -2.182024 6.304409
v 18.257418 -2.182024 3.542852
v 21.006498 -2.218387 6.304596
v 18.257231 -2.218388 3.543040
v 18.206814 -2.218388 6.298354
v 18.206627 -2.182024 6.298166
v 20.968369 -2.218387 3.549085
v 20.968182 -2.182024 3.548897
v 18.228750 -2.163613 6.320389
v 20.990307 -2.163613 3.571121
v 18.251062 -2.181565 6.342800
v 21.012619 -2.181565 3.593532
v 18.251249 -2.217928 6.342988
v 21.012806 -2.217928 3.593719
v 20.725483 -2.596952 3.556017
v 21.002394 -5.129739 3.555999
v 20.725483 -4.923771 3.556017
v 18.219387 -5.129739 3.555999
v 18.496296 -4.923771 3.556018
v 18.219387 -2.346734 3.555999
v 18.496296 -2.596952 3.556018
v 21.002394 -2.346734 3.556000
v 21.002394 -2.596952 3.832903
v 21.002394 -2.596952 6.062090
v 21.002392 -2.346734 6.338999
v 21.002394 -4.923771 6.062090
v 21.002394 -5.129739 6.338999
v 21.002394 -4.923771 3.832902
v 18.219387 -2.346734 6.338996
v 18.496296 -2.596952 6.338997
v 20.725483 -2.596952 6.338999
v 20.725483 -4.923771 6.338998
v 18.219387 -5.129739 6.338997
v 18.496296 -4.923771 6.338998
v 18.219387 -2.596952 6.062087
v 18.219387 -2.596952 3.832900
v 18.219387 -4.923771 3.832901
v 18.219387 -4.923771 6.062088
v 20.843266 -2.596952 6.062090
v 20.913399 -3.178657 5.504793
v 20.913399 -3.178657 4.390200
v 20.956142 -3.760362 4.947496
v 20.913399 -4.342066 5.504793
v 20.913399 -4.342066 4.390199
v 20.843266 -4.923771 3.832902
v 20.843266 -2.596952 3.832903
v 20.843266 -4.923771 6.062089
v 18.378515 -2.596952 3.832900
v 18.308380 -3.178657 4.390197
v 18.308380 -3.178657 5.504791
v 18.265638 -3.760362 4.947495
v 18.308380 -4.342066 4.390197
v 18.308380 -4.342066 5.504791
v 18.378515 -4.923771 6.062088
v 18.378513 -2.596952 6.062087
v 18.378515 -4.923771 3.832901
v 18.496296 -2.596952 3.715229
v 19.053593 -3.178657 3.645149
v 18.496296 -4.923771 3.715229
v 19.053593 -4.342066 3.645150
v 20.168186 -4.342066 3.645150
v 19.610889 -3.760362 3.602408
v 20.168186 -3.178657 3.645150
v 20.725483 -2.596952 3.715229
v 20.725483 -4.923771 3.715229
v 18.496296 -2.596952 6.179870
v 19.053593 -3.178657 6.221282
v 20.168186 -3.178657 6.221282
v 19.610889 -3.760362 6.264024
v 19.053593 -4.342066 6.221282
v 20.168186 -4.342066 6.221282
v 20.725483 -4.923771 6.179871
v 20.725483 -2.596952 6.179871
v 18.496296 -4.923771 6.179871
v 21.102018 -2.432381 6.438625
v 21.102018 -2.156520 6.438625
v 18.119761 -2.432381 6.438622
v 18.119761 -2.156520 6.438622
v 18.250328 -2.156520 3.586939
v 18.119762 -2.156520 3.456372
v 18.250328 -2.156520 6.308055
v 18.119762 -2.432381 3.456372
v 21.102020 -2.156520 3.456374
v 21.102020 -2.432381 3.456374
v 20.971451 -2.156520 6.308058
v 20.971453 -2.156520 3.586941
v 18.250328 -2.217999 6.308055
v 20.971451 -2.217999 6.308058
v 20.971453 -2.217999 3.586941
v 18.250328 -2.217999 3.586939
v 20.992449 -2.432381 6.329056
v 20.992451 -2.432381 3.565943
v 18.229330 -2.432381 3.565941
v 18.229330 -2.432381 6.329054
vn 0.5345 -0.8018 0.2673
vn 0.2673 0.8018 0.5345
vn -0.2673 -0.8018 0.5345
vn -0.5345 0.8018 0.2673
vn 0.8018 0.5345 -0.2673
vn 0.6396 -0.4264 0.6396
vn 0.8018 0.2673 0.5345
vn 0.6882 -0.2294 -0.6882
vn 0.8018 -0.5345 0.2673
vn 0.7071 -0.0000 -0.7071
vn 0.8018 -0.2673 -0.5345
vn 0.7071 -0.0000 0.7071
vn -0.5345 0.2673 0.8018
vn -0.2673 -0.5345 0.8018
vn 0.5345 -0.2673 0.8018
vn -0.7071 -0.0000 0.7071
vn 0.2673 0.5345 0.8018
vn -0.6882 -0.2295 0.6883
vn -0.2673 -0.5345 -0.8018
vn -0.5345 0.2673 -0.8018
vn -0.6396 -0.4264 -0.6396
vn 0.2673 0.5345 -0.8018
vn -0.7071 -0.0000 -0.7071
vn 0.5345 -0.2673 -0.8018
vn -0.8018 0.2673 -0.5345
vn -0.8018 -0.5345 -0.2673
vn -0.8018 -0.2673 0.5345
vn -0.8018 0.5345 0.2673
vn -0.6586 -0.3177 0.6821
vn 0.1900 -0.4145 0.8900
vn 0.0374 0.0358 0.9987
vn -0.0374 0.0358 0.9987
vn -0.0000 -0.0000 1.0000
vn -0.0374 -0.0358 0.9987
vn 0.0374 -0.0358 0.9987
vn -0.1900 0.4144 0.8900
vn -0.7055 -0.0073 -0.7087
vn -0.6683 0.3204 -0.6713
vn -0.5367 0.6491 -0.5391
vn -0.1384 0.9806 -0.1389
vn 0.1282 0.9833 0.1289
vn 0.5300 0.6601 0.5323
vn 0.6649 0.3343 0.6680
vn 0.7055 0.0073 0.7087
vn 0.7087 -0.0073 -0.7055
vn 0.6713 0.3204 -0.6683
vn 0.5392 0.6491 -0.5367
vn 0.1389 0.9806 -0.1384
vn -0.1288 0.9833 0.1282
vn -0.5323 0.6601 0.5300
vn -0.6679 0.3343 0.6649
vn -0.7087 0.0073 0.7055
vn 0.5345 0.8018 0.2673
vn -0.2673 0.8018 -0.5345
vn 0.2673 0.8018 -0.5345
vn -0.5345 -0.8018 -0.2673
vn 0.6586 0.3177 0.6821
vn -0.3974 -0.1727 -0.9013
vn -0.3049 0.6550 -0.6914
vn 0.0545 -0.0522 -0.9971
vn 0.3974 0.1727 -0.9013
vn -0.0504 -0.0483 -0.9976
vn 0.3049 -0.6550 -0.6914
vn -0.0545 0.0522 -0.9971
vn 0.0504 0.0483 -0.9976
vn -0.0000 -0.0000 -1.0000
vn -0.9008 0.3995 -0.1702
vn -0.9971 0.0522 0.0545
vn -0.9976 -0.0484 0.0504
vn -1.0000 -0.0000 -0.0000
vn -0.9971 -0.0522 -0.0545
vn -0.9976 0.0484 -0.0504
vn -0.9008 -0.3995 0.1702
vn -0.6919 -0.3069 -0.6536
vn -0.6919 0.3069 0.6536
vn 0.6919 -0.3069 0.6536
vn 0.9971 0.0522 -0.0545
vn 0.9008 0.3995 0.1702
vn 0.9976 -0.0484 -0.0504
vn 0.9971 -0.0523 0.0545
vn 1.0000 -0.0000 -0.0000
vn 0.9976 0.0484 0.0504
vn 0.9008 -0.3995 -0.1702
vn 0.6919 0.3069 -0.6536
vn -0.0000 -1.0000 -0.0000
vn 0.2673 -0.8018 -0.5345
vn 0.4083 0.4083 0.8165
vn 0.6667 0.6667 -0.3334
vn -0.6667 0.6667 0.3334
vn -0.4083 0.4083 -0.8165
vn -0.2673 0.8018 0.5345
vn -0.5345 0.8018 -0.2673
vn 0.5345 0.8018 -0.2673
vt 0.464329 0.066134
vt 0.464329 0.137213
vt 0.002164 0.066134
vt 0.002164 0.137213
vt 0.508820 0.040167
vt 0.467959 0.002281
vt 0.969821 0.040167
vt 1.000916 0.002281
vt 0.969821 0.939856
vt 1.000916 0.998757
vt 0.508820 0.939856
vt 0.467959 0.998757
vt 0.968202 0.934051
vt 0.507354 0.934051
vt 0.852990 0.714012
vt 0.622566 0.714012
vt 0.737778 0.493973
vt 0.622566 0.273934
vt 0.852990 0.273934
vt 0.968202 0.053895
vt 0.003137 0.163427
vt 0.009224 0.129809
vt 0.439020 0.163427
vt 0.445107 0.129809
vt 0.015311 0.096191
vt 0.451194 0.096191
vt 0.021398 0.062572
vt 0.457281 0.062573
vt 0.027485 0.028954
vt 0.463368 0.028954
vt 0.439460 0.099427
vt 0.459461 0.175632
vt 0.022604 0.099427
vt 0.002602 0.175633
vt 0.461089 0.090589
vt 0.004230 0.090589
vt 0.507354 0.053895
vt 0.510854 0.933051
vt 0.510854 0.052895
vt 0.964452 0.053895
vt 0.964452 0.934051
vt 0.426929 0.124094
vt 0.442634 0.092682
vt 0.030861 0.124095
vt 0.015155 0.092683
vt 0.016539 0.021717
vt 0.000834 0.053129
vt 0.412606 0.021717
vt 0.428312 0.053128
vt 0.016157 0.024005
vt 0.000451 0.055417
vt 0.412225 0.024005
vt 0.427931 0.055416
vt 0.426928 0.124093
vt 0.030861 0.124093
vt 0.015156 0.092682
vt 0.000000 1.000000
vt 0.000000 0.200272
vt 0.468327 1.000000
vt 0.468327 0.200272
vt 0.001617 0.998792
vt 0.001617 0.188273
vt 0.466704 0.998792
vt 0.466704 0.188272
vt 0.443408 0.111154
vt 0.443408 0.142369
vt 0.022115 0.111154
vt 0.022115 0.142369
vt 0.441087 0.140603
vt 0.441087 0.176484
vt 0.024232 0.140603
vt 0.024232 0.176484
vt 0.022009 0.049145
vt 0.022009 0.080295
vt 0.444020 0.049145
vt 0.444020 0.080295
vt 0.022398 0.107521
vt 0.022398 0.137213
vt 0.444095 0.107521
vt 0.444095 0.137213
vt 0.443408 0.051931
vt 0.463622 0.118225
vt 0.022115 0.051932
vt 0.001900 0.118226
vt 0.021579 0.072850
vt 0.001330 0.006694
vt 0.443591 0.072850
vt 0.463840 0.006693
vt 0.022398 0.128998
vt 0.002164 0.065938
vt 0.444095 0.128997
vt 0.464329 0.065936
vt 0.463622 0.142369
vt 0.463622 0.067645
vt 0.001900 0.142369
vt 0.001900 0.067645
vt 0.544291 0.995246
vt 0.544291 0.946206
vt 0.887780 0.995245
vt 0.887780 0.946206
vt 0.938784 0.995241
vt 0.938784 0.946202
vt 0.595295 0.995242
vt 0.595295 0.946203
vt 0.498018 0.263079
vt 0.473498 0.263079
vt 0.498017 0.980146
vt 0.473498 0.980146
vt 0.498018 0.747301
vt 0.473498 0.747301
vt 0.498018 0.030234
vt 0.473498 0.030234
vt 0.001759 0.080295
vt 0.001759 0.005726
vt 0.464269 0.080295
vt 0.464269 0.005726
s 1
usemtl Material.00__crate_a.PNG
f 81/1/1 82/2/2 83/3/3
f 82/2/2 84/4/4 83/3/3
f 32/5/5 33/6/6 34/7/7
f 33/6/6 22/8/8 34/7/7
f 34/7/7 22/8/8 29/9/9
f 22/8/8 28/10/10 29/9/9
f 29/9/9 28/10/10 30/11/11
f 28/10/10 31/12/12 30/11/11
f 30/11/11 31/12/12 32/5/5
f 31/12/12 33/6/6 32/5/5
f 38/7/13 33/8/6 37/9/14
f 33/8/6 31/10/12 37/9/14
f 37/9/14 31/10/12 36/11/15
f 31/10/12 35/12/16 36/11/15
f 36/11/15 35/12/16 40/5/17
f 35/12/16 39/6/18 40/5/17
f 40/5/17 39/6/18 38/7/13
f 39/6/18 33/8/6 38/7/13
f 21/9/19 22/8/8 23/7/20
f 22/8/8 24/6/21 23/7/20
f 23/7/20 24/6/21 25/5/22
f 24/6/21 26/12/23 25/5/22
f 25/5/22 26/12/23 27/11/24
f 26/12/23 28/10/10 27/11/24
f 27/11/24 28/10/10 21/9/19
f 28/10/10 22/8/8 21/9/19
f 44/7/25 39/8/18 41/9/26
f 39/8/18 35/10/16 41/9/26
f 41/9/26 35/10/16 42/11/27
f 35/10/16 26/12/23 42/11/27
f 42/11/27 26/12/23 43/5/28
f 26/12/23 24/6/21 43/5/28
f 43/5/28 24/6/21 44/7/25
f 24/6/21 39/8/18 44/7/25
f 79/13/29 72/14/30 74/15/31
f 72/14/30 73/16/32 74/15/31
f 74/15/31 73/16/32 75/17/33
f 73/16/32 76/18/34 75/17/33
f 75/17/33 76/18/34 77/19/35
f 76/18/34 78/20/36 77/19/35
f 77/19/35 78/20/36 74/15/31
f 78/20/36 79/13/29 74/15/31
f 77/19/35 74/15/31 75/17/33
f 11/21/37 12/22/38 13/23/37
f 13/23/37 12/22/38 14/24/39
f 12/22/38 15/25/40 14/24/39
f 14/24/39 15/25/40 16/26/41
f 15/25/40 17/27/42 16/26/41
f 16/26/41 17/27/42 18/28/43
f 17/27/42 19/29/44 18/28/43
f 18/28/43 19/29/44 20/30/44
f 10/21/45 8/22/46 9/23/45
f 9/23/45 8/22/46 7/24/47
f 8/22/46 6/25/48 7/24/47
f 7/24/47 6/25/48 5/26/49
f 6/25/48 4/27/50 5/26/49
f 5/26/49 4/27/50 2/28/51
f 4/27/50 3/29/52 2/28/51
f 3/29/52 1/30/52 2/28/51
f 85/31/53 86/32/54 87/33/55
f 87/33/55 86/32/54 84/34/4
f 86/32/54 88/35/56 84/34/4
f 84/34/4 88/35/56 83/36/3
f 78/20/36 76/18/34 80/37/57
f 80/37/57 76/18/34 72/14/30
f 76/18/34 73/16/32 72/14/30
f 70/38/58 71/39/59 67/18/60
f 71/39/59 65/40/61 67/18/60
f 67/18/60 65/40/61 66/19/62
f 63/41/63 70/38/58 64/15/64
f 64/15/64 70/38/58 69/16/65
f 70/38/58 67/18/60 69/16/65
f 69/16/65 67/18/60 68/17/66
f 67/18/60 66/19/62 68/17/66
f 68/17/66 66/19/62 64/15/64
f 66/19/62 65/40/61 64/15/64
f 64/15/64 65/40/61 63/41/63
f 68/17/66 64/15/64 69/16/65
f 60/40/67 56/15/68 59/19/69
f 56/15/68 57/17/70 59/19/69
f 59/19/69 57/17/70 58/18/71
f 57/17/70 55/16/72 58/18/71
f 58/18/71 55/16/72 54/38/73
f 55/16/72 56/15/68 54/38/73
f 54/38/73 56/15/68 61/41/74
f 56/15/68 60/40/67 61/41/74
f 54/38/73 62/39/75 58/18/71
f 62/39/75 60/40/67 58/18/71
f 58/18/71 60/40/67 59/19/69
f 56/15/68 55/16/72 57/17/70
f 52/41/76 47/15/77 51/40/78
f 47/15/77 50/19/79 51/40/78
f 51/40/78 50/19/79 49/18/80
f 50/19/79 48/17/81 49/18/80
f 49/18/80 48/17/81 46/16/82
f 48/17/81 47/15/77 46/16/82
f 46/16/82 47/15/77 45/38/83
f 47/15/77 52/41/76 45/38/83
f 46/16/82 45/38/83 49/18/80
f 45/38/83 53/39/84 49/18/80
f 49/18/80 53/39/84 51/40/78
f 47/15/77 48/17/81 50/19/79
f 97/42/85 81/43/1 100/44/85
f 81/43/1 83/45/3 100/44/85
f 100/46/85 83/47/3 99/48/85
f 83/47/3 88/49/56 99/48/85
f 99/50/85 88/51/56 98/52/85
f 88/51/56 90/53/86 98/52/85
f 98/54/85 90/43/86 97/55/85
f 90/43/86 81/56/1 97/55/85
f 39/57/18 24/58/21 33/59/6
f 24/58/21 22/60/8 33/59/6
f 96/61/87 93/62/88 95/63/89
f 93/62/88 94/64/90 95/63/89
f 95/65/89 92/66/91 96/67/87
f 92/66/91 85/68/53 96/67/87
f 96/69/87 85/70/53 93/71/88
f 85/70/53 87/72/55 93/71/88
f 94/73/90 91/74/92 95/75/89
f 91/74/92 92/76/91 95/75/89
f 93/77/88 87/78/55 94/79/90
f 87/78/55 91/80/92 94/79/90
f 92/81/91 89/82/93 85/83/53
f 89/82/93 86/84/54 85/83/53
f 91/85/92 82/86/2 92/87/91
f 82/86/2 89/88/93 92/87/91
f 87/89/55 84/90/4 91/91/92
f 84/90/4 82/92/2 91/91/92
f 89/93/93 90/94/86 86/95/54
f 90/94/86 88/96/56 86/95/54
f 53/97/84 32/98/5 51/99/78
f 32/98/5 34/100/7 51/99/78
f 52/101/76 29/102/9 45/103/83
f 29/102/9 30/104/11 45/103/83
f 51/105/78 34/106/7 52/107/76
f 34/106/7 29/108/9 52/107/76
f 45/109/83 30/110/11 53/111/84
f 30/110/11 32/112/5 53/111/84
f 62/97/75 43/98/28 60/99/67
f 43/98/28 44/100/25 60/99/67
f 61/101/74 41/102/26 54/103/73
f 41/102/26 42/104/27 54/103/73
f 60/105/67 44/106/25 61/107/74
f 44/106/25 41/108/26 61/107/74
f 54/109/73 42/110/27 62/111/75
f 42/110/27 43/112/28 62/111/75
f 23/100/20 25/98/22 71/99/59
f 25/98/22 65/97/61 71/99/59
f 27/104/24 21/102/19 63/103/63
f 21/102/19 70/101/58 63/103/63
f 21/108/19 23/106/20 70/107/58
f 23/106/20 71/105/59 70/107/58
f 25/112/22 27/110/24 65/111/61
f 27/110/24 63/109/63 65/111/61
f 72/109/30 36/110/15 80/111/57
f 36/110/15 40/112/17 80/111/57
f 78/105/36 38/106/13 79/107/29
f 38/106/13 37/108/14 79/107/29
f 79/101/29 37/102/14 72/103/30
f 37/102/14 36/104/15 72/103/30
f 80/97/57 40/98/17 78/99/36
f 40/98/17 38/100/13 78/99/36
f 82/113/2 81/114/1 89/115/93
f 81/114/1 90/116/86 89/115/93
o Cube.001
v 19.271841 0.417132 7.436664
v 19.272055 0.449671 7.436562
v 17.768093 0.417132 4.290644
v 17.768307 0.449671 4.290542
v 19.297586 0.465735 7.424358
v 17.793839 0.465735 4.278338
v 19.322903 0.449260 7.412256
v 17.819157 0.449260 4.266236
v 19.322689 0.416721 7.412359
v 17.818941 0.416721 4.266339
v 16.960449 0.416721 6.578029
v 16.960348 0.449260 6.577815
v 20.106470 0.416721 5.074281
v 20.106367 0.449260 5.074067
v 16.972448 0.465735 6.603133
v 20.118469 0.465735 5.099384
v 16.984653 0.449671 6.628664
v 20.130672 0.449671 5.124916
v 16.984755 0.417132 6.628878
v 20.130775 0.417132 5.125130
v 19.899321 0.077969 5.008209
v 20.133152 -2.188446 5.090195
v 19.899321 -2.004139 5.008210
v 17.783150 -2.188446 4.266075
v 18.016970 -2.004139 4.348092
v 17.783150 0.301872 4.266075
v 18.016968 0.077969 4.348091
v 20.133152 0.301872 5.090196
v 20.051155 0.077969 5.324016
v 19.391035 0.077969 7.206368
v 19.309034 0.301872 7.440193
v 19.391035 -2.004139 7.206368
v 19.309036 -2.188446 7.440194
v 20.051155 -2.004139 5.324016
v 16.959032 0.301872 6.616072
v 17.192858 0.077969 6.698073
v 19.075209 0.077969 7.358193
v 19.075211 -2.004139 7.358192
v 16.959032 -2.188446 6.616073
v 17.192858 -2.004139 6.698073
v 17.041031 0.077969 6.382246
v 17.701151 0.077969 4.499894
v 17.701151 -2.004139 4.499895
v 17.041033 -2.004139 6.382247
v 19.256666 0.077969 7.159246
v 19.480917 -0.442558 6.709426
v 19.810978 -0.442558 5.768250
v 19.682039 -0.963085 6.251495
v 19.480917 -1.483612 6.709426
v 19.810978 -1.483612 5.768250
v 19.916786 -2.004139 5.276894
v 19.916784 0.077969 5.276894
v 19.256666 -2.004139 7.159245
v 17.835522 0.077969 4.547016
v 17.611269 -0.442558 4.996836
v 17.281208 -0.442558 5.938012
v 17.410147 -0.963085 5.454767
v 17.611269 -1.483612 4.996836
v 17.281208 -1.483612 5.938013
v 17.175402 -2.004139 6.429369
v 17.175400 0.077969 6.429368
v 17.835522 -2.004139 4.547017
v 17.969822 0.077969 4.482531
v 18.461163 -0.442558 4.588385
v 17.969822 -2.004139 4.482531
v 18.461163 -1.483612 4.588386
v 19.402340 -1.483612 4.918445
v 18.944408 -0.963085 4.717323
v 19.402340 -0.442558 4.918445
v 19.852175 0.077969 5.142650
v 19.852175 -2.004139 5.142650
v 17.239979 0.077969 6.563704
v 17.698305 -0.442558 6.763702
v 18.639481 -0.442558 7.093762
v 18.156235 -0.963085 6.964824
v 17.698305 -1.483612 6.763702
v 18.639481 -1.483612 7.093761
v 19.122332 -2.004139 7.223823
v 19.122332 0.077969 7.223824
v 17.239979 -2.004139 6.563704
v 19.363659 0.225233 7.553821
v 19.363659 0.472082 7.553821
v 16.845404 0.225233 6.670695
v 16.845404 0.472082 6.670695
v 17.800114 0.472082 4.301365
v 17.728525 0.472082 4.152448
v 16.994322 0.472082 6.599107
v 17.728525 0.225233 4.152448
v 20.246780 0.472082 5.035572
v 20.246780 0.225233 5.035572
v 19.292070 0.472082 7.404903
v 20.097862 0.472082 5.107160
v 16.994322 0.417069 6.599107
v 19.292070 0.417069 7.404903
v 20.097862 0.417069 5.107160
v 17.800114 0.417069 4.301365
v 19.303583 0.225233 7.428853
v 20.121813 0.225233 5.095647
v 17.788601 0.225233 4.277415
v 16.970371 0.225233 6.610620
vn 0.4159 -0.8018 0.4291
vn 0.0754 0.8018 0.5928
vn -0.4291 -0.8018 0.4159
vn -0.5929 0.8018 0.0753
vn 0.8451 0.5345 0.0131
vn 0.3919 -0.4264 0.8152
vn 0.5798 0.2673 0.7697
vn 0.8772 -0.2294 -0.4217
vn 0.6682 -0.5345 0.5176
vn 0.9013 -0.0000 -0.4333
vn 0.9335 -0.2673 -0.2390
vn 0.4333 -0.0000 0.9013
vn -0.7697 0.2673 0.5798
vn -0.5176 -0.5345 0.6682
vn 0.2390 -0.2673 0.9335
vn -0.9013 -0.0000 0.4333
vn -0.0131 0.5345 0.8451
vn -0.8772 -0.2295 0.4217
vn 0.0131 -0.5345 -0.8451
vn -0.2390 0.2673 -0.9335
vn -0.3919 -0.4264 -0.8152
vn 0.5176 0.5345 -0.6681
vn -0.4332 -0.0000 -0.9013
vn 0.7697 -0.2673 -0.5797
vn -0.5798 0.2673 -0.7697
vn -0.6682 -0.5345 -0.5176
vn -0.9335 -0.2673 0.2390
vn -0.8451 0.5345 -0.0131
vn -0.8472 -0.3177 0.4257
vn -0.1152 -0.4145 0.9027
vn -0.2952 0.0358 0.9548
vn -0.3658 0.0358 0.9300
vn -0.3309 -0.0000 0.9437
vn -0.3658 -0.0358 0.9300
vn -0.2952 -0.0358 0.9548
vn -0.4739 0.4144 0.7770
vn -0.4312 -0.0073 -0.9022
vn -0.4085 0.3204 -0.8547
vn -0.3280 0.6491 -0.6863
vn -0.0846 0.9806 -0.1769
vn 0.0783 0.9833 0.1640
vn 0.3239 0.6601 0.6777
vn 0.4064 0.3343 0.8504
vn 0.4312 0.0073 0.9022
vn 0.9022 -0.0073 -0.4312
vn 0.8547 0.3204 -0.4085
vn 0.6864 0.6491 -0.3280
vn 0.1769 0.9806 -0.0846
vn -0.1640 0.9833 0.0784
vn -0.6777 0.6601 0.3239
vn -0.8503 0.3343 0.4064
vn -0.9022 0.0073 0.4312
vn 0.4159 0.8018 0.4291
vn -0.0753 0.8018 -0.5928
vn 0.4291 0.8018 -0.4159
vn -0.4159 -0.8018 -0.4291
vn 0.3958 0.3177 0.8616
vn -0.0767 -0.1727 -0.9820
vn -0.0589 0.6550 -0.7533
vn 0.3814 -0.0522 -0.9229
vn 0.6732 0.1727 -0.7190
vn 0.2826 -0.0483 -0.9580
vn 0.5165 -0.6550 -0.5515
vn 0.2786 0.0522 -0.9590
vn 0.3777 0.0483 -0.9247
vn 0.3309 -0.0000 -0.9437
vn -0.7937 0.3995 -0.4588
vn -0.9590 0.0522 -0.2786
vn -0.9580 -0.0484 -0.2825
vn -0.9437 -0.0000 -0.3309
vn -0.9229 -0.0522 -0.3814
vn -0.9247 0.0484 -0.3777
vn -0.9064 -0.3995 -0.1375
vn -0.4366 -0.3069 -0.8457
vn -0.8692 0.3069 0.3878
vn 0.4366 -0.3069 0.8457
vn 0.9590 0.0522 0.2786
vn 0.7937 0.3995 0.4587
vn 0.9580 -0.0484 0.2825
vn 0.9229 -0.0523 0.3815
vn 0.9437 -0.0000 0.3309
vn 0.9247 0.0484 0.3777
vn 0.9064 -0.3995 0.1375
vn 0.8692 0.3069 -0.3878
vn -0.0000 -1.0000 -0.0000
vn 0.4291 -0.8018 -0.4159
vn 0.1151 0.4083 0.9056
vn 0.7394 0.6667 -0.0940
vn -0.7394 0.6667 0.0940
vn -0.1151 0.4083 -0.9056
vn -0.4291 0.8018 0.4159
vn -0.4159 0.8018 -0.4291
vn 0.5928 0.8018 -0.0753
vt 0.464329 0.066134
vt 0.464329 0.137213
vt 0.002164 0.066134
vt 0.002164 0.137213
vt 0.508820 0.040167
vt 0.467959 0.002281
vt 0.969821 0.040167
vt 1.000916 0.002281
vt 0.969821 0.939856
vt 1.000916 0.998757
vt 0.508820 0.939856
vt 0.467959 0.998757
vt 0.968202 0.934051
vt 0.507354 0.934051
vt 0.852990 0.714012
vt 0.622566 0.714012
vt 0.737778 0.493973
vt 0.622566 0.273934
vt 0.852990 0.273934
vt 0.968202 0.053895
vt 0.003137 0.163427
vt 0.009224 0.129809
vt 0.439020 0.163427
vt 0.445107 0.129809
vt 0.015311 0.096191
vt 0.451194 0.096191
vt 0.021398 0.062572
vt 0.457281 0.062573
vt 0.027485 0.028954
vt 0.463368 0.028954
vt 0.439460 0.099427
vt 0.459461 0.175632
vt 0.022604 0.099427
vt 0.002602 0.175633
vt 0.461089 0.090589
vt 0.004230 0.090589
vt 0.507354 0.053895
vt 0.510854 0.933051
vt 0.510854 0.052895
vt 0.964452 0.053895
vt 0.964452 0.934051
vt 0.426929 0.124094
vt 0.442634 0.092682
vt 0.030861 0.124095
vt 0.015155 0.092683
vt 0.016539 0.021717
vt 0.000834 0.053129
vt 0.412606 0.021717
vt 0.428312 0.053128
vt 0.016157 0.024005
vt 0.000451 0.055417
vt 0.412225 0.024005
vt 0.427931 0.055416
vt 0.426928 0.124093
vt 0.030861 0.124093
vt 0.015156 0.092682
vt 0.000000 1.000000
vt 0.000000 0.200272
vt 0.468327 1.000000
vt 0.468327 0.200272
vt 0.001617 0.998792
vt 0.001617 0.188273
vt 0.466704 0.998792
vt 0.466704 0.188272
vt 0.443408 0.111154
vt 0.443408 0.142369
vt 0.022115 0.111154
vt 0.022115 0.142369
vt 0.441087 0.140603
vt 0.441087 0.176484
vt 0.024232 0.140603
vt 0.024232 0.176484
vt 0.022009 0.049145
vt 0.022009 0.080295
vt 0.444020 0.049145
vt 0.444020 0.080295
vt 0.022398 0.107521
vt 0.022398 0.137213
vt 0.444095 0.107521
vt 0.444095 0.137213
vt 0.443408 0.051931
vt 0.463622 0.118225
vt 0.022115 0.051932
vt 0.001900 0.118226
vt 0.021579 0.072850
vt 0.001330 0.006694
vt 0.443591 0.072850
vt 0.463840 0.006693
vt 0.022398 0.128998
vt 0.002164 0.065938
vt 0.444095 0.128997
vt 0.464329 0.065936
vt 0.463622 0.142369
vt 0.463622 0.067645
vt 0.001900 0.142369
vt 0.001900 0.067645
vt 0.544291 0.995246
vt 0.544291 0.946206
vt 0.887780 0.995245
vt 0.887780 0.946206
vt 0.938784 0.995241
vt 0.938784 0.946202
vt 0.595295 0.995242
vt 0.595295 0.946203
vt 0.498018 0.263079
vt 0.473498 0.263079
vt 0.498017 0.980146
vt 0.473498 0.980146
vt 0.498018 0.747301
vt 0.473498 0.747301
vt 0.498018 0.030234
vt 0.473498 0.030234
vt 0.001759 0.080295
vt 0.001759 0.005726
vt 0.464269 0.080295
vt 0.464269 0.005726
s 1
usemtl Material.00__crate_a.PNG
f 181/117/94 182/118/95 183/119/96
f 182/118/95 184/120/97 183/119/96
f 132/121/98 133/122/99 134/123/100
f 133/122/99 122/124/101 134/123/100
f 134/123/100 122/124/101 129/125/102
f 122/124/101 128/126/103 129/125/102
f 129/125/102 128/126/103 130/127/104
f 128/126/103 131/128/105 130/127/104
f 130/127/104 131/128/105 132/121/98
f 131/128/105 133/122/99 132/121/98
f 138/123/106 133/124/99 137/125/107
f 133/124/99 131/126/105 137/125/107
f 137/125/107 131/126/105 136/127/108
f 131/126/105 135/128/109 136/127/108
f 136/127/108 135/128/109 140/121/110
f 135/128/109 139/122/111 140/121/110
f 140/121/110 139/122/111 138/123/106
f 139/122/111 133/124/99 138/123/106
f 121/125/112 122/124/101 123/123/113
f 122/124/101 124/122/114 123/123/113
f 123/123/113 124/122/114 125/121/115
f 124/122/114 126/128/116 125/121/115
f 125/121/115 126/128/116 127/127/117
f 126/128/116 128/126/103 127/127/117
f 127/127/117 128/126/103 121/125/112
f 128/126/103 122/124/101 121/125/112
f 144/123/118 139/124/111 141/125/119
f 139/124/111 135/126/109 141/125/119
f 141/125/119 135/126/109 142/127/120
f 135/126/109 126/128/116 142/127/120
f 142/127/120 126/128/116 143/121/121
f 126/128/116 124/122/114 143/121/121
f 143/121/121 124/122/114 144/123/118
f 124/122/114 139/124/111 144/123/118
f 179/129/122 172/130/123 174/131/124
f 172/130/123 173/132/125 174/131/124
f 174/131/124 173/132/125 175/133/126
f 173/132/125 176/134/127 175/133/126
f 175/133/126 176/134/127 177/135/128
f 176/134/127 178/136/129 177/135/128
f 177/135/128 178/136/129 174/131/124
f 178/136/129 179/129/122 174/131/124
f 177/135/128 174/131/124 175/133/126
f 111/137/130 112/138/131 113/139/130
f 113/139/130 112/138/131 114/140/132
f 112/138/131 115/141/133 114/140/132
f 114/140/132 115/141/133 116/142/134
f 115/141/133 117/143/135 116/142/134
f 116/142/134 117/143/135 118/144/136
f 117/143/135 119/145/137 118/144/136
f 118/144/136 119/145/137 120/146/137
f 110/137/138 108/138/139 109/139/138
f 109/139/138 108/138/139 107/140/140
f 108/138/139 106/141/141 107/140/140
f 107/140/140 106/141/141 105/142/142
f 106/141/141 104/143/143 105/142/142
f 105/142/142 104/143/143 102/144/144
f 104/143/143 103/145/145 102/144/144
f 103/145/145 101/146/145 102/144/144
f 185/147/146 186/148/147 187/149/148
f 187/149/148 186/148/147 184/150/97
f 186/148/147 188/151/149 184/150/97
f 184/150/97 188/151/149 183/152/96
f 178/136/129 176/134/127 180/153/150
f 180/153/150 176/134/127 172/130/123
f 176/134/127 173/132/125 172/130/123
f 170/154/151 171/155/152 167/134/153
f 171/155/152 165/156/154 167/134/153
f 167/134/153 165/156/154 166/135/155
f 163/157/156 170/154/151 164/131/157
f 164/131/157 170/154/151 169/132/158
f 170/154/151 167/134/153 169/132/158
f 169/132/158 167/134/153 168/133/159
f 167/134/153 166/135/155 168/133/159
f 168/133/159 166/135/155 164/131/157
f 166/135/155 165/156/154 164/131/157
f 164/131/157 165/156/154 163/157/156
f 168/133/159 164/131/157 169/132/158
f 160/156/160 156/131/161 159/135/162
f 156/131/161 157/133/163 159/135/162
f 159/135/162 157/133/163 158/134/164
f 157/133/163 155/132/165 158/134/164
f 158/134/164 155/132/165 154/154/166
f 155/132/165 156/131/161 154/154/166
f 154/154/166 156/131/161 161/157/167
f 156/131/161 160/156/160 161/157/167
f 154/154/166 162/155/168 158/134/164
f 162/155/168 160/156/160 158/134/164
f 158/134/164 160/156/160 159/135/162
f 156/131/161 155/132/165 157/133/163
f 152/157/169 147/131/170 151/156/171
f 147/131/170 150/135/172 151/156/171
f 151/156/171 150/135/172 149/134/173
f 150/135/172 148/133/174 149/134/173
f 149/134/173 148/133/174 146/132/175
f 148/133/174 147/131/170 146/132/175
f 146/132/175 147/131/170 145/154/176
f 147/131/170 152/157/169 145/154/176
f 146/132/175 145/154/176 149/134/173
f 145/154/176 153/155/177 149/134/173
f 149/134/173 153/155/177 151/156/171
f 147/131/170 148/133/174 150/135/172
f 197/158/178 181/159/94 200/160/178
f 181/159/94 183/161/96 200/160/178
f 200/162/178 183/163/96 199/164/178
f 183/163/96 188/165/149 199/164/178
f 199/166/178 188/167/149 198/168/178
f 188/167/149 190/169/179 198/168/178
f 198/170/178 190/159/179 197/171/178
f 190/159/179 181/172/94 197/171/178
f 139/173/111 124/174/114 133/175/99
f 124/174/114 122/176/101 133/175/99
f 196/177/180 193/178/181 195/179/182
f 193/178/181 194/180/183 195/179/182
f 195/181/182 192/182/184 196/183/180
f 192/182/184 185/184/146 196/183/180
f 196/185/180 185/186/146 193/187/181
f 185/186/146 187/188/148 193/187/181
f 194/189/183 191/190/185 195/191/182
f 191/190/185 192/192/184 195/191/182
f 193/193/181 187/194/148 194/195/183
f 187/194/148 191/196/185 194/195/183
f 192/197/184 189/198/186 185/199/146
f 189/198/186 186/200/147 185/199/146
f 191/201/185 182/202/95 192/203/184
f 182/202/95 189/204/186 192/203/184
f 187/205/148 184/206/97 191/207/185
f 184/206/97 182/208/95 191/207/185
f 189/209/186 190/210/179 186/211/147
f 190/210/179 188/212/149 186/211/147
f 153/213/177 132/214/98 151/215/171
f 132/214/98 134/216/100 151/215/171
f 152/217/169 129/218/102 145/219/176
f 129/218/102 130/220/104 145/219/176
f 151/221/171 134/222/100 152/223/169
f 134/222/100 129/224/102 152/223/169
f 145/225/176 130/226/104 153/227/177
f 130/226/104 132/228/98 153/227/177
f 162/213/168 143/214/121 160/215/160
f 143/214/121 144/216/118 160/215/160
f 161/217/167 141/218/119 154/219/166
f 141/218/119 142/220/120 154/219/166
f 160/221/160 144/222/118 161/223/167
f 144/222/118 141/224/119 161/223/167
f 154/225/166 142/226/120 162/227/168
f 142/226/120 143/228/121 162/227/168
f 123/216/113 125/214/115 171/215/152
f 125/214/115 165/213/154 171/215/152
f 127/220/117 121/218/112 163/219/156
f 121/218/112 170/217/151 163/219/156
f 121/224/112 123/222/113 170/223/151
f 123/222/113 171/221/152 170/223/151
f 125/228/115 127/226/117 165/227/154
f 127/226/117 163/225/156 165/227/154
f 172/225/123 136/226/108 180/227/150
f 136/226/108 140/228/110 180/227/150
f 178/221/129 138/222/106 179/223/122
f 138/222/106 137/224/107 179/223/122
f 179/217/122 137/218/107 172/219/123
f 137/218/107 136/220/108 172/219/123
f 180/213/150 140/214/110 178/215/129
f 140/214/110 138/216/106 178/215/129
f 182/229/95 181/230/94 189/231/186
f 181/230/94 190/232/179 189/231/186
o Cube.002
v 12.400885 -1.538184 -0.858643
v 12.400995 -1.492941 -0.858954
v 7.835330 -1.538184 -2.490494
v 7.835441 -1.492941 -2.490804
v 12.414239 -1.470604 -0.896006
v 7.848684 -1.470604 -2.527856
v 12.427370 -1.493512 -0.932747
v 7.861816 -1.493512 -2.564598
v 12.427259 -1.538756 -0.932436
v 7.861706 -1.538757 -2.564286
v 9.278769 -1.538757 0.557985
v 9.278459 -1.493512 0.557874
v 10.910619 -1.538756 -4.007569
v 10.910308 -1.493512 -4.007681
v 9.315199 -1.470604 0.571006
v 10.947049 -1.470604 -3.994548
v 9.352251 -1.492941 0.584249
v 10.984100 -1.492941 -3.981305
v 9.352561 -1.538184 0.584360
v 10.984411 -1.538184 -3.981194
v 10.641469 -2.009775 -3.869873
v 10.952539 -5.161125 -4.018000
v 10.641470 -4.904855 -3.869872
v 7.826124 -5.161125 -2.529488
v 8.137213 -4.904855 -2.677573
v 7.826124 -1.698448 -2.529488
v 8.137213 -2.009775 -2.677573
v 10.952539 -1.698448 -4.017999
v 11.100644 -2.009775 -3.706928
v 12.292942 -2.009775 -1.202670
v 12.441048 -1.698448 -0.891591
v 12.292942 -4.904855 -1.202670
v 12.441049 -5.161125 -0.891592
v 11.100643 -4.904855 -3.706928
v 9.314631 -1.698448 0.596918
v 9.625710 -2.009775 0.448812
v 12.129969 -2.009775 -0.743485
v 12.129969 -4.904855 -0.743486
v 9.314632 -5.161125 0.596918
v 9.625711 -4.904855 0.448812
v 9.166524 -2.009775 0.285840
v 7.974227 -2.009775 -2.218418
v 7.974228 -4.904855 -2.218418
v 9.166525 -4.904855 0.285840
v 12.114178 -2.009775 -1.117559
v 11.894891 -2.733545 -1.781136
v 11.298742 -2.733545 -3.033264
v 11.644834 -3.457315 -2.430061
v 11.894892 -4.181085 -1.781136
v 11.298742 -4.181085 -3.033265
v 10.921880 -4.904855 -3.621817
v 10.921881 -2.009775 -3.621817
v 12.114178 -4.904855 -1.117560
v 8.152990 -2.009775 -2.303529
v 8.372276 -2.733545 -1.639952
v 8.968425 -2.733545 -0.387823
v 8.622334 -3.457315 -0.991026
v 8.372276 -4.181085 -1.639952
v 8.968426 -4.181085 -0.387823
v 9.345288 -4.904855 0.200730
v 9.345287 -2.009775 0.200729
v 8.152990 -4.904855 -2.303528
v 8.222368 -2.009775 -2.498717
v 8.810950 -2.733545 -2.875518
v 8.222368 -4.904855 -2.498717
v 8.810950 -4.181085 -2.875518
v 10.063079 -4.181085 -3.471667
v 9.414154 -3.457315 -3.221608
v 10.063079 -2.733545 -3.471667
v 10.726625 -2.009775 -3.691015
v 10.726625 -4.904855 -3.691015
v 9.540600 -2.009775 0.270049
v 10.188814 -2.733545 0.018496
v 11.440943 -2.733545 -0.577653
v 10.837740 -3.457315 -0.231562
v 10.188814 -4.181085 0.018496
v 11.440944 -4.181085 -0.577654
v 12.044859 -4.904855 -0.922249
v 12.044858 -2.009775 -0.922248
v 9.540601 -4.904855 0.270049
v 12.606253 -1.805012 -0.832957
v 12.606253 -1.461780 -0.832957
v 9.255998 -1.805012 0.762124
v 9.255998 -1.461780 0.762124
v 7.877433 -1.461780 -2.511279
v 7.660919 -1.461780 -2.588122
v 9.332842 -1.461780 0.545610
v 7.660919 -1.805012 -2.588122
v 11.011173 -1.461780 -4.183204
v 11.011173 -1.805012 -4.183204
v 12.389739 -1.461780 -0.909801
v 10.934330 -1.461780 -3.966691
v 9.332842 -1.538272 0.545610
v 12.389739 -1.538272 -0.909801
v 10.934330 -1.538272 -3.966691
v 7.877433 -1.538272 -2.511279
v 12.424560 -1.805012 -0.897443
v 10.946689 -1.805012 -4.001512
v 7.842612 -1.805012 -2.523637
v 9.320483 -1.805012 0.580431
vn 0.5975 -0.8018 0.0116
vn 0.4711 0.8018 0.3677
vn -0.0116 -0.8018 0.5975
vn -0.3677 0.8018 0.4711
vn 0.6090 0.5345 -0.5860
vn 0.8524 -0.4264 0.3025
vn 0.9537 0.2673 0.1379
vn 0.3256 -0.2294 -0.9173
vn 0.8389 -0.5345 -0.1034
vn 0.3345 -0.0000 -0.9424
vn 0.4942 -0.2673 -0.8272
vn 0.9424 -0.0000 0.3345
vn -0.1379 0.2673 0.9537
vn 0.1034 -0.5345 0.8388
vn 0.8272 -0.2673 0.4942
vn -0.3345 -0.0000 0.9424
vn 0.5860 0.5345 0.6091
vn -0.3255 -0.2295 0.9173
vn -0.5860 -0.5345 -0.6090
vn -0.8273 0.2673 -0.4942
vn -0.8524 -0.4264 -0.3026
vn -0.1033 0.5345 -0.8388
vn -0.9424 -0.0000 -0.3345
vn 0.1379 -0.2673 -0.9537
vn -0.9537 0.2673 -0.1379
vn -0.8389 -0.5345 0.1034
vn -0.4942 -0.2673 0.8272
vn -0.6091 0.5345 0.5860
vn -0.3014 -0.3177 0.8990
vn 0.5541 -0.4145 0.7219
vn 0.4631 0.0358 0.8856
vn 0.3955 0.0358 0.9178
vn 0.4299 -0.0000 0.9029
vn 0.3955 -0.0358 0.9178
vn 0.4631 -0.0358 0.8856
vn 0.2110 0.4144 0.8853
vn -0.9416 -0.0073 -0.3366
vn -0.8920 0.3204 -0.3188
vn -0.7163 0.6491 -0.2560
vn -0.1847 0.9806 -0.0659
vn 0.1711 0.9833 0.0612
vn 0.7073 0.6601 0.2528
vn 0.8875 0.3343 0.3173
vn 0.9416 0.0073 0.3366
vn 0.3366 -0.0073 -0.9416
vn 0.3188 0.3204 -0.8920
vn 0.2561 0.6491 -0.7163
vn 0.0659 0.9806 -0.1847
vn -0.0612 0.9833 0.1711
vn -0.2528 0.6601 0.7073
vn -0.3172 0.3343 0.8875
vn -0.3366 0.0073 0.9416
vn 0.5974 0.8018 0.0116
vn -0.4711 0.8018 -0.3677
vn 0.0116 0.8018 -0.5975
vn -0.5975 -0.8018 -0.0116
vn 0.8879 0.3177 0.3327
vn -0.7462 -0.1727 -0.6429
vn -0.5725 0.6550 -0.4932
vn -0.3795 -0.0522 -0.9237
vn -0.0286 0.1727 -0.9846
vn -0.4743 -0.0483 -0.8790
vn -0.0219 -0.6550 -0.7553
vn -0.4778 0.0522 -0.8769
vn -0.3833 0.0483 -0.9224
vn -0.4299 -0.0000 -0.9029
vn -0.8865 0.3995 0.2335
vn -0.8769 0.0522 0.4779
vn -0.8790 -0.0484 0.4744
vn -0.9029 -0.0000 0.4299
vn -0.9237 -0.0522 0.3794
vn -0.9224 0.0484 0.3833
vn -0.7401 -0.3995 0.5409
vn -0.9056 -0.3069 -0.2927
vn -0.3437 0.3069 0.8875
vn 0.9056 -0.3069 0.2927
vn 0.8769 0.0522 -0.4779
vn 0.8865 0.3995 -0.2335
vn 0.8790 -0.0484 -0.4744
vn 0.9238 -0.0523 -0.3794
vn 0.9029 -0.0000 -0.4299
vn 0.9224 0.0484 -0.3833
vn 0.7401 -0.3995 -0.5409
vn 0.3437 0.3069 -0.8875
vn -0.0000 -1.0000 -0.0000
vn 0.0116 -0.8018 -0.5975
vn 0.7196 0.4083 0.5617
vn 0.4586 0.6667 -0.5876
vn -0.4586 0.6667 0.5876
vn -0.7196 0.4083 -0.5617
vn -0.0116 0.8018 0.5975
vn -0.5975 0.8018 -0.0116
vn 0.3677 0.8018 -0.4711
vt 0.464329 0.066134
vt 0.464329 0.137213
vt 0.002164 0.066134
vt 0.002164 0.137213
vt 0.508820 0.040167
vt 0.467959 0.002281
vt 0.969821 0.040167
vt 1.000916 0.002281
vt 0.969821 0.939856
vt 1.000916 0.998757
vt 0.508820 0.939856
vt 0.467959 0.998757
vt 0.968202 0.934051
vt 0.507354 0.934051
vt 0.852990 0.714012
vt 0.622566 0.714012
vt 0.737778 0.493973
vt 0.622566 0.273934
vt 0.852990 0.273934
vt 0.968202 0.053895
vt 0.003137 0.163427
vt 0.009224 0.129809
vt 0.439020 0.163427
vt 0.445107 0.129809
vt 0.015311 0.096191
vt 0.451194 0.096191
vt 0.021398 0.062572
vt 0.457281 0.062573
vt 0.027485 0.028954
vt 0.463368 0.028954
vt 0.439460 0.099427
vt 0.459461 0.175632
vt 0.022604 0.099427
vt 0.002602 0.175633
vt 0.461089 0.090589
vt 0.004230 0.090589
vt 0.507354 0.053895
vt 0.510854 0.933051
vt 0.510854 0.052895
vt 0.964452 0.053895
vt 0.964452 0.934051
vt 0.426929 0.124094
vt 0.442634 0.092682
vt 0.030861 0.124095
vt 0.015155 0.092683
vt 0.016539 0.021717
vt 0.000834 0.053129
vt 0.412606 0.021717
vt 0.428312 0.053128
vt 0.016157 0.024005
vt 0.000451 0.055417
vt 0.412225 0.024005
vt 0.427931 0.055416
vt 0.426928 0.124093
vt 0.030861 0.124093
vt 0.015156 0.092682
vt 0.000000 1.000000
vt 0.000000 0.200272
vt 0.468327 1.000000
vt 0.468327 0.200272
vt 0.001617 0.998792
vt 0.001617 0.188273
vt 0.466704 0.998792
vt 0.466704 0.188272
vt 0.443408 0.111154
vt 0.443408 0.142369
vt 0.022115 0.111154
vt 0.022115 0.142369
vt 0.441087 0.140603
vt 0.441087 0.176484
vt 0.024232 0.140603
vt 0.024232 0.176484
vt 0.022009 0.049145
vt 0.022009 0.080295
vt 0.444020 0.049145
vt 0.444020 0.080295
vt 0.022398 0.107521
vt 0.022398 0.137213
vt 0.444095 0.107521
vt 0.444095 0.137213
vt 0.443408 0.051931
vt 0.463622 0.118225
vt 0.022115 0.051932
vt 0.001900 0.118226
vt 0.021579 0.072850
vt 0.001330 0.006694
vt 0.443591 0.072850
vt 0.463840 0.006693
vt 0.022398 0.128998
vt 0.002164 0.065938
vt 0.444095 0.128997
vt 0.464329 0.065936
vt 0.463622 0.142369
vt 0.463622 0.067645
vt 0.001900 0.142369
vt 0.001900 0.067645
vt 0.544291 0.995246
vt 0.544291 0.946206
vt 0.887780 0.995245
vt 0.887780 0.946206
vt 0.938784 0.995241
vt 0.938784 0.946202
vt 0.595295 0.995242
vt 0.595295 0.946203
vt 0.498018 0.263079
vt 0.473498 0.263079
vt 0.498017 0.980146
vt 0.473498 0.980146
vt 0.498018 0.747301
vt 0.473498 0.747301
vt 0.498018 0.030234
vt 0.473498 0.030234
vt 0.001759 0.080295
vt 0.001759 0.005726
vt 0.464269 0.080295
vt 0.464269 0.005726
s 1
usemtl Material.00__crate_a.PNG
f 281/233/187 282/234/188 283/235/189
f 282/234/188 284/236/190 283/235/189
f 232/237/191 233/238/192 234/239/193
f 233/238/192 222/240/194 234/239/193
f 234/239/193 222/240/194 229/241/195
f 222/240/194 228/242/196 229/241/195
f 229/241/195 228/242/196 230/243/197
f 228/242/196 231/244/198 230/243/197
f 230/243/197 231/244/198 232/237/191
f 231/244/198 233/238/192 232/237/191
f 238/239/199 233/240/192 237/241/200
f 233/240/192 231/242/198 237/241/200
f 237/241/200 231/242/198 236/243/201
f 231/242/198 235/244/202 236/243/201
f 236/243/201 235/244/202 240/237/203
f 235/244/202 239/238/204 240/237/203
f 240/237/203 239/238/204 238/239/199
f 239/238/204 233/240/192 238/239/199
f 221/241/205 222/240/194 223/239/206
f 222/240/194 224/238/207 223/239/206
f 223/239/206 224/238/207 225/237/208
f 224/238/207 226/244/209 225/237/208
f 225/237/208 226/244/209 227/243/210
f 226/244/209 228/242/196 227/243/210
f 227/243/210 228/242/196 221/241/205
f 228/242/196 222/240/194 221/241/205
f 244/239/211 239/240/204 241/241/212
f 239/240/204 235/242/202 241/241/212
f 241/241/212 235/242/202 242/243/213
f 235/242/202 226/244/209 242/243/213
f 242/243/213 226/244/209 243/237/214
f 226/244/209 224/238/207 243/237/214
f 243/237/214 224/238/207 244/239/211
f 224/238/207 239/240/204 244/239/211
f 279/245/215 272/246/216 274/247/217
f 272/246/216 273/248/218 274/247/217
f 274/247/217 273/248/218 275/249/219
f 273/248/218 276/250/220 275/249/219
f 275/249/219 276/250/220 277/251/221
f 276/250/220 278/252/222 277/251/221
f 277/251/221 278/252/222 274/247/217
f 278/252/222 279/245/215 274/247/217
f 277/251/221 274/247/217 275/249/219
f 211/253/223 212/254/224 213/255/223
f 213/255/223 212/254/224 214/256/225
f 212/254/224 215/257/226 214/256/225
f 214/256/225 215/257/226 216/258/227
f 215/257/226 217/259/228 216/258/227
f 216/258/227 217/259/228 218/260/229
f 217/259/228 219/261/230 218/260/229
f 218/260/229 219/261/230 220/262/230
f 210/253/231 208/254/232 209/255/231
f 209/255/231 208/254/232 207/256/233
f 208/254/232 206/257/234 207/256/233
f 207/256/233 206/257/234 205/258/235
f 206/257/234 204/259/236 205/258/235
f 205/258/235 204/259/236 202/260/237
f 204/259/236 203/261/238 202/260/237
f 203/261/238 201/262/238 202/260/237
f 285/263/239 286/264/240 287/265/241
f 287/265/241 286/264/240 284/266/190
f 286/264/240 288/267/242 284/266/190
f 284/266/190 288/267/242 283/268/189
f 278/252/222 276/250/220 280/269/243
f 280/269/243 276/250/220 272/246/216
f 276/250/220 273/248/218 272/246/216
f 270/270/244 271/271/245 267/250/246
f 271/271/245 265/272/247 267/250/246
f 267/250/246 265/272/247 266/251/248
f 263/273/249 270/270/244 264/247/250
f 264/247/250 270/270/244 269/248/251
f 270/270/244 267/250/246 269/248/251
f 269/248/251 267/250/246 268/249/252
f 267/250/246 266/251/248 268/249/252
f 268/249/252 266/251/248 264/247/250
f 266/251/248 265/272/247 264/247/250
f 264/247/250 265/272/247 263/273/249
f 268/249/252 264/247/250 269/248/251
f 260/272/253 256/247/254 259/251/255
f 256/247/254 257/249/256 259/251/255
f 259/251/255 257/249/256 258/250/257
f 257/249/256 255/248/258 258/250/257
f 258/250/257 255/248/258 254/270/259
f 255/248/258 256/247/254 254/270/259
f 254/270/259 256/247/254 261/273/260
f 256/247/254 260/272/253 261/273/260
f 254/270/259 262/271/261 258/250/257
f 262/271/261 260/272/253 258/250/257
f 258/250/257 260/272/253 259/251/255
f 256/247/254 255/248/258 257/249/256
f 252/273/262 247/247/263 251/272/264
f 247/247/263 250/251/265 251/272/264
f 251/272/264 250/251/265 249/250/266
f 250/251/265 248/249/267 249/250/266
f 249/250/266 248/249/267 246/248/268
f 248/249/267 247/247/263 246/248/268
f 246/248/268 247/247/263 245/270/269
f 247/247/263 252/273/262 245/270/269
f 246/248/268 245/270/269 249/250/266
f 245/270/269 253/271/270 249/250/266
f 249/250/266 253/271/270 251/272/264
f 247/247/263 248/249/267 250/251/265
f 297/274/271 281/275/187 300/276/271
f 281/275/187 283/277/189 300/276/271
f 300/278/271 283/279/189 299/280/271
f 283/279/189 288/281/242 299/280/271
f 299/282/271 288/283/242 298/284/271
f 288/283/242 290/285/272 298/284/271
f 298/286/271 290/275/272 297/287/271
f 290/275/272 281/288/187 297/287/271
f 239/289/204 224/290/207 233/291/192
f 224/290/207 222/292/194 233/291/192
f 296/293/273 293/294/274 295/295/275
f 293/294/274 294/296/276 295/295/275
f 295/297/275 292/298/277 296/299/273
f 292/298/277 285/300/239 296/299/273
f 296/301/273 285/302/239 293/303/274
f 285/302/239 287/304/241 293/303/274
f 294/305/276 291/306/278 295/307/275
f 291/306/278 292/308/277 295/307/275
f 293/309/274 287/310/241 294/311/276
f 287/310/241 291/312/278 294/311/276
f 292/313/277 289/314/279 285/315/239
f 289/314/279 286/316/240 285/315/239
f 291/317/278 282/318/188 292/319/277
f 282/318/188 289/320/279 292/319/277
f 287/321/241 284/322/190 291/323/278
f 284/322/190 282/324/188 291/323/278
f 289/325/279 290/326/272 286/327/240
f 290/326/272 288/328/242 286/327/240
f 253/329/270 232/330/191 251/331/264
f 232/330/191 234/332/193 251/331/264
f 252/333/262 229/334/195 245/335/269
f 229/334/195 230/336/197 245/335/269
f 251/337/264 234/338/193 252/339/262
f 234/338/193 229/340/195 252/339/262
f 245/341/269 230/342/197 253/343/270
f 230/342/197 232/344/191 253/343/270
f 262/329/261 243/330/214 260/331/253
f 243/330/214 244/332/211 260/331/253
f 261/333/260 241/334/212 254/335/259
f 241/334/212 242/336/213 254/335/259
f 260/337/253 244/338/211 261/339/260
f 244/338/211 241/340/212 261/339/260
f 254/341/259 242/342/213 262/343/261
f 242/342/213 243/344/214 262/343/261
f 223/332/206 225/330/208 271/331/245
f 225/330/208 265/329/247 271/331/245
f 227/336/210 221/334/205 263/335/249
f 221/334/205 270/333/244 263/335/249
f 221/340/205 223/338/206 270/339/244
f 223/338/206 271/337/245 270/339/244
f 225/344/208 227/342/210 265/343/247
f 227/342/210 263/341/249 265/343/247
f 272/341/216 236/342/201 280/343/243
f 236/342/201 240/344/203 280/343/243
f 278/337/222 238/338/199 279/339/215
f 238/338/199 237/340/200 279/339/215
f 279/333/215 237/334/200 272/335/216
f 237/334/200 236/336/201 272/335/216
f 280/329/243 240/330/203 278/331/222
f 240/330/203 238/332/199 278/331/222
f 282/345/188 281/346/187 289/347/279
f 281/346/187 290/348/272 289/347/279
