# Blender 5.1.2
# www.blender.org
mtllib ding.mtl
o vitrine
v -32.491989 2.150312 -4.737547
v -31.025291 2.161459 -4.594810
v -31.490879 2.161458 0.189377
v -32.957581 2.150311 0.046637
v -31.490879 2.301914 0.189377
v -31.025291 2.301915 -4.594810
v -32.491989 2.292378 -4.737547
v -32.957581 2.292377 0.046637
v -32.491989 -1.769883 -4.737548
v -32.957581 -1.769884 0.046636
v -31.490881 -1.764620 0.189376
v -31.025291 -1.764619 -4.594811
v -31.490881 -1.918546 0.189376
v -32.957581 -1.923903 0.046636
v -32.491989 -1.923902 -4.737548
v -31.025291 -1.918545 -4.594811
v -32.491989 0.295123 -4.737548
v -32.957581 0.295122 0.046636
v -31.490881 0.304783 0.189376
v -31.025291 0.304783 -4.594811
v -32.491989 0.155410 -4.737548
v -32.957581 0.155409 0.046636
v -31.490881 0.162035 0.189376
v -31.025291 0.162036 -4.594811
v -32.542770 -4.025096 -4.742494
v -32.542770 -3.580629 -4.742494
v -32.529209 -3.580629 -4.881839
v -32.529209 -4.025096 -4.881839
v -33.008358 -3.580630 0.041698
v -33.008358 -4.025097 0.041697
v -33.065613 4.094957 0.416648
v -31.263321 4.094957 0.592045
v -31.263321 4.138958 0.592045
v -33.065613 4.138958 0.416648
v -30.741688 4.094958 -4.767980
v -30.727003 4.094958 -4.918882
v -30.727003 4.138958 -4.918882
v -30.741688 4.138958 -4.767980
v -33.024456 -3.580630 0.207131
v -33.024460 3.683498 0.207132
v -33.008362 3.683498 0.041698
v -32.345169 -3.580629 -4.723260
v -32.345169 3.669317 -4.723259
v -32.810760 3.669316 0.060925
v -32.810760 -3.580630 0.060927
v -32.529297 4.094958 -5.094278
v -32.543983 4.094958 -4.943376
v -32.543983 4.138958 -4.943376
v -32.529297 4.138958 -5.094278
v -33.048180 4.138958 0.237500
v -33.051800 4.165030 0.385065
v -33.034569 4.165030 0.208031
v -32.556065 3.889228 -5.108062
v -32.570808 3.889228 -4.956552
v -30.761253 3.889228 -4.780449
v -30.746510 3.889228 -4.931959
v -32.547382 -4.280679 -4.963183
v -32.561363 -4.280679 -4.819508
v -30.878471 -3.580629 -4.580523
v -31.344061 -3.580630 0.203664
v -31.344061 -4.025097 0.203664
v -30.878471 -4.025096 -4.580523
v -30.864908 -4.025096 -4.719872
v -30.864908 -3.580629 -4.719872
v -32.529209 3.683499 -4.881838
v -30.864910 3.683499 -4.719871
v -31.344065 3.683498 0.203665
v -31.360165 3.683498 0.369099
v -31.360161 -3.580630 0.369098
v -31.245886 4.094957 0.412896
v -31.245886 4.138958 0.412896
v -31.247793 -4.280680 0.287829
v -30.767742 -4.280679 -4.644956
v -33.094543 3.889227 0.425070
v -31.284988 3.889227 0.601173
v -32.536327 4.165032 -4.911669
v -31.253559 4.165030 0.381356
v -31.270786 4.165030 0.558390
v -30.831394 -4.280679 -4.796186
v -31.267483 3.889227 0.421301
v -33.024456 -4.025097 0.207131
v -31.360161 -4.025097 0.369098
v -31.342026 -4.280680 0.450846
v -30.755314 4.165032 -4.738344
v -30.740803 4.165032 -4.887463
v -32.521812 4.165032 -5.060787
v -31.238401 -4.883334 0.323199
v -31.333942 -4.883334 0.488477
v -31.342026 -4.969427 0.450846
v -31.247793 -4.969427 0.287829
v -32.570198 -4.883334 -4.855009
v -32.556023 -4.883334 -5.000679
v -32.547382 -4.969428 -4.963183
v -32.561363 -4.969428 -4.819508
v -33.041416 -4.280680 0.113277
v -33.077038 3.889227 0.245198
v -33.048180 4.094957 0.237500
v -33.058018 -4.280680 0.283849
v -33.073746 -4.883334 0.319163
v -33.056915 -4.883334 0.146224
v -33.041416 -4.969427 0.113277
v -33.058018 -4.969427 0.283848
v -30.751690 -4.883334 -4.678036
v -30.767742 -4.969428 -4.644956
v -30.816225 -4.883334 -4.831365
v -30.831394 -4.969428 -4.796186
v -32.542770 3.683499 -4.742489
v -30.878471 3.683499 -4.580523
v -31.342026 -4.625054 0.450846
v -31.247793 -4.625054 0.287829
v -32.547382 -4.625053 -4.963183
v -32.561363 -4.625053 -4.819508
v -33.041416 -4.625054 0.113277
v -33.058018 -4.625054 0.283849
v -30.767742 -4.625053 -4.644956
v -30.831394 -4.625053 -4.796186
v -31.342026 -4.797240 0.450846
v -31.247793 -4.797240 0.287829
v -32.547382 -4.797242 -4.963183
v -32.561363 -4.797242 -4.819508
v -33.041416 -4.797240 0.113277
v -33.058018 -4.797240 0.283849
v -30.767742 -4.797242 -4.644956
v -30.831394 -4.797242 -4.796186
v -30.930225 -5.165873 -4.714667
v -30.925287 -4.929207 -4.765402
v -30.829020 -4.929207 -4.696587
v -30.875427 -5.165873 -4.675496
v -30.840483 -4.929207 -4.578812
v -30.881950 -5.165873 -4.608455
v -30.948210 -4.929207 -4.529849
v -30.943274 -5.165873 -4.580584
v -31.044476 -4.929207 -4.598664
v -30.998072 -5.165873 -4.619756
v -30.991547 -5.165873 -4.686796
v -31.033014 -4.929207 -4.716439
v -32.957535 -5.165872 0.074412
v -32.999008 -4.929206 0.044770
v -32.891277 -4.929206 -0.004190
v -32.896214 -5.165872 0.046541
v -32.909264 -5.165872 0.180629
v -32.914200 -4.929206 0.231360
v -33.010468 -4.929206 0.162548
v -32.964062 -5.165872 0.141456
v -32.847939 -5.165872 0.152757
v -32.806473 -4.929206 0.182400
v -32.841415 -5.165872 0.085713
v -32.795010 -4.929206 0.064622
v -31.407675 -5.165872 0.191403
v -31.402739 -4.929206 0.140672
v -31.306471 -4.929206 0.209484
v -31.352877 -5.165872 0.230575
v -31.317932 -4.929206 0.327262
v -31.359402 -5.165872 0.297619
v -31.425661 -4.929206 0.376223
v -31.420725 -5.165872 0.325491
v -31.521927 -4.929206 0.307410
v -31.475521 -5.165872 0.286319
v -31.468998 -5.165872 0.219275
v -31.510464 -4.929206 0.189632
v -32.480087 -5.165873 -4.831659
v -32.521557 -4.929207 -4.861301
v -32.413826 -4.929207 -4.910264
v -32.418762 -5.165873 -4.859530
v -32.431812 -5.165873 -4.725446
v -32.436749 -4.929207 -4.674711
v -32.533016 -4.929207 -4.743526
v -32.486610 -5.165873 -4.764618
v -32.370491 -5.165873 -4.753317
v -32.329021 -4.929207 -4.723674
v -32.363964 -5.165873 -4.820358
v -32.317562 -4.929207 -4.841449
v -31.096626 -3.548228 -2.178683
v -31.138651 -3.106915 -1.746843
v -31.289412 -3.106916 -0.197636
v -31.325560 -3.548228 0.173814
v -31.289415 3.270832 -0.197632
v -31.325562 3.660305 0.173822
v -31.384968 3.668727 0.177371
v -31.384968 -3.557762 0.177366
v -31.335154 -3.557762 0.182211
v -31.335155 3.668727 0.182219
v -31.154034 -3.557762 -2.195665
v -31.346596 -3.092861 -0.216952
v -31.198261 -3.092860 -1.741164
v -31.346594 3.258415 -0.216948
v -31.299967 3.258415 -0.212410
v -31.299963 -3.092861 -0.212414
v -31.151632 3.258445 -1.736625
v -31.198263 3.258445 -1.741160
v -31.151636 -3.092860 -1.736629
v -31.154034 3.668728 -2.195660
v -31.096626 3.660306 -2.178675
v -31.138649 3.270832 -1.746838
v -31.104570 3.668728 -2.187234
v -31.104568 -3.557762 -2.187242
v -31.332176 0.407152 0.187227
v -31.332176 0.566589 0.187227
v -31.323893 0.566589 0.193148
v -31.323893 0.407152 0.193148
v -31.334148 0.407152 0.207496
v -31.334150 0.566589 0.207496
v -31.342434 0.566589 0.201572
v -31.342434 0.407152 0.201572
v -31.341448 0.566589 0.191439
v -31.341448 0.407152 0.191439
v -31.324879 0.407152 0.203281
v -31.324879 0.566589 0.203281
v -31.326441 0.568262 0.202165
v -31.325640 0.568262 0.193942
v -31.332363 0.568262 0.189138
v -31.339886 0.568262 0.192556
v -31.340685 0.568262 0.200778
v -31.333963 0.568262 0.205583
v -31.325132 0.405945 0.193711
v -31.332308 0.405945 0.188583
v -31.325987 0.405945 0.202492
v -31.334017 0.405945 0.206141
v -31.341194 0.405945 0.201012
v -31.340340 0.405945 0.192231
v -31.332176 2.607783 0.187224
v -31.332176 2.767252 0.187224
v -31.323893 2.767252 0.193148
v -31.323893 2.607783 0.193148
v -31.334150 2.607783 0.207497
v -31.334150 2.767252 0.207497
v -31.342434 2.767252 0.201573
v -31.342434 2.607783 0.201573
v -31.341448 2.767252 0.191440
v -31.341448 2.607783 0.191440
v -31.324879 2.607783 0.203281
v -31.324879 2.767252 0.203281
v -31.326441 2.768892 0.202165
v -31.325640 2.768892 0.193942
v -31.332363 2.768892 0.189135
v -31.339886 2.768892 0.192556
v -31.340685 2.768892 0.200779
v -31.333963 2.768892 0.205583
v -31.325132 2.606607 0.193712
v -31.332308 2.606607 0.188580
v -31.325987 2.606607 0.202489
v -31.334017 2.606607 0.206138
v -31.341194 2.606607 0.201009
v -31.340340 2.606607 0.192232
v -31.332176 -2.511306 0.187226
v -31.332176 -2.351851 0.187226
v -31.323893 -2.351851 0.193147
v -31.323893 -2.511306 0.193147
v -31.334148 -2.511306 0.207496
v -31.334148 -2.351851 0.207496
v -31.342434 -2.351851 0.201575
v -31.342434 -2.511306 0.201575
v -31.341448 -2.351851 0.191439
v -31.341448 -2.511306 0.191439
v -31.324879 -2.511306 0.203284
v -31.324879 -2.351851 0.203284
v -31.326441 -2.350188 0.202167
v -31.325640 -2.350188 0.193942
v -31.332363 -2.350188 0.189137
v -31.339886 -2.350188 0.192555
v -31.340685 -2.350188 0.200781
v -31.333963 -2.350188 0.205585
v -31.325132 -2.512486 0.193711
v -31.332308 -2.512486 0.188582
v -31.325987 -2.512486 0.202491
v -31.334017 -2.512486 0.206140
v -31.341194 -2.512486 0.201011
v -31.340340 -2.512486 0.192231
v -31.138357 0.332001 -2.026270
v -31.024275 0.332001 -2.015168
v -31.022511 0.288001 -2.033308
v -31.136591 0.288001 -2.044410
v -31.142618 0.225792 -1.982477
v -31.028538 0.225792 -1.971375
v -31.032799 0.244000 -1.927582
v -31.146881 0.244000 -1.938684
v -31.034565 0.288001 -1.909442
v -31.148645 0.288001 -1.920544
v -31.032799 0.332001 -1.927582
v -31.146881 0.332001 -1.938684
v -31.028538 0.350240 -1.971375
v -31.142618 0.350240 -1.982477
v -31.138357 0.244000 -2.026270
v -31.024275 0.244000 -2.015168
v -31.018755 0.236413 -1.970423
v -31.015221 0.251524 -2.006728
v -31.013758 0.288001 -2.021766
v -31.015221 0.324477 -2.006728
v -31.018753 0.339587 -1.970423
v -31.022287 0.324477 -1.934118
v -31.023750 0.288001 -1.919079
v -31.022287 0.251524 -1.934118
v -31.312227 3.280461 -0.080796
v -31.312231 -3.225040 -0.080798
v -31.141447 -3.225040 -1.835684
v -31.141445 3.280461 -1.835683
v -31.154900 3.280461 -1.836992
v -31.154907 -3.225040 -1.836994
v -31.325684 -3.225040 -0.082107
v -31.325680 3.280461 -0.082106
v -30.867535 2.607784 -4.587249
v -30.867535 2.767253 -4.587249
v -30.859251 2.767253 -4.581325
v -30.859251 2.607784 -4.581325
v -30.869509 2.607784 -4.566976
v -30.869509 2.767253 -4.566976
v -30.877792 2.767253 -4.572900
v -30.877792 2.607784 -4.572900
v -30.876806 2.767253 -4.583034
v -30.876806 2.607784 -4.583034
v -30.860237 2.607784 -4.571192
v -30.860237 2.767253 -4.571192
v -30.861803 2.768894 -4.572309
v -30.861002 2.768894 -4.580531
v -30.867722 2.768894 -4.585335
v -30.875244 2.768894 -4.581917
v -30.876045 2.768894 -4.573694
v -30.869322 2.768894 -4.568890
v -30.860493 2.606608 -4.580761
v -30.867668 2.606608 -4.585893
v -30.861345 2.606608 -4.571984
v -30.869377 2.606608 -4.568332
v -30.876553 2.606608 -4.573464
v -30.875698 2.606608 -4.582241
v -30.867527 -2.511309 -4.587246
v -30.867527 -2.351853 -4.587246
v -30.859241 -2.351853 -4.581325
v -30.859241 -2.511309 -4.581325
v -30.869499 -2.511309 -4.566976
v -30.869499 -2.351853 -4.566976
v -30.877783 -2.351853 -4.572897
v -30.877783 -2.511309 -4.572897
v -30.876797 -2.351853 -4.583034
v -30.876797 -2.511309 -4.583034
v -30.860229 -2.511309 -4.571188
v -30.860229 -2.351853 -4.571188
v -30.861792 -2.350190 -4.572305
v -30.860991 -2.350190 -4.580530
v -30.867712 -2.350190 -4.585335
v -30.875235 -2.350190 -4.581917
v -30.876036 -2.350190 -4.573691
v -30.869314 -2.350190 -4.568887
v -30.860483 -2.512488 -4.580761
v -30.867659 -2.512488 -4.585890
v -30.861338 -2.512488 -4.571981
v -30.869368 -2.512488 -4.568332
v -30.876543 -2.512488 -4.573461
v -30.875689 -2.512488 -4.582241
v -30.864550 -3.548066 -4.563361
v -30.899488 -3.104280 -4.204346
v -31.051603 -3.104280 -2.641272
v -31.093464 -3.548067 -2.211145
v -31.051605 3.268509 -2.641271
v -31.093464 3.660150 -2.211143
v -31.152885 3.668728 -2.207443
v -31.152885 -3.557762 -2.207442
v -31.103216 -3.557762 -2.202609
v -31.103216 3.668728 -2.202608
v -30.922293 -3.557761 -4.576893
v -31.109037 -3.092860 -2.658036
v -30.958895 -3.092860 -4.200797
v -31.109034 3.258445 -2.658035
v -31.060179 3.258445 -2.653280
v -31.060179 -3.092860 -2.653281
v -30.910036 3.258445 -4.196048
v -30.958895 3.258445 -4.200799
v -30.910040 -3.092860 -4.196046
v -30.922295 3.668728 -4.576894
v -30.864550 3.660151 -4.563357
v -30.899485 3.268509 -4.204348
v -30.872625 3.668728 -4.572061
v -30.872625 -3.557761 -4.572062
v -30.867533 0.407122 -4.587246
v -30.867533 0.566590 -4.587246
v -30.859249 0.566590 -4.581325
v -30.859249 0.407122 -4.581325
v -30.869505 0.407122 -4.566976
v -30.869505 0.566590 -4.566976
v -30.877789 0.566590 -4.572900
v -30.877789 0.407122 -4.572900
v -30.876804 0.566590 -4.583034
v -30.876804 0.407122 -4.583034
v -30.860235 0.407122 -4.571192
v -30.860235 0.566590 -4.571192
v -30.861797 0.568263 -4.572308
v -30.860996 0.568263 -4.580531
v -30.867720 0.568263 -4.585335
v -30.875240 0.568263 -4.581917
v -30.876041 0.568263 -4.573694
v -30.869320 0.568263 -4.568887
v -30.860489 0.405945 -4.580761
v -30.867664 0.405945 -4.585890
v -30.861343 0.405945 -4.571981
v -30.869373 0.405945 -4.568332
v -30.876549 0.405945 -4.573461
v -30.875694 0.405945 -4.582241
v -31.095901 0.332001 -2.462526
v -30.981819 0.332001 -2.451424
v -30.980053 0.288000 -2.469564
v -31.094135 0.288000 -2.480666
v -31.100163 0.225791 -2.418733
v -30.986080 0.225791 -2.407631
v -30.990343 0.243999 -2.363838
v -31.104424 0.243999 -2.374940
v -30.992107 0.288000 -2.345698
v -31.106190 0.288000 -2.356800
v -30.990343 0.332001 -2.363838
v -31.104424 0.332001 -2.374940
v -30.986080 0.350239 -2.407631
v -31.100163 0.350239 -2.418733
v -31.095901 0.243999 -2.462526
v -30.981819 0.243999 -2.451424
v -30.976297 0.236412 -2.406679
v -30.972765 0.251524 -2.442984
v -30.971300 0.288000 -2.458022
v -30.972765 0.324476 -2.442984
v -30.976297 0.339587 -2.406679
v -30.979832 0.324476 -2.370373
v -30.981295 0.288000 -2.355335
v -30.979832 0.251524 -2.370373
v -31.071112 3.280460 -2.558391
v -31.071117 -3.225041 -2.558396
v -30.900335 -3.225040 -4.313280
v -30.900333 3.280460 -4.313278
v -30.913788 3.280460 -4.314588
v -30.913794 -3.225040 -4.314590
v -31.084570 -3.225041 -2.559705
v -31.084568 3.280460 -2.559700
vn 0.0075 -1.0000 0.0007
vn -0.0064 1.0000 -0.0006
vn 0.9953 -0.0000 0.0969
vn -0.0036 1.0000 -0.0003
vn 0.0036 -1.0000 0.0004
vn -0.0065 1.0000 -0.0006
vn -0.0045 1.0000 -0.0004
vn -0.9953 -0.0000 -0.0969
vn -0.0969 -0.0000 0.9953
vn -0.9209 0.3794 -0.0896
vn -0.9862 0.1347 -0.0960
vn 0.9903 -0.1000 0.0964
vn -0.9902 0.1011 -0.0964
vn 0.0969 -0.0000 -0.9953
vn 0.9219 0.3768 0.0897
vn -0.0967 0.0543 0.9938
vn 0.9209 0.3794 0.0896
vn 0.0925 0.2960 -0.9507
vn 0.9902 0.1011 0.0964
vn 0.7772 0.4407 0.4492
vn -0.4432 0.8954 -0.0431
vn -0.0000 1.0000 -0.0000
vn -0.2625 0.9646 -0.0255
vn 0.8292 -0.2874 0.4793
vn -0.9854 -0.1407 -0.0959
vn 0.8969 0.2303 -0.3775
vn 0.0967 0.0540 -0.9938
vn 0.9845 -0.1468 0.0958
vn -0.0000 -1.0000 -0.0000
vn 0.8776 -0.3056 -0.3694
vn 0.0605 0.7810 -0.6216
vn -0.0925 0.2974 0.9503
vn 0.0096 -1.0000 0.0009
vn -0.0603 0.7826 0.6196
vn 0.0892 -0.3902 -0.9164
vn -0.0891 -0.3919 0.9157
vn -0.9686 -0.2301 -0.0943
vn 0.8997 -0.4276 0.0876
vn -0.0656 -0.7361 0.6737
vn 0.8997 -0.4275 0.0876
vn 0.0657 -0.7343 -0.6756
vn 0.8658 -0.0000 0.5005
vn 0.9217 -0.0000 -0.3879
vn 0.8292 0.2874 0.4793
vn 0.8292 0.2874 0.4794
vn -0.9854 0.1407 -0.0959
vn 0.9845 0.1468 0.0958
vn 0.8776 0.3056 -0.3694
vn 0.0892 0.3902 -0.9164
vn -0.0891 0.3919 0.9157
vn 0.5717 -0.1834 -0.7997
vn 0.9784 -0.1834 0.0952
vn 0.4068 -0.1834 0.8949
vn -0.5717 -0.1834 0.7997
vn -0.4068 -0.1834 -0.8949
vn -0.9784 -0.1834 -0.0952
vn -0.4067 -0.1834 -0.8950
vn 0.4067 -0.1834 0.8950
vn -0.0968 -0.0000 0.9953
vn 0.7339 -0.6755 0.0714
vn 0.7330 -0.0000 -0.6802
vn 0.6908 0.7199 0.0672
vn 0.6586 -0.0000 0.7525
vn 0.1679 -0.0000 -0.9858
vn 0.7176 -0.6930 0.0698
vn 0.7167 -0.6939 0.0697
vn 0.7587 0.6472 0.0738
vn 0.6182 -0.0000 0.7860
vn 0.6183 -0.0000 0.7860
vn 0.8138 -0.0000 -0.5811
vn 0.5815 -0.0000 -0.8136
vn 0.5814 -0.0000 -0.8136
vn -0.5817 -0.0000 0.8134
vn 0.4139 -0.0000 0.9103
vn -0.4137 -0.0000 -0.9104
vn 0.4124 0.7051 -0.5769
vn 0.4124 0.7050 -0.5769
vn 0.7058 0.7051 0.0687
vn 0.2935 0.7050 0.6456
vn 0.2932 0.7057 0.6450
vn -0.4122 0.7056 0.5764
vn -0.4124 0.7050 0.5770
vn -0.7058 0.7051 -0.0687
vn -0.2934 0.7050 -0.6457
vn -0.2935 0.7051 -0.6455
vn 0.4159 -0.6989 -0.5819
vn 0.4159 -0.6988 -0.5820
vn 0.7120 -0.6988 0.0693
vn 0.7119 -0.6988 0.0693
vn 0.2962 -0.6989 0.6509
vn 0.2961 -0.6978 0.6522
vn -0.4165 -0.6981 0.5824
vn -0.4159 -0.6988 0.5819
vn -0.7120 -0.6988 -0.0693
vn -0.7119 -0.6988 -0.0693
vn -0.2960 -0.6990 -0.6510
vn -0.2958 -0.6987 -0.6514
vn 0.5817 -0.0000 -0.8134
vn -0.4139 -0.0000 -0.9103
vn 0.4087 0.7118 -0.5712
vn 0.4086 0.7117 -0.5714
vn 0.6991 0.7118 0.0680
vn 0.2908 0.7118 0.6393
vn 0.2903 0.7123 0.6390
vn -0.4083 0.7124 0.5707
vn -0.4084 0.7115 0.5718
vn -0.6991 0.7118 -0.0680
vn -0.2908 0.7120 -0.6392
vn -0.2907 0.7115 -0.6398
vn 0.4105 -0.7080 -0.5746
vn 0.4107 -0.7084 -0.5740
vn 0.7026 -0.7083 0.0684
vn 0.7027 -0.7082 0.0684
vn 0.2918 -0.7089 0.6422
vn 0.2921 -0.7083 0.6427
vn -0.4105 -0.7080 0.5746
vn -0.4101 -0.7093 0.5734
vn -0.7026 -0.7083 -0.0684
vn -0.7027 -0.7082 -0.0684
vn -0.2921 -0.7081 -0.6429
vn -0.2923 -0.7083 -0.6425
vn -0.5815 -0.0000 0.8136
vn 0.4137 -0.0000 0.9104
vn 0.4112 0.7070 -0.5754
vn 0.4111 0.7071 -0.5753
vn 0.7038 0.7071 0.0685
vn 0.2925 0.7071 0.6438
vn 0.2925 0.7070 0.6439
vn -0.4112 0.7070 0.5754
vn -0.4112 0.7071 0.5753
vn -0.7038 0.7071 -0.0685
vn -0.2925 0.7070 -0.6439
vn -0.2926 0.7071 -0.6437
vn 0.4112 -0.7070 -0.5754
vn 0.4112 -0.7071 -0.5753
vn 0.7038 -0.7071 0.0685
vn 0.7039 -0.7070 0.0685
vn 0.2925 -0.7070 0.6439
vn 0.2926 -0.7071 0.6438
vn -0.4112 -0.7070 0.5754
vn -0.4112 -0.7071 0.5752
vn -0.7039 -0.7070 -0.0685
vn -0.2925 -0.7070 -0.6439
vn -0.2926 -0.7071 -0.6438
vn 0.0895 0.3827 -0.9195
vn -0.0370 -0.9240 0.3806
vn -0.0895 -0.3827 0.9195
vn -0.0895 0.3827 0.9195
vn -0.0371 0.9238 0.3811
vn 0.0371 0.9238 -0.3811
vn 0.0370 -0.9240 -0.3806
vn 0.7671 -0.2706 -0.5817
vn 0.7300 -0.6534 -0.2006
vn 0.7294 -0.6539 -0.2012
vn 0.6770 -0.6539 0.3378
vn 0.6776 -0.6532 0.3378
vn 0.6405 -0.2706 0.7187
vn 0.6405 0.2706 0.7187
vn 0.6776 0.6532 0.3380
vn 0.6780 0.6529 0.3377
vn 0.7304 0.6529 -0.2008
vn 0.7300 0.6532 -0.2008
vn 0.7671 0.2706 -0.5817
vn 0.0895 -0.3827 -0.9195
vn -0.0000 1.0000 -0.0001
vn 0.4083 0.7124 -0.5707
vn 0.4083 0.7120 -0.5714
vn 0.6984 0.7125 0.0680
vn 0.6984 0.7124 0.0680
vn 0.2907 0.7122 0.6389
vn 0.2903 0.7122 0.6391
vn -0.4084 0.7116 0.5717
vn -0.2908 0.7120 -0.6391
vn -0.2902 0.7121 -0.6393
vn 0.4106 -0.7081 -0.5745
vn 0.7026 -0.7082 0.0684
vn 0.2921 -0.7081 0.6429
vn 0.2923 -0.7085 0.6423
vn -0.4106 -0.7081 0.5745
vn -0.4107 -0.7084 0.5740
vn -0.2923 -0.7084 -0.6424
vn -0.5814 -0.0000 0.8136
vn -0.5815 -0.0000 0.8135
vn -0.0000 1.0000 0.0001
vn 0.4112 0.7071 -0.5753
vn 0.2926 0.7071 0.6438
vn 0.2925 0.7071 0.6437
vn 0.4111 -0.7071 -0.5753
vn 0.4111 -0.7072 -0.5753
vn 0.7037 -0.7072 0.0685
vn 0.2925 -0.7072 0.6437
vn 0.2925 -0.7071 0.6438
vn -0.4111 -0.7071 0.5753
vn -0.4111 -0.7072 0.5752
vn -0.7037 -0.7072 -0.0685
vn -0.2925 -0.7072 -0.6437
vn -0.2924 -0.7071 -0.6438
vn 0.7339 -0.6754 0.0714
vn 0.7331 -0.0000 -0.6802
vn 0.7329 -0.0000 -0.6803
vn 0.6915 0.7193 0.0673
vn 0.6914 0.7193 0.0673
vn 0.0968 -0.0000 -0.9953
vn 0.7586 0.6473 0.0738
vn 0.4123 0.7049 -0.5771
vn 0.4124 0.7052 -0.5767
vn 0.2937 0.7051 0.6455
vn -0.4125 0.7049 0.5770
vn -0.4125 0.7053 0.5766
vn -0.2933 0.7050 -0.6457
vn -0.2934 0.7051 -0.6455
vn 0.4106 -0.7081 -0.5744
vn 0.4106 -0.7082 -0.5744
vn 0.7029 -0.7080 0.0684
vn 0.7028 -0.7081 0.0684
vn 0.2923 -0.7080 0.6428
vn 0.2926 -0.7075 0.6433
vn -0.4112 -0.7074 0.5749
vn -0.4106 -0.7082 0.5744
vn -0.7029 -0.7080 -0.0684
vn -0.2923 -0.7082 -0.6427
vn 0.6776 0.6531 0.3380
vn 0.7304 0.6528 -0.2008
s 0
f 1//1 2//1 3//1
f 3//1 4//1 1//1
f 5//2 6//2 7//2
f 7//2 8//2 5//2
f 3//3 2//3 6//3
f 6//3 5//3 3//3
f 9//4 10//4 11//4
f 11//4 12//4 9//4
f 13//5 14//5 15//5
f 15//5 16//5 13//5
f 11//3 13//3 16//3
f 16//3 12//3 11//3
f 17//6 18//6 19//6
f 19//6 20//6 17//6
f 21//7 22//7 23//7
f 23//7 24//7 21//7
f 24//3 20//3 19//3
f 19//3 23//3 24//3
f 25//8 26//8 27//8
f 27//8 28//8 25//8
f 29//8 26//8 25//8
f 25//8 30//8 29//8
f 31//9 32//9 33//9
f 33//9 34//9 31//9
f 35//3 36//3 37//3
f 37//3 38//3 35//3
f 29//8 39//8 40//8
f 40//8 41//8 29//8
f 42//3 43//3 44//3
f 44//3 45//3 42//3
f 46//8 47//8 48//8
f 48//8 49//8 46//8
f 50//10 34//10 51//10
f 51//10 52//10 50//10
f 53//11 54//11 47//11
f 47//11 46//11 53//11
f 55//12 56//12 36//12
f 36//12 35//12 55//12
f 25//13 28//13 57//13
f 57//13 58//13 25//13
f 59//3 60//3 61//3
f 61//3 62//3 59//3
f 59//3 62//3 63//3
f 63//3 64//3 59//3
f 64//14 27//14 65//14
f 65//14 66//14 64//14
f 60//3 67//3 68//3
f 68//3 69//3 60//3
f 70//3 35//3 38//3
f 38//3 71//3 70//3
f 62//15 61//15 72//15
f 72//15 73//15 62//15
f 74//16 75//16 32//16
f 32//16 31//16 74//16
f 48//10 50//10 52//10
f 52//10 76//10 48//10
f 33//17 71//17 77//17
f 77//17 78//17 33//17
f 28//18 63//18 79//18
f 79//18 57//18 28//18
f 75//12 80//12 70//12
f 70//12 32//12 75//12
f 29//8 30//8 81//8
f 81//8 39//8 29//8
f 61//3 60//3 69//3
f 69//3 82//3 61//3
f 61//19 82//19 83//19
f 83//20 72//20 61//20
f 77//21 84//21 85//21
f 85//22 86//22 76//22
f 76//23 52//23 51//23
f 51//22 78//22 77//22
f 77//22 85//22 76//22
f 77//22 76//22 51//22
f 87//24 88//24 89//24
f 89//24 90//24 87//24
f 91//25 92//25 93//25
f 93//25 94//25 91//25
f 63//15 62//15 73//15
f 73//26 79//26 63//26
f 38//17 37//17 85//17
f 85//17 84//17 38//17
f 30//13 25//13 58//13
f 58//13 95//13 30//13
f 96//11 74//11 31//11
f 31//11 97//11 96//11
f 81//13 30//13 95//13
f 95//13 98//13 81//13
f 56//27 53//27 46//27
f 46//27 36//27 56//27
f 99//25 100//25 101//25
f 101//25 102//25 99//25
f 103//28 87//28 90//28
f 90//28 104//28 103//28
f 94//29 104//29 90//29
f 90//29 101//29 94//29
f 105//30 103//30 104//30
f 104//30 106//30 105//30
f 100//25 91//25 94//25
f 94//25 101//25 100//25
f 90//29 89//29 102//29
f 102//29 101//29 90//29
f 26//8 107//8 65//8
f 65//8 27//8 26//8
f 41//8 107//8 26//8
f 26//8 29//8 41//8
f 32//3 70//3 71//3
f 71//3 33//3 32//3
f 59//9 108//9 43//9
f 43//9 42//9 59//9
f 81//9 82//9 69//9
f 69//9 39//9 81//9
f 59//3 64//3 66//3
f 66//3 108//3 59//3
f 49//10 48//10 76//10
f 76//10 86//10 49//10
f 47//8 97//8 50//8
f 50//8 48//8 47//8
f 71//17 38//17 84//17
f 84//17 77//17 71//17
f 37//31 49//31 86//31
f 86//31 85//31 37//31
f 82//32 81//32 98//32
f 98//32 83//32 82//32
f 67//33 44//33 43//33
f 43//33 108//33 67//33
f 34//34 33//34 78//34
f 78//34 51//34 34//34
f 105//35 106//35 93//35
f 93//35 92//35 105//35
f 97//8 31//8 34//8
f 34//8 50//8 97//8
f 27//14 64//14 63//14
f 63//14 28//14 27//14
f 39//9 69//9 68//9
f 68//9 40//9 39//9
f 54//11 96//11 97//11
f 97//11 47//11 54//11
f 36//14 46//14 49//14
f 49//14 37//14 36//14
f 88//36 99//36 102//36
f 102//36 89//36 88//36
f 93//29 106//29 104//29
f 104//29 94//29 93//29
f 60//22 59//22 42//22
f 42//22 45//22 60//22
f 45//14 44//14 67//14
f 67//14 60//14 45//14
f 80//12 55//12 35//12
f 35//12 70//12 80//12
f 65//37 107//37 54//37
f 54//37 53//37 65//37
f 108//38 66//38 56//38
f 56//38 55//38 108//38
f 40//39 68//39 75//39
f 75//39 74//39 40//39
f 68//40 67//40 80//40
f 80//40 75//40 68//40
f 41//37 40//37 74//37
f 74//37 96//37 41//37
f 66//41 65//41 53//41
f 53//41 56//41 66//41
f 107//37 41//37 96//37
f 96//37 54//37 107//37
f 67//38 108//38 55//38
f 55//38 80//38 67//38
f 72//42 83//42 109//42
f 109//42 110//42 72//42
f 58//8 57//8 111//8
f 111//8 112//8 58//8
f 98//8 95//8 113//8
f 113//8 114//8 98//8
f 73//3 72//3 110//3
f 110//3 115//3 73//3
f 79//43 73//43 115//43
f 115//43 116//43 79//43
f 95//8 58//8 112//8
f 112//8 113//8 95//8
f 79//14 116//14 111//14
f 111//14 57//14 79//14
f 83//9 98//9 114//9
f 114//9 109//9 83//9
f 110//42 109//42 117//42
f 117//42 118//42 110//42
f 112//8 111//8 119//8
f 119//8 120//8 112//8
f 114//8 113//8 121//8
f 121//8 122//8 114//8
f 115//3 110//3 118//3
f 118//3 123//3 115//3
f 116//43 115//43 123//43
f 123//43 124//43 116//43
f 113//8 112//8 120//8
f 120//8 121//8 113//8
f 116//14 124//14 119//14
f 119//14 111//14 116//14
f 109//9 114//9 122//9
f 122//9 117//9 109//9
f 118//44 117//44 88//44
f 88//45 87//45 118//45
f 120//46 119//46 92//46
f 92//46 91//46 120//46
f 122//46 121//46 100//46
f 100//46 99//46 122//46
f 123//47 118//47 87//47
f 87//47 103//47 123//47
f 124//48 123//48 103//48
f 103//48 105//48 124//48
f 121//46 120//46 91//46
f 91//46 100//46 121//46
f 124//49 105//49 92//49
f 92//49 119//49 124//49
f 117//50 122//50 99//50
f 99//50 88//50 117//50
f 125//51 126//51 127//51
f 127//51 128//51 125//51
f 128//52 127//52 129//52
f 129//52 130//52 128//52
f 130//53 129//53 131//53
f 131//53 132//53 130//53
f 132//54 131//54 133//54
f 133//54 134//54 132//54
f 135//55 136//55 126//55
f 126//55 125//55 135//55
f 134//56 133//56 136//56
f 136//56 135//56 134//56
f 135//29 125//29 128//29
f 128//29 130//29 132//29
f 132//29 134//29 135//29
f 128//29 132//29 135//29
f 137//57 138//57 139//57
f 139//55 140//55 137//55
f 141//54 142//54 143//54
f 143//54 144//54 141//54
f 145//58 146//58 142//58
f 142//53 141//53 145//53
f 137//29 140//29 147//29
f 147//29 145//29 141//29
f 141//29 144//29 137//29
f 147//29 141//29 137//29
f 147//52 148//52 146//52
f 146//52 145//52 147//52
f 140//51 139//51 148//51
f 148//51 147//51 140//51
f 144//56 143//56 138//56
f 138//56 137//56 144//56
f 149//51 150//51 151//51
f 151//51 152//51 149//51
f 152//52 151//52 153//52
f 153//52 154//52 152//52
f 154//58 153//58 155//58
f 155//53 156//53 154//53
f 156//54 155//54 157//54
f 157//54 158//54 156//54
f 159//57 160//57 150//57
f 150//55 149//55 159//55
f 158//56 157//56 160//56
f 160//56 159//56 158//56
f 159//29 149//29 152//29
f 152//29 154//29 156//29
f 156//29 158//29 159//29
f 152//29 156//29 159//29
f 161//55 162//55 163//55
f 163//55 164//55 161//55
f 165//54 166//54 167//54
f 167//54 168//54 165//54
f 169//53 170//53 166//53
f 166//53 165//53 169//53
f 161//29 164//29 171//29
f 171//29 169//29 165//29
f 165//29 168//29 161//29
f 171//29 165//29 161//29
f 171//52 172//52 170//52
f 170//52 169//52 171//52
f 164//51 163//51 172//51
f 172//51 171//51 164//51
f 168//56 167//56 162//56
f 162//56 161//56 168//56
f 173//3 174//3 175//3
f 175//3 176//3 173//3
f 176//3 175//3 177//3
f 177//3 178//3 176//3
f 179//59 180//59 181//59
f 181//9 182//9 179//9
f 183//8 180//8 184//8
f 184//8 185//8 183//8
f 184//14 186//14 187//14
f 187//14 188//14 184//14
f 189//59 190//59 185//59
f 185//59 191//59 189//59
f 183//8 185//8 190//8
f 190//8 192//8 183//8
f 192//8 190//8 186//8
f 186//8 179//8 192//8
f 173//3 193//3 194//3
f 194//3 174//3 173//3
f 193//3 178//3 177//3
f 177//3 194//3 193//3
f 191//22 185//22 184//22
f 184//22 188//22 191//22
f 195//22 192//22 179//22
f 179//22 182//22 195//22
f 181//29 180//29 183//29
f 183//29 196//29 181//29
f 180//8 179//8 186//8
f 186//8 184//8 180//8
f 173//60 176//60 181//60
f 181//60 196//60 173//60
f 193//61 173//61 196//61
f 196//61 195//61 193//61
f 195//62 182//62 178//62
f 178//62 193//62 195//62
f 182//63 181//63 176//63
f 176//63 178//63 182//63
f 196//64 183//64 192//64
f 192//64 195//64 196//64
f 194//65 177//65 187//65
f 187//66 189//66 194//66
f 191//67 188//67 175//67
f 175//67 174//67 191//67
f 189//68 191//68 174//68
f 174//69 194//69 189//69
f 188//70 187//70 177//70
f 177//70 175//70 188//70
f 187//29 186//29 190//29
f 190//29 189//29 187//29
f 197//71 198//71 199//71
f 199//72 200//72 197//72
f 201//73 202//73 203//73
f 203//73 204//73 201//73
f 204//8 203//8 205//8
f 205//8 206//8 204//8
f 207//74 208//74 202//74
f 202//74 201//74 207//74
f 209//22 210//22 211//22
f 211//22 212//22 213//22
f 213//22 214//22 209//22
f 211//22 213//22 209//22
f 206//75 205//75 198//75
f 198//75 197//75 206//75
f 199//76 198//76 211//76
f 211//77 210//77 199//77
f 208//78 199//78 210//78
f 210//78 209//78 208//78
f 202//79 208//79 209//79
f 209//80 214//80 202//80
f 203//81 202//81 214//81
f 214//82 213//82 203//82
f 205//83 203//83 213//83
f 213//83 212//83 205//83
f 198//84 205//84 212//84
f 212//85 211//85 198//85
f 200//3 199//3 208//3
f 208//3 207//3 200//3
f 197//86 200//86 215//86
f 215//87 216//87 197//87
f 200//88 207//88 217//88
f 217//89 215//89 200//89
f 207//90 201//90 218//90
f 218//91 217//91 207//91
f 201//92 204//92 219//92
f 219//93 218//93 201//93
f 204//94 206//94 220//94
f 220//95 219//95 204//95
f 206//96 197//96 216//96
f 216//97 220//97 206//97
f 220//29 216//29 215//29
f 215//29 217//29 218//29
f 218//29 219//29 220//29
f 215//29 218//29 220//29
f 221//98 222//98 223//98
f 223//98 224//98 221//98
f 225//73 226//73 227//73
f 227//73 228//73 225//73
f 228//8 227//8 229//8
f 229//8 230//8 228//8
f 231//74 232//74 226//74
f 226//74 225//74 231//74
f 233//22 234//22 235//22
f 235//22 236//22 237//22
f 237//22 238//22 233//22
f 235//22 237//22 233//22
f 230//99 229//99 222//99
f 222//99 221//99 230//99
f 223//100 222//100 235//100
f 235//101 234//101 223//101
f 232//102 223//102 234//102
f 234//102 233//102 232//102
f 226//103 232//103 233//103
f 233//104 238//104 226//104
f 227//105 226//105 238//105
f 238//106 237//106 227//106
f 229//107 227//107 237//107
f 237//107 236//107 229//107
f 222//108 229//108 236//108
f 236//109 235//109 222//109
f 224//3 223//3 232//3
f 232//3 231//3 224//3
f 221//110 224//110 239//110
f 239//111 240//111 221//111
f 224//112 231//112 241//112
f 241//113 239//113 224//113
f 231//114 225//114 242//114
f 242//115 241//115 231//115
f 225//116 228//116 243//116
f 243//117 242//117 225//117
f 228//118 230//118 244//118
f 244//119 243//119 228//119
f 230//120 221//120 240//120
f 240//121 244//121 230//121
f 244//29 240//29 239//29
f 239//29 241//29 242//29
f 242//29 243//29 244//29
f 239//29 242//29 244//29
f 245//71 246//71 247//71
f 247//71 248//71 245//71
f 249//122 250//122 251//122
f 251//122 252//122 249//122
f 252//8 251//8 253//8
f 253//8 254//8 252//8
f 255//123 256//123 250//123
f 250//123 249//123 255//123
f 257//22 258//22 259//22
f 259//22 260//22 261//22
f 261//22 262//22 257//22
f 259//22 261//22 257//22
f 254//75 253//75 246//75
f 246//75 245//75 254//75
f 247//124 246//124 259//124
f 259//125 258//125 247//125
f 256//126 247//126 258//126
f 258//126 257//126 256//126
f 250//127 256//127 257//127
f 257//128 262//128 250//128
f 251//129 250//129 262//129
f 262//130 261//130 251//130
f 253//131 251//131 261//131
f 261//131 260//131 253//131
f 246//132 253//132 260//132
f 260//133 259//133 246//133
f 248//3 247//3 256//3
f 256//3 255//3 248//3
f 245//134 248//134 263//134
f 263//135 264//135 245//135
f 248//136 255//136 265//136
f 265//137 263//137 248//137
f 255//138 249//138 266//138
f 266//139 265//139 255//139
f 249//140 252//140 267//140
f 267//141 266//141 249//141
f 252//142 254//142 268//142
f 268//142 267//142 252//142
f 254//143 245//143 264//143
f 264//144 268//144 254//144
f 268//29 264//29 263//29
f 263//29 265//29 266//29
f 266//29 267//29 268//29
f 263//29 266//29 268//29
f 269//145 270//145 271//145
f 271//145 272//145 269//145
f 273//146 274//146 275//146
f 275//146 276//146 273//146
f 276//147 275//147 277//147
f 277//147 278//147 276//147
f 278//148 277//148 279//148
f 279//148 280//148 278//148
f 280//149 279//149 281//149
f 281//149 282//149 280//149
f 270//150 269//150 282//150
f 282//150 281//150 270//150
f 283//151 284//151 274//151
f 274//151 273//151 283//151
f 285//3 286//3 287//3
f 287//3 288//3 289//3
f 289//3 290//3 291//3
f 291//3 292//3 285//3
f 285//3 287//3 289//3
f 289//3 291//3 285//3
f 284//152 271//152 287//152
f 287//152 286//152 284//152
f 274//153 284//153 286//153
f 286//154 285//154 274//154
f 275//155 274//155 285//155
f 285//156 292//156 275//156
f 277//157 275//157 292//157
f 292//157 291//157 277//157
f 279//158 277//158 291//158
f 291//158 290//158 279//158
f 281//159 279//159 290//159
f 290//160 289//160 281//160
f 270//161 281//161 289//161
f 289//162 288//162 270//162
f 271//163 270//163 288//163
f 288//163 287//163 271//163
f 272//164 271//164 284//164
f 284//164 283//164 272//164
f 293//3 294//3 295//3
f 295//3 296//3 293//3
f 297//8 298//8 299//8
f 299//8 300//8 297//8
f 301//98 302//98 303//98
f 303//98 304//98 301//98
f 305//73 306//73 307//73
f 307//73 308//73 305//73
f 308//8 307//8 309//8
f 309//8 310//8 308//8
f 311//74 312//74 306//74
f 306//74 305//74 311//74
f 313//22 314//22 315//22
f 315//22 316//22 317//22
f 317//165 318//165 313//165
f 315//22 317//22 313//22
f 302//99 301//99 310//99
f 310//99 309//99 302//99
f 303//166 302//166 315//166
f 315//167 314//167 303//167
f 312//168 303//168 314//168
f 314//169 313//169 312//169
f 306//170 312//170 313//170
f 313//171 318//171 306//171
f 307//105 306//105 318//105
f 318//172 317//172 307//172
f 309//107 307//107 317//107
f 317//107 316//107 309//107
f 302//173 309//173 316//173
f 316//174 315//174 302//174
f 304//3 303//3 312//3
f 312//3 311//3 304//3
f 301//175 304//175 319//175
f 319//111 320//111 301//111
f 304//112 311//112 321//112
f 321//176 319//176 304//176
f 311//177 305//177 322//177
f 322//178 321//178 311//178
f 305//179 308//179 323//179
f 323//180 322//180 305//180
f 308//118 310//118 324//118
f 324//119 323//119 308//119
f 310//120 301//120 320//120
f 320//181 324//181 310//181
f 324//29 320//29 319//29
f 319//29 321//29 322//29
f 322//29 323//29 324//29
f 319//29 322//29 324//29
f 325//71 326//71 327//71
f 327//71 328//71 325//71
f 329//182 330//182 331//182
f 331//183 332//183 329//183
f 332//8 331//8 333//8
f 333//8 334//8 332//8
f 335//123 336//123 330//123
f 330//123 329//123 335//123
f 337//22 338//22 339//22
f 339//22 340//22 341//22
f 341//184 342//184 337//184
f 339//22 341//22 337//22
f 334//75 333//75 326//75
f 326//75 325//75 334//75
f 327//185 326//185 339//185
f 339//185 338//185 327//185
f 336//126 327//126 338//126
f 338//126 337//126 336//126
f 330//186 336//186 337//186
f 337//187 342//187 330//187
f 331//130 330//130 342//130
f 342//130 341//130 331//130
f 333//131 331//131 341//131
f 341//131 340//131 333//131
f 326//132 333//132 340//132
f 340//133 339//133 326//133
f 328//3 327//3 336//3
f 336//3 335//3 328//3
f 325//188 328//188 343//188
f 343//189 344//189 325//189
f 328//190 335//190 345//190
f 345//136 343//136 328//136
f 335//191 329//191 346//191
f 346//192 345//192 335//192
f 329//193 332//193 347//193
f 347//194 346//194 329//194
f 332//195 334//195 348//195
f 348//195 347//195 332//195
f 334//196 325//196 344//196
f 344//197 348//197 334//197
f 348//29 344//29 343//29
f 343//29 345//29 346//29
f 346//29 347//29 348//29
f 343//29 346//29 348//29
f 349//3 350//3 351//3
f 351//3 352//3 349//3
f 352//3 351//3 353//3
f 353//3 354//3 352//3
f 355//59 356//59 357//59
f 357//9 358//9 355//9
f 359//8 356//8 360//8
f 360//8 361//8 359//8
f 360//14 362//14 363//14
f 363//14 364//14 360//14
f 365//59 366//59 361//59
f 361//59 367//59 365//59
f 359//8 361//8 366//8
f 366//8 368//8 359//8
f 368//8 366//8 362//8
f 362//8 355//8 368//8
f 349//3 369//3 370//3
f 370//3 350//3 349//3
f 369//3 354//3 353//3
f 353//3 370//3 369//3
f 367//22 361//22 360//22
f 360//22 364//22 367//22
f 371//22 368//22 355//22
f 355//22 358//22 371//22
f 357//29 356//29 359//29
f 359//29 372//29 357//29
f 356//8 355//8 362//8
f 362//8 360//8 356//8
f 349//198 352//198 357//198
f 357//198 372//198 349//198
f 372//199 371//199 369//199
f 369//200 349//200 372//200
f 371//201 358//201 354//201
f 354//202 369//202 371//202
f 358//63 357//63 352//63
f 352//63 354//63 358//63
f 372//203 359//203 368//203
f 368//14 371//14 372//14
f 370//66 353//66 363//66
f 363//66 365//66 370//66
f 367//204 364//204 351//204
f 351//204 350//204 367//204
f 365//69 367//69 350//69
f 350//69 370//69 365//69
f 364//70 363//70 353//70
f 353//70 351//70 364//70
f 363//29 362//29 366//29
f 366//29 365//29 363//29
f 373//71 374//71 375//71
f 375//71 376//71 373//71
f 377//73 378//73 379//73
f 379//73 380//73 377//73
f 380//8 379//8 381//8
f 381//8 382//8 380//8
f 383//74 384//74 378//74
f 378//74 377//74 383//74
f 385//22 386//22 387//22
f 387//22 388//22 389//22
f 389//22 390//22 385//22
f 387//22 389//22 385//22
f 382//75 381//75 374//75
f 374//75 373//75 382//75
f 375//205 374//205 387//205
f 387//206 386//206 375//206
f 384//78 375//78 386//78
f 386//78 385//78 384//78
f 378//79 384//79 385//79
f 385//207 390//207 378//207
f 379//208 378//208 390//208
f 390//209 389//209 379//209
f 381//83 379//83 389//83
f 389//83 388//83 381//83
f 374//210 381//210 388//210
f 388//211 387//211 374//211
f 376//3 375//3 384//3
f 384//3 383//3 376//3
f 373//212 376//212 391//212
f 391//213 392//213 373//213
f 376//214 383//214 393//214
f 393//215 391//215 376//215
f 383//216 377//216 394//216
f 394//217 393//217 383//217
f 377//218 380//218 395//218
f 395//219 394//219 377//219
f 380//220 382//220 396//220
f 396//220 395//220 380//220
f 382//120 373//120 392//120
f 392//221 396//221 382//221
f 396//29 392//29 391//29
f 391//29 393//29 394//29
f 394//29 395//29 396//29
f 391//29 394//29 396//29
f 397//145 398//145 399//145
f 399//145 400//145 397//145
f 401//146 402//146 403//146
f 403//146 404//146 401//146
f 404//147 403//147 405//147
f 405//147 406//147 404//147
f 406//148 405//148 407//148
f 407//148 408//148 406//148
f 408//149 407//149 409//149
f 409//149 410//149 408//149
f 398//150 397//150 410//150
f 410//150 409//150 398//150
f 411//151 412//151 402//151
f 402//151 401//151 411//151
f 413//3 414//3 415//3
f 415//3 416//3 417//3
f 417//3 418//3 419//3
f 419//3 420//3 413//3
f 413//3 415//3 417//3
f 417//3 419//3 413//3
f 412//152 399//152 415//152
f 415//152 414//152 412//152
f 402//153 412//153 414//153
f 414//154 413//154 402//154
f 403//155 402//155 413//155
f 413//156 420//156 403//156
f 405//157 403//157 420//157
f 420//157 419//157 405//157
f 407//158 405//158 419//158
f 419//158 418//158 407//158
f 409//222 407//222 418//222
f 418//160 417//160 409//160
f 398//223 409//223 417//223
f 417//162 416//162 398//162
f 399//163 398//163 416//163
f 416//163 415//163 399//163
f 400//164 399//164 412//164
f 412//164 411//164 400//164
f 421//3 422//3 423//3
f 423//3 424//3 421//3
f 425//8 426//8 427//8
f 427//8 428//8 425//8
