# Blender 5.1.2
# www.blender.org
mtllib spiegel.mtl
o pictureFrame.001
v 10.234504 -0.006609 -1.654624
v 10.458005 -0.024725 -1.441474
v 10.519785 0.167830 -1.489888
v 10.296284 0.185946 -1.703038
v 10.547820 -1.561707 -2.115327
v 10.771321 -1.579823 -1.902177
v 10.708243 -1.510666 -1.930538
v 10.584665 -1.500649 -2.048393
v 10.421160 -0.085783 -1.508408
v 10.297582 -0.075766 -1.626263
v 10.535993 0.158149 -1.507705
v 10.475891 -0.025290 -1.460276
v 10.252389 -0.007174 -1.673426
v 10.312491 0.176265 -1.720855
v 10.725505 -1.502044 -1.947905
v 10.788582 -1.571201 -1.919544
v 10.565081 -1.553084 -2.132694
v 10.601927 -1.492027 -2.065760
v 10.438421 -0.077160 -1.525775
v 10.314842 -0.067144 -1.643629
v 10.007418 -1.507486 -1.127607
v 10.041631 -1.500908 -1.098616
v 10.031479 -1.513629 -1.085228
v 9.993425 -1.523895 -1.117163
v 10.080284 -1.470630 -1.076448
v 10.075613 -1.472160 -1.063138
v 10.066348 -1.464298 -1.060347
v 10.027407 -1.495146 -1.081685
v 9.993484 -1.501159 -1.111509
v 10.282125 -1.396517 -0.933999
v 10.316035 -1.369482 -0.912769
v 10.309298 -1.380570 -0.897067
v 10.273456 -1.413656 -0.919913
v 10.349071 -1.321295 -0.901954
v 10.344389 -1.319549 -0.888690
v 10.335137 -1.314964 -0.885856
v 10.301809 -1.363723 -0.895834
v 10.268194 -1.390186 -0.917899
v 10.557288 -1.146889 -0.807924
v 10.586822 -1.102631 -0.797064
v 10.583450 -1.110400 -0.779924
v 10.554146 -1.162318 -0.790926
v 10.610241 -1.042380 -0.798863
v 10.605273 -1.037186 -0.786271
v 10.596307 -1.036052 -0.782765
v 10.572598 -1.096869 -0.780132
v 10.543357 -1.140558 -0.791823
v 10.799722 -0.788722 -0.764590
v 10.821328 -0.732541 -0.765464
v 10.820876 -0.735704 -0.747932
v 10.801641 -0.800194 -0.745759
v 10.832290 -0.667530 -0.779608
v 10.826792 -0.659128 -0.768236
v 10.818356 -0.661199 -0.763509
v 10.807104 -0.726778 -0.748532
v 10.785786 -0.782391 -0.748489
v 10.980176 -0.365208 -0.809226
v 10.991273 -0.303847 -0.821778
v 10.992934 -0.301677 -0.804945
v 10.986092 -0.370961 -0.789863
v 10.988437 -0.241949 -0.846509
v 10.982235 -0.230976 -0.836757
v 10.974503 -0.235622 -0.830411
v 10.977052 -0.298089 -0.804844
v 10.966245 -0.358877 -0.793125
v 11.076893 0.072564 -0.936448
v 11.076159 0.131737 -0.959212
v 11.078876 0.139326 -0.944090
v 11.085246 0.073610 -0.917917
v 11.059846 0.183021 -0.991500
v 11.052848 0.195626 -0.983576
v 11.045916 0.189352 -0.975399
v 11.061935 0.137499 -0.942280
v 11.062962 0.078895 -0.920347
v 11.078205 0.471796 -1.130907
v 11.065746 0.521683 -1.161192
v 11.068333 0.534121 -1.148580
v 11.087152 0.479897 -1.114475
v 11.037911 0.556131 -1.197090
v 11.030114 0.569228 -1.190975
v 11.023974 0.562462 -1.180989
v 11.051520 0.527442 -1.144258
v 11.064271 0.478127 -1.114809
v 10.983953 0.784336 -1.369153
v 10.961287 0.818950 -1.403355
v 10.962576 0.835086 -1.393756
v 10.991571 0.798892 -1.355832
v 10.925269 0.832376 -1.438482
v 10.916779 0.844767 -1.433946
v 10.911335 0.838704 -1.422384
v 10.947063 0.824712 -1.386423
v 10.970019 0.790667 -1.353055
v 10.805505 0.972484 -1.622453
v 10.775387 0.987684 -1.656493
v 10.774362 1.005919 -1.650044
v 10.810038 0.992125 -1.612871
v 10.735509 0.978432 -1.686564
v 10.726509 0.989009 -1.683181
v 10.721575 0.984764 -1.670461
v 10.761161 0.993446 -1.639559
v 10.791571 0.978815 -1.606350
v 10.564386 1.013549 -1.860244
v 10.530462 1.007536 -1.890074
v 10.526393 1.026019 -1.886528
v 10.564445 1.036285 -1.854595
v 10.491519 0.976689 -1.911409
v 10.482257 0.984554 -1.908616
v 10.477589 0.983020 -1.895308
v 10.516239 1.013299 -1.873137
v 10.550452 1.019876 -1.844146
v 10.289678 0.902576 -2.053858
v 10.256058 0.876113 -2.075922
v 10.248574 0.892960 -2.074690
v 10.284416 0.926046 -2.051843
v 10.222731 0.827357 -2.085900
v 10.213478 0.831939 -2.083066
v 10.208799 0.833685 -2.069799
v 10.241838 0.881875 -2.058987
v 10.275744 0.908907 -2.037754
v 10.014513 0.652948 -2.179930
v 9.985274 0.609262 -2.191624
v 9.974420 0.622790 -2.191830
v 10.003724 0.674708 -2.180828
v 9.961560 0.548443 -2.188991
v 9.952599 0.549576 -2.185485
v 9.947630 0.554774 -2.172890
v 9.971048 0.615021 -2.174689
v 10.000579 0.659279 -2.163832
v 9.772084 0.294781 -2.223264
v 9.750763 0.239172 -2.223224
v 9.736996 0.248094 -2.223824
v 9.756229 0.312585 -2.225994
v 9.739511 0.173589 -2.208247
v 9.731075 0.171519 -2.203520
v 9.725580 0.179920 -2.192146
v 9.736542 0.244931 -2.206290
v 9.758150 0.301112 -2.207166
v 9.591625 -0.128729 -2.178629
v 9.580818 -0.189521 -2.166910
v 9.564933 -0.185929 -2.166811
v 9.571778 -0.116649 -2.181891
v 9.583364 -0.251988 -2.141345
v 9.575635 -0.256631 -2.134997
v 9.569433 -0.245657 -2.125244
v 9.566594 -0.183759 -2.149978
v 9.577694 -0.122398 -2.162528
v 9.494911 -0.566505 -2.051409
v 9.495934 -0.625109 -2.029478
v 9.478995 -0.626936 -2.027666
v 9.472621 -0.561220 -2.053839
v 9.511954 -0.676962 -1.996354
v 9.505025 -0.683236 -1.988181
v 9.498021 -0.670631 -1.980256
v 9.481711 -0.619347 -2.012541
v 9.480977 -0.560174 -2.035311
v 9.493599 -0.965737 -1.856950
v 9.506347 -1.015052 -1.827498
v 9.489538 -1.021728 -1.823173
v 9.470719 -0.967507 -1.857281
v 9.533895 -1.050072 -1.790765
v 9.527756 -1.056839 -1.780779
v 9.519961 -1.043741 -1.774667
v 9.492126 -1.009290 -1.810564
v 9.479665 -0.959406 -1.840846
v 9.587853 -1.278274 -1.618701
v 9.610806 -1.312319 -1.585336
v 9.595296 -1.322696 -1.578000
v 9.566298 -1.286502 -1.615927
v 9.646535 -1.326314 -1.549375
v 9.641088 -1.332376 -1.537810
v 9.632604 -1.319983 -1.533274
v 9.596581 -1.306560 -1.568401
v 9.573917 -1.271942 -1.602600
v 9.766298 -1.466425 -1.365404
v 9.796707 -1.481056 -1.332197
v 9.783508 -1.493529 -1.321715
v 9.747831 -1.479734 -1.358887
v 9.836294 -1.472373 -1.301293
v 9.831358 -1.476615 -1.288575
v 9.822361 -1.466042 -1.285194
v 9.782486 -1.475294 -1.315263
v 9.752365 -1.460094 -1.349305
v 10.176265 -1.252416 -1.056522
v 10.062331 -1.292127 -1.141025
v 10.032392 -1.380509 -1.098469
v 10.156491 -1.349339 -1.001961
v 9.954591 -1.300041 -1.235554
v 9.912351 -1.401929 -1.199091
v 10.408978 -1.082411 -0.927807
v 10.293002 -1.181644 -0.984794
v 10.283722 -1.260134 -0.928247
v 10.412733 -1.161980 -0.860264
v 10.624666 -0.810534 -0.864928
v 10.520633 -0.957323 -0.887528
v 10.531741 -1.015720 -0.822273
v 10.650163 -0.862446 -0.791092
v 10.797306 -0.469572 -0.875478
v 10.717768 -0.646210 -0.860965
v 10.746531 -0.676747 -0.793329
v 10.840146 -0.486866 -0.802783
v 10.906080 -0.100657 -0.958179
v 10.860630 -0.285841 -0.908304
v 10.902186 -0.284104 -0.844910
v 10.959767 -0.080545 -0.893932
v 10.937866 0.251722 -1.103060
v 10.931987 0.080328 -1.023836
v 10.979934 0.114859 -0.970786
v 10.994598 0.307515 -1.053544
v 10.888833 0.545057 -1.292641
v 10.923233 0.408126 -1.193626
v 10.970394 0.472011 -1.155782
v 10.940441 0.630505 -1.262366
v 10.764893 0.743970 -1.504058
v 10.835422 0.658019 -1.397197
v 10.874720 0.744284 -1.377584
v 10.803823 0.849466 -1.495214
v 10.580997 0.824469 -1.711812
v 10.679147 0.799863 -1.609991
v 10.704453 0.898832 -1.609434
v 10.601225 0.937992 -1.723998
v 10.359323 0.776845 -1.890844
v 10.473259 0.816551 -1.806344
v 10.480121 0.917015 -1.823376
v 10.357079 0.885403 -1.921129
v 10.126609 0.606840 -2.019564
v 10.242585 0.706072 -1.962577
v 10.228793 0.796640 -1.993595
v 10.100842 0.698043 -2.062825
v 9.910924 0.334963 -2.082440
v 10.014955 0.481748 -2.059838
v 9.980774 0.552226 -2.099569
v 9.863410 0.398509 -2.132000
v 9.738283 -0.006000 -2.071891
v 9.817820 0.170638 -2.086401
v 9.765985 0.213257 -2.128512
v 9.673427 0.022933 -2.120309
v 9.629510 -0.374915 -1.989190
v 9.674958 -0.189735 -2.039062
v 9.610331 -0.179391 -2.076935
v 9.553805 -0.383392 -2.029160
v 9.597721 -0.727294 -1.844311
v 9.603601 -0.555899 -1.923530
v 9.532582 -0.578349 -1.951056
v 9.518974 -0.771451 -1.869548
v 9.646754 -1.020628 -1.654730
v 9.612354 -0.883701 -1.753740
v 9.542121 -0.935505 -1.766060
v 9.573132 -1.094442 -1.660726
v 9.770692 -1.219542 -1.443311
v 9.700166 -1.133591 -1.550174
v 9.637793 -1.207778 -1.544260
v 9.709749 -1.313403 -1.427878
v 9.856441 -1.275434 -1.337380
v 9.808063 -1.362326 -1.312408
v 10.060548 -1.252566 -1.142642
v 9.956378 -1.260220 -1.234044
v 10.170710 -1.214173 -1.060939
v 10.166322 -1.181629 -1.065128
v 10.059393 -1.218897 -1.144433
v 9.958278 -1.226324 -1.233154
v 10.283581 -1.145746 -0.991586
v 10.395715 -1.049798 -0.936486
v 10.384728 -1.022074 -0.944324
v 10.275885 -1.115206 -0.997809
v 10.503672 -0.928851 -0.897543
v 10.604255 -0.786924 -0.875693
v 10.587155 -0.766911 -0.885312
v 10.489522 -0.904674 -0.906525
v 10.694278 -0.628044 -0.871859
v 10.771179 -0.457258 -0.885890
v 10.749182 -0.446912 -0.895216
v 10.674534 -0.612690 -0.881594
v 10.832407 -0.279607 -0.917629
v 10.876352 -0.100559 -0.965854
v 10.851268 -0.100677 -0.972832
v 10.808615 -0.274475 -0.926023
v 10.901402 0.074430 -1.029336
v 10.907084 0.240147 -1.105936
v 10.881103 0.230037 -1.108801
v 10.875583 0.069180 -1.034452
v 10.892935 0.391373 -1.193501
v 10.859676 0.523766 -1.289237
v 10.835083 0.505338 -1.286729
v 10.867368 0.376827 -1.193803
v 10.808034 0.632989 -1.390329
v 10.739842 0.716093 -1.493652
v 10.718762 0.692025 -1.485150
v 10.784956 0.611356 -1.384858
v 10.656936 0.770135 -1.596077
v 10.562035 0.793925 -1.694525
v 10.546173 0.767572 -1.680133
v 10.638288 0.744482 -1.584568
v 10.457866 0.786271 -1.785928
v 10.347703 0.747878 -1.867630
v 10.338124 0.722878 -1.848159
v 10.445055 0.760145 -1.768853
v 10.234833 0.679451 -1.936983
v 10.122698 0.583503 -1.992084
v 10.119720 0.563323 -1.968962
v 10.228566 0.656454 -1.915479
v 10.014740 0.462556 -2.031024
v 9.914156 0.320630 -2.052878
v 9.917294 0.308159 -2.027973
v 10.014929 0.445922 -2.006763
v 9.824136 0.161749 -2.056710
v 9.747234 -0.009037 -2.042679
v 9.755266 -0.011839 -2.018074
v 9.829912 0.153942 -2.031693
v 9.686005 -0.186684 -2.010937
v 9.642061 -0.365736 -1.962715
v 9.653180 -0.358075 -1.940458
v 9.695836 -0.184277 -1.987265
v 9.617012 -0.540725 -1.899233
v 9.611326 -0.706441 -1.822636
v 9.623345 -0.688788 -1.804484
v 9.628863 -0.527932 -1.878835
v 9.625476 -0.857668 -1.735066
v 9.658736 -0.990061 -1.639332
v 9.669363 -0.964089 -1.626558
v 9.637083 -0.835579 -1.719485
v 9.710380 -1.099280 -1.538240
v 9.778571 -1.182384 -1.434917
v 9.785684 -1.150776 -1.428138
v 9.719495 -1.070107 -1.528430
v 9.861478 -1.236430 -1.332492
v 9.866159 -1.203234 -1.328717
v 10.074967 -1.196159 -1.164364
v 9.976732 -1.203377 -1.250554
v 10.178853 -1.159951 -1.087316
v 10.192169 -1.079833 -1.127900
v 10.097634 -1.112781 -1.198015
v 10.008239 -1.119349 -1.276450
v 10.285291 -1.095422 -1.021914
v 10.391038 -1.004943 -0.969953
v 10.385259 -0.938775 -1.021100
v 10.289030 -1.021114 -1.068382
v 10.492845 -0.890887 -0.933231
v 10.587699 -0.757048 -0.912622
v 10.564221 -0.713188 -0.968929
v 10.477905 -0.834983 -0.987681
v 10.672591 -0.607220 -0.909009
v 10.745111 -0.446165 -0.922240
v 10.707468 -0.430281 -0.977680
v 10.641474 -0.576845 -0.965641
v 10.802849 -0.278638 -0.952170
v 10.844291 -0.109787 -0.997647
v 10.797723 -0.124179 -1.046301
v 10.760012 -0.277831 -1.004917
v 10.867912 0.055231 -1.057511
v 10.873274 0.211505 -1.129745
v 10.824097 0.168201 -1.166512
v 10.819218 0.025992 -1.100779
v 10.859928 0.354115 -1.212325
v 10.828565 0.478966 -1.302606
v 10.783411 0.411592 -1.323816
v 10.811956 0.297976 -1.241661
v 10.779864 0.581964 -1.397939
v 10.715557 0.660332 -1.495374
v 10.680575 0.576640 -1.499237
v 10.739096 0.505323 -1.410569
v 10.637374 0.711294 -1.591963
v 10.547884 0.733729 -1.684804
v 10.527989 0.643430 -1.671618
v 10.609428 0.623014 -1.587134
v 10.449646 0.726511 -1.770997
v 10.345763 0.690306 -1.848042
v 10.344060 0.603916 -1.820168
v 10.438594 0.636862 -1.750057
v 10.239323 0.625778 -1.913447
v 10.133575 0.535299 -1.965407
v 10.150967 0.462856 -1.926970
v 10.247198 0.545194 -1.879685
v 10.031772 0.421242 -2.002127
v 9.936916 0.287403 -2.022736
v 9.972007 0.237269 -1.979139
v 10.058325 0.359063 -1.960389
v 9.852024 0.137576 -2.026349
v 9.779506 -0.023480 -2.013118
v 9.828760 -0.045635 -1.970387
v 9.894752 0.100925 -1.982429
v 9.721766 -0.191006 -1.983185
v 9.680325 -0.359857 -1.937711
v 9.738505 -0.351740 -1.901767
v 9.776216 -0.198088 -1.943150
v 9.656704 -0.524876 -1.877847
v 9.651342 -0.681150 -1.805613
v 9.712129 -0.644121 -1.781557
v 9.717009 -0.501911 -1.847291
v 9.664685 -0.823759 -1.723035
v 9.696049 -0.948610 -1.632754
v 9.752814 -0.887512 -1.624253
v 9.724275 -0.773896 -1.706409
v 9.744749 -1.051608 -1.537421
v 9.809056 -1.129977 -1.439987
v 9.855650 -1.052556 -1.448833
v 9.797132 -0.981239 -1.537498
v 9.887239 -1.180942 -1.343397
v 9.926800 -1.098934 -1.360938
v 10.190670 -1.034226 -1.139603
v 10.100931 -1.065502 -1.206162
v 10.016073 -1.071735 -1.280617
v 10.373964 -0.900324 -1.038222
v 10.282615 -0.978484 -1.083106
v 10.543844 -0.686184 -0.988700
v 10.461906 -0.801798 -1.006501
v 10.679824 -0.417633 -0.997008
v 10.617178 -0.556759 -0.985576
v 10.765496 -0.127058 -1.062144
v 10.729699 -0.272916 -1.022863
v 10.790532 0.150486 -1.176258
v 10.785904 0.015491 -1.113859
v 10.751913 0.381526 -1.325577
v 10.779005 0.273675 -1.247592
v 10.654295 0.538198 -1.492099
v 10.709846 0.470500 -1.407932
v 10.509450 0.601603 -1.655733
v 10.586756 0.582222 -1.575535
v 10.334853 0.564091 -1.796747
v 10.424591 0.595366 -1.730189
v 10.151558 0.430188 -1.898128
v 10.242908 0.508348 -1.853244
v 9.981676 0.216049 -1.947653
v 10.063614 0.331663 -1.929851
v 9.845701 -0.052503 -1.939345
v 9.908345 0.086623 -1.950774
v 9.760027 -0.343074 -1.874206
v 9.795823 -0.197220 -1.913487
v 9.734987 -0.620621 -1.760095
v 9.739619 -0.485627 -1.822492
v 9.773609 -0.851661 -1.610773
v 9.746515 -0.743811 -1.688761
v 9.871227 -1.008333 -1.444251
v 9.815680 -0.940636 -1.528421
v 9.938765 -1.052357 -1.360818
v 10.113373 -1.055867 -1.221289
v 10.030025 -1.061991 -1.294419
v 10.201511 -1.025147 -1.155919
v 10.218523 -1.034340 -1.174538
v 10.130384 -1.065056 -1.239908
v 10.047037 -1.071180 -1.313039
v 10.291821 -0.970400 -1.100429
v 10.381538 -0.893635 -1.056342
v 10.398551 -0.902823 -1.074961
v 10.308830 -0.979589 -1.119046
v 10.467914 -0.796862 -1.025186
v 10.548391 -0.683310 -1.007701
v 10.565403 -0.692499 -1.026321
v 10.484925 -0.806054 -1.043805
v 10.620419 -0.556190 -1.004637
v 10.681948 -0.419543 -1.015862
v 10.698960 -0.428731 -1.034482
v 10.637430 -0.565379 -1.023257
v 10.730937 -0.277405 -1.041255
v 10.766097 -0.134146 -1.079841
v 10.783109 -0.143334 -1.098460
v 10.747949 -0.286593 -1.059874
v 10.786138 0.005865 -1.130634
v 10.790686 0.138454 -1.191919
v 10.807697 0.129262 -1.210538
v 10.803149 -0.003328 -1.149253
v 10.779364 0.259450 -1.261983
v 10.752754 0.365378 -1.338578
v 10.769767 0.356189 -1.357197
v 10.796375 0.250258 -1.280602
v 10.711436 0.452765 -1.419463
v 10.656876 0.519258 -1.502134
v 10.673887 0.510066 -1.520753
v 10.728448 0.443576 -1.438082
v 10.590542 0.562495 -1.584082
v 10.514612 0.581530 -1.662852
v 10.531624 0.572341 -1.681471
v 10.607553 0.553307 -1.602701
v 10.431265 0.575406 -1.735982
v 10.343126 0.544689 -1.801353
v 10.360138 0.535497 -1.819972
v 10.448277 0.566217 -1.754601
v 10.252816 0.489939 -1.856842
v 10.163096 0.413173 -1.900927
v 10.180108 0.403985 -1.919546
v 10.269829 0.480750 -1.875461
v 10.076719 0.316404 -1.932085
v 9.996242 0.202849 -1.949570
v 10.013253 0.193656 -1.968189
v 10.093731 0.307212 -1.950704
v 9.924216 0.075729 -1.952636
v 9.862690 -0.060919 -1.941409
v 9.879702 -0.070107 -1.960028
v 9.941229 0.066540 -1.971255
v 9.813698 -0.203057 -1.916013
v 9.778541 -0.346312 -1.877430
v 9.795552 -0.355504 -1.896049
v 9.830710 -0.212245 -1.934633
v 9.758497 -0.486322 -1.826640
v 9.753949 -0.618912 -1.765355
v 9.770959 -0.628104 -1.783971
v 9.775509 -0.495515 -1.845259
v 9.765269 -0.739908 -1.695288
v 9.791881 -0.845839 -1.618690
v 9.808892 -0.855028 -1.637310
v 9.782281 -0.749100 -1.713907
v 9.833201 -0.933226 -1.537808
v 9.887762 -0.999716 -1.455137
v 9.904774 -1.008908 -1.473756
v 9.850214 -0.942415 -1.556427
v 9.954096 -1.042957 -1.373189
v 9.971107 -1.052146 -1.391808
v 9.967386 -1.412861 -1.258560
v 10.084391 -1.404264 -1.155900
v 10.060766 -1.459707 -1.124206
v 9.995165 -1.480984 -1.165205
v 10.208125 -1.361142 -1.064129
v 10.117805 -1.434191 -1.073565
v 10.177383 -1.386250 -1.015628
v 10.125401 -1.420029 -1.043824
v 10.092113 -1.421466 -1.044631
v 10.026515 -1.442742 -1.085627
v 9.969476 -1.468259 -1.136268
v 9.927722 -1.440297 -1.217118
v 9.961881 -1.482421 -1.166010
v 10.334903 -1.284284 -0.986231
v 10.324929 -1.333188 -0.945291
v 10.260878 -1.387416 -0.971128
v 10.460852 -1.176515 -0.924342
v 10.380416 -1.274715 -0.909814
v 10.439296 -1.194405 -0.870857
v 10.387495 -1.249569 -0.885128
v 10.354729 -1.261991 -0.880880
v 10.290678 -1.316223 -0.906712
v 10.235188 -1.374691 -0.942191
v 10.228109 -1.399837 -0.966878
v 10.582109 -1.040667 -0.880604
v 10.585609 -1.076292 -0.833907
v 10.530317 -1.156680 -0.840880
v 10.695086 -0.881253 -0.856059
v 10.632340 -0.991665 -0.817292
v 10.681869 -0.887902 -0.800266
v 10.636501 -0.957802 -0.798890
v 10.606651 -0.978940 -0.788355
v 10.551359 -1.059327 -0.795328
v 10.504631 -1.143955 -0.811946
v 10.500472 -1.177822 -0.830345
v 10.796201 -0.702801 -0.851755
v 10.811368 -0.720013 -0.803490
v 10.770988 -0.816604 -0.790179
v 10.882577 -0.510969 -0.867517
v 10.843187 -0.619179 -0.807153
v 10.875838 -0.503712 -0.812370
v 10.842374 -0.579914 -0.795514
v 10.817498 -0.606457 -0.778216
v 10.777118 -0.703048 -0.764905
v 10.745298 -0.803879 -0.761242
v 10.746112 -0.843148 -0.772880
v 10.951348 -0.311436 -0.903165
v 10.974973 -0.307318 -0.857700
v 10.953856 -0.408206 -0.825129
v 11.000704 -0.110325 -0.957329
v 10.987524 -0.202185 -0.880626
v 10.997813 -0.088178 -0.905710
v 10.980291 -0.161487 -0.875404
v 10.961835 -0.189460 -0.851689
v 10.940722 -0.290353 -0.819120
v 10.928169 -0.395486 -0.796195
v 10.935400 -0.436184 -0.801413
v 11.028841 0.086224 -1.028632
v 11.056687 0.112016 -0.990006
v 11.056871 0.019251 -0.941524
v 11.035225 0.272358 -1.114668
v 11.047945 0.209021 -1.028843
v 11.033084 0.308591 -1.069027
v 11.033614 0.247012 -1.028927
v 11.022256 0.221745 -0.999906
v 11.022439 0.128981 -0.951424
v 11.031182 0.031972 -0.912587
v 11.045513 -0.006015 -0.912504
v 11.019334 0.442214 -1.213027
v 11.046662 0.487406 -1.184447
v 11.067602 0.414212 -1.125319
v 10.981975 0.590919 -1.320554
v 11.017161 0.564845 -1.233933
v 10.977389 0.638731 -1.282623
v 10.995911 0.596311 -1.237565
v 10.991472 0.577566 -1.204996
v 11.012412 0.504372 -1.145868
v 11.041916 0.426937 -1.096385
v 11.063164 0.395470 -1.092750
v 10.923972 0.713598 -1.434102
v 10.946104 0.773582 -1.417572
v 10.984761 0.729042 -1.354349
v 10.847379 0.806941 -1.550156
v 10.898886 0.822363 -1.471154
v 10.837452 0.862424 -1.520730
v 10.871731 0.844279 -1.476153
v 10.873199 0.835088 -1.442220
v 10.911853 0.790548 -1.378993
v 10.959068 0.741764 -1.325414
v 10.986226 0.719851 -1.320412
v 10.754258 0.867640 -1.665198
v 10.767140 0.936021 -1.661266
v 10.818331 0.925764 -1.600987
v 10.647666 0.894362 -1.775778
v 10.707384 0.950518 -1.711897
v 10.630151 0.952686 -1.754639
v 10.676050 0.961007 -1.715916
v 10.681697 0.963243 -1.682962
v 10.732887 0.952986 -1.622684
v 10.792645 0.938488 -1.572052
v 10.823978 0.927999 -1.568034
v 10.530659 0.885765 -1.878441
v 10.531357 0.955132 -1.886129
v 10.588394 0.980649 -1.835486
v 10.406927 0.842642 -1.970209
v 10.465754 0.933856 -1.927125
v 10.380484 0.898640 -1.956128
v 10.432469 0.932419 -1.927930
v 10.440066 0.946581 -1.898191
v 10.497104 0.972098 -1.847547
v 10.562705 0.993374 -1.806554
v 10.595992 0.994811 -1.805747
v 10.280149 0.765784 -2.048107
v 10.267192 0.828613 -2.065042
v 10.322681 0.887082 -2.029562
v 10.154196 0.658020 -2.109996
v 10.203140 0.774381 -2.090874
v 10.118574 0.706795 -2.100897
v 10.170374 0.761959 -2.086626
v 10.177451 0.787105 -2.061942
v 10.232941 0.845578 -2.026462
v 10.296992 0.899806 -2.000630
v 10.329759 0.912228 -2.004879
v 10.032940 0.522167 -2.153737
v 10.006511 0.571717 -2.176426
v 10.053239 0.656345 -2.159808
v 9.919962 0.362758 -2.178279
v 9.951219 0.491330 -2.183399
v 9.876001 0.400293 -2.171488
v 9.921371 0.470192 -2.172866
v 9.925529 0.504055 -2.154467
v 9.972260 0.588682 -2.137846
v 10.027552 0.669070 -2.130873
v 10.057398 0.690212 -2.141409
v 9.818851 0.184301 -2.182583
v 9.780752 0.215438 -2.206848
v 9.812572 0.316273 -2.210512
v 9.732473 -0.007527 -2.166824
v 9.740372 0.118847 -2.193537
v 9.682033 0.016106 -2.159384
v 9.715494 0.092305 -2.176242
v 9.714684 0.131569 -2.164603
v 9.746502 0.232404 -2.168269
v 9.786882 0.328994 -2.181580
v 9.811760 0.355538 -2.198876
v 9.663704 -0.207064 -2.131174
v 9.617150 -0.197258 -2.152636
v 9.629703 -0.092125 -2.175561
v 9.614346 -0.408171 -2.077012
v 9.596032 -0.298146 -2.120068
v 9.560057 -0.399432 -2.066044
v 9.577579 -0.326123 -2.096349
v 9.570345 -0.285425 -2.091133
v 9.582900 -0.180293 -2.114056
v 9.604013 -0.079400 -2.146625
v 9.622467 -0.051426 -2.170343
v 9.586211 -0.604723 -2.005706
v 9.535433 -0.616591 -2.020332
v 9.526688 -0.519582 -2.059166
v 9.579824 -0.790854 -1.919673
v 9.535614 -0.709355 -1.971847
v 9.524788 -0.796197 -1.902729
v 9.524256 -0.734622 -1.942827
v 9.509925 -0.696631 -1.942915
v 9.501180 -0.599625 -1.981750
v 9.501001 -0.506858 -2.030232
v 9.512355 -0.481591 -2.059252
v 9.595716 -0.960713 -1.821314
v 9.545458 -0.991982 -1.825886
v 9.515957 -0.914543 -1.875371
v 9.633072 -1.109419 -1.713784
v 9.566395 -1.065176 -1.766760
v 9.580481 -1.126337 -1.689136
v 9.561959 -1.083921 -1.734189
v 9.540709 -1.052451 -1.737826
v 9.511208 -0.975016 -1.787306
v 9.490267 -0.901822 -1.846434
v 9.494703 -0.883077 -1.879006
v 9.691080 -1.232098 -1.600236
v 9.646017 -1.278154 -1.592760
v 9.598799 -1.229373 -1.646342
v 9.767673 -1.325440 -1.484182
v 9.684673 -1.322698 -1.529536
v 9.720418 -1.350030 -1.451024
v 9.686141 -1.331890 -1.495603
v 9.658981 -1.309973 -1.500602
v 9.611766 -1.261189 -1.554181
v 9.573112 -1.216649 -1.617408
v 9.571644 -1.207457 -1.651341
v 9.860794 -1.386140 -1.369140
v 9.824983 -1.440596 -1.349070
v 9.765228 -1.426094 -1.399704
v 9.876175 -1.450853 -1.288794
v 9.881823 -1.448617 -1.255841
v 9.850486 -1.438128 -1.259857
v 9.790731 -1.423631 -1.310491
v 9.739539 -1.413373 -1.370767
v 9.733891 -1.415609 -1.403720
v 10.189751 -1.353291 -1.043401
v 10.065796 -1.396492 -1.135334
v 9.948580 -1.405104 -1.238180
v 10.442934 -1.168334 -0.903363
v 10.316755 -1.276294 -0.965362
v 10.677588 -0.872543 -0.834958
v 10.564408 -1.032239 -0.859546
v 10.865416 -0.501594 -0.846434
v 10.778881 -0.693769 -0.830643
v 10.983756 -0.100228 -0.936408
v 10.934308 -0.301699 -0.882146
v 11.018338 0.283142 -1.094031
v 11.011941 0.096673 -1.007840
v 10.964993 0.602278 -1.300286
v 11.002417 0.453304 -1.192565
v 10.830153 0.818683 -1.530301
v 10.906882 0.725176 -1.414037
v 10.630079 0.906262 -1.756327
v 10.736865 0.879493 -1.645550
v 10.388910 0.854449 -1.951109
v 10.512865 0.897650 -1.859175
v 10.135727 0.669495 -2.091146
v 10.261904 0.777456 -2.029144
v 9.901073 0.373704 -2.159551
v 10.014254 0.533401 -2.134963
v 9.713246 0.002755 -2.148076
v 9.799778 0.194927 -2.163863
v 9.594906 -0.398611 -2.058101
v 9.644351 -0.197140 -2.112360
v 9.560321 -0.781981 -1.900481
v 9.566720 -0.595512 -1.986669
v 9.613667 -1.101117 -1.694223
v 9.576242 -0.952142 -1.801947
v 9.748508 -1.317526 -1.464208
v 9.671777 -1.224015 -1.580470
v 9.841797 -1.378335 -1.348960
v 10.830151 0.818684 -1.530299
v 10.388908 0.854449 -1.951106
v 9.576245 -0.952142 -1.801944
v 10.983500 0.547245 -1.243839
v 10.069852 0.621302 -2.115172
v 9.580229 -1.039293 -1.742910
v 10.493876 -1.113350 -0.871576
v 10.972570 0.553150 -1.231877
v 10.058923 0.627207 -2.103210
v 9.569299 -1.033391 -1.730948
v 10.482946 -1.107448 -0.859615
vn -0.9911 0.0540 0.1214
vn -0.0729 -0.0204 0.9971
vn 0.2282 0.7161 0.6596
vn -0.6060 0.7837 -0.1359
vn -0.6915 -0.7015 -0.1725
vn 0.1427 -0.7691 0.6230
vn -0.8765 0.0011 0.4815
vn -0.4408 -0.0342 0.8969
vn -0.7621 -0.5666 0.3133
vn -0.3264 -0.6019 0.7288
vn 0.9498 0.2825 -0.1345
vn 0.9916 -0.0584 0.1154
vn -0.1633 0.0352 -0.9860
vn 0.1162 0.3501 -0.9295
vn 0.3265 0.6020 -0.7287
vn 0.9106 -0.3853 -0.1495
vn 0.0763 -0.3177 -0.9451
vn 0.7621 0.5666 -0.3133
vn 0.4490 0.0461 -0.8923
vn 0.8725 0.0117 -0.4885
vn 0.4455 -0.7399 -0.5041
vn 0.5348 -0.7795 -0.3261
vn 0.0454 -0.8967 0.4404
vn -0.3449 -0.9345 0.0879
vn 0.5543 -0.8323 -0.0049
vn 0.2608 -0.7594 0.5960
vn -0.2704 -0.3893 0.8805
vn -0.5304 -0.2514 0.8096
vn -0.6978 -0.1995 0.6880
vn 0.6149 -0.6648 -0.4242
vn 0.7157 -0.6667 -0.2082
vn 0.3299 -0.7100 0.6222
vn -0.0317 -0.9533 0.3004
vn 0.7396 -0.6427 0.1997
vn 0.4761 -0.4949 0.7269
vn -0.0899 -0.2209 0.9711
vn -0.3877 -0.1777 0.9045
vn -0.5655 -0.2273 0.7928
vn 0.7465 -0.5325 -0.3990
vn 0.8648 -0.4789 -0.1509
vn 0.5692 -0.4067 0.7146
vn 0.2845 -0.8344 0.4720
vn 0.8817 -0.3470 0.3197
vn 0.6345 -0.1675 0.7546
vn 0.0668 -0.0055 0.9978
vn -0.2521 -0.0475 0.9665
vn -0.4143 -0.1725 0.8937
vn 0.8203 -0.3927 -0.4158
vn 0.9506 -0.2624 -0.1662
vn 0.7144 -0.0545 0.6976
vn 0.5472 -0.6092 0.5740
vn 0.9513 -0.0161 0.3078
vn 0.7067 0.1723 0.6863
vn 0.1575 0.2394 0.9581
vn -0.1483 0.1245 0.9811
vn -0.2763 -0.0435 0.9601
vn 0.8496 -0.2749 -0.4501
vn 0.9686 -0.0658 -0.2398
vn 0.7578 0.2758 0.5913
vn 0.7294 -0.3273 0.6007
vn 0.9473 0.2714 0.1699
vn 0.6822 0.4847 0.5475
vn 0.1546 0.4741 0.8668
vn -0.0924 0.3110 0.9459
vn -0.1750 0.1292 0.9761
vn 0.8562 -0.1782 -0.4850
vn 0.9344 0.0853 -0.3459
vn 0.7177 0.5489 0.4285
vn 0.8276 -0.0246 0.5608
vn 0.8812 0.4699 -0.0510
vn 0.5737 0.7381 0.3551
vn 0.0739 0.6641 0.7440
vn -0.0883 0.4873 0.8687
vn -0.1207 0.3150 0.9414
vn 0.8518 -0.0877 -0.5165
vn 0.8658 0.1882 -0.4637
vn 0.6115 0.7564 0.2323
vn 0.8417 0.2771 0.4634
vn 0.7664 0.5670 -0.3019
vn 0.4077 0.9051 0.1203
vn -0.0500 0.7993 0.5988
vn -0.1334 0.6373 0.7590
vn -0.1185 0.4909 0.8631
vn 0.8337 0.0101 -0.5522
vn 0.7736 0.2492 -0.5827
vn 0.4466 0.8946 0.0146
vn 0.7673 0.5580 0.3160
vn 0.6180 0.5731 -0.5381
vn 0.2041 0.9693 -0.1369
vn -0.1974 0.8818 0.4283
vn -0.2256 0.7478 0.6244
vn -0.1728 0.6364 0.7517
vn 0.7874 0.1140 -0.6058
vn 0.6614 0.2718 -0.6990
vn 0.2246 0.9503 -0.2156
vn 0.5997 0.7900 0.1270
vn 0.4498 0.5084 -0.7343
vn -0.0245 0.9218 -0.3869
vn -0.3663 0.9023 0.2275
vn -0.3627 0.8021 0.4744
vn -0.2857 0.7279 0.6233
vn 0.6978 0.1995 -0.6880
vn 0.5304 0.2514 -0.8096
vn -0.0454 0.8967 -0.4404
vn 0.3449 0.9345 -0.0878
vn 0.2704 0.3893 -0.8805
vn -0.2608 0.7594 -0.5960
vn -0.5543 0.8323 0.0049
vn -0.5348 0.7795 0.3261
vn -0.4455 0.7399 0.5041
vn 0.5655 0.2273 -0.7928
vn 0.3877 0.1777 -0.9045
vn -0.3299 0.7100 -0.6222
vn 0.0317 0.9533 -0.3004
vn 0.0899 0.2209 -0.9711
vn -0.4760 0.4950 -0.7269
vn -0.7396 0.6428 -0.1997
vn -0.7157 0.6667 0.2082
vn -0.6149 0.6648 0.4242
vn 0.4143 0.1725 -0.8937
vn 0.2521 0.0474 -0.9665
vn -0.5692 0.4067 -0.7146
vn -0.2845 0.8344 -0.4720
vn -0.0668 0.0055 -0.9978
vn -0.6345 0.1675 -0.7546
vn -0.8817 0.3470 -0.3198
vn -0.8648 0.4788 0.1509
vn -0.7465 0.5325 0.3990
vn 0.2763 0.0435 -0.9601
vn 0.1483 -0.1245 -0.9811
vn -0.7144 0.0545 -0.6976
vn -0.5471 0.6092 -0.5740
vn -0.1574 -0.2394 -0.9581
vn -0.7067 -0.1723 -0.6862
vn -0.9513 0.0161 -0.3078
vn -0.9506 0.2623 0.1661
vn -0.8203 0.3927 0.4158
vn 0.1750 -0.1292 -0.9761
vn 0.0925 -0.3110 -0.9459
vn -0.7578 -0.2757 -0.5913
vn -0.7294 0.3273 -0.6007
vn -0.1546 -0.4741 -0.8668
vn -0.6822 -0.4846 -0.5475
vn -0.9473 -0.2714 -0.1699
vn -0.9686 0.0658 0.2398
vn -0.8496 0.2749 0.4501
vn 0.1207 -0.3150 -0.9414
vn 0.0883 -0.4873 -0.8687
vn -0.7178 -0.5489 -0.4285
vn -0.8276 0.0246 -0.5608
vn -0.0739 -0.6641 -0.7440
vn -0.5737 -0.7381 -0.3551
vn -0.8812 -0.4699 0.0510
vn -0.9344 -0.0853 0.3459
vn -0.8562 0.1782 0.4850
vn 0.1188 -0.4908 -0.8631
vn 0.1334 -0.6373 -0.7590
vn -0.6115 -0.7564 -0.2323
vn -0.8417 -0.2771 -0.4634
vn 0.0500 -0.7993 -0.5988
vn -0.4077 -0.9051 -0.1203
vn -0.7664 -0.5670 0.3019
vn -0.8658 -0.1881 0.4637
vn -0.8518 0.0877 0.5165
vn 0.1727 -0.6364 -0.7518
vn 0.2256 -0.7478 -0.6244
vn -0.4466 -0.8946 -0.0146
vn -0.7673 -0.5581 -0.3160
vn 0.1975 -0.8818 -0.4282
vn -0.2041 -0.9693 0.1369
vn -0.6181 -0.5731 0.5381
vn -0.7736 -0.2492 0.5827
vn -0.8337 -0.0101 0.5522
vn 0.2857 -0.7279 -0.6234
vn 0.3627 -0.8021 -0.4744
vn -0.2247 -0.9503 0.2157
vn -0.5997 -0.7900 -0.1271
vn 0.3663 -0.9023 -0.2275
vn 0.0246 -0.9218 0.3870
vn -0.4499 -0.5084 0.7343
vn -0.6614 -0.2718 0.6990
vn -0.7874 -0.1141 0.6058
vn -0.6312 0.2402 0.7375
vn -0.6445 0.2561 0.7205
vn -0.6299 0.3656 0.6852
vn -0.6157 0.0050 0.7880
vn -0.6604 0.2361 0.7128
vn -0.7093 -0.0009 0.7049
vn -0.6018 0.2565 0.7563
vn -0.6201 0.2645 0.7386
vn -0.6367 0.3633 0.6801
vn -0.5234 0.0497 0.8506
vn -0.5760 0.2829 0.7669
vn -0.5970 0.2821 0.7510
vn -0.6431 0.3583 0.6768
vn -0.4420 0.1250 0.8882
vn -0.5569 0.3160 0.7681
vn -0.5781 0.3068 0.7561
vn -0.6482 0.3514 0.6755
vn -0.3790 0.2224 0.8983
vn -0.5468 0.3518 0.7597
vn -0.5656 0.3356 0.7533
vn -0.6515 0.3435 0.6765
vn -0.3410 0.3324 0.8793
vn -0.5468 0.3859 0.7430
vn -0.5610 0.3650 0.7430
vn -0.6525 0.3356 0.6795
vn -0.3339 0.4423 0.8324
vn -0.5567 0.4142 0.7201
vn -0.5649 0.3914 0.7264
vn -0.6512 0.3287 0.6840
vn -0.3593 0.5370 0.7632
vn -0.5752 0.4336 0.6937
vn -0.5769 0.4118 0.7055
vn -0.6478 0.3235 0.6897
vn -0.4126 0.6036 0.6822
vn -0.6001 0.4418 0.6668
vn -0.5952 0.4235 0.6829
vn -0.6430 0.3207 0.6955
vn -0.4844 0.6359 0.6008
vn -0.6287 0.4380 0.6426
vn -0.6180 0.4252 0.6613
vn -0.6371 0.3202 0.7011
vn -0.5650 0.6345 0.5275
vn -0.6575 0.4225 0.6239
vn -0.6422 0.4169 0.6433
vn -0.6308 0.3224 0.7058
vn -0.6470 0.6024 0.4674
vn -0.6831 0.3969 0.6130
vn -0.6651 0.3994 0.6310
vn -0.6248 0.3269 0.7090
vn -0.7251 0.5424 0.4243
vn -0.7025 0.3644 0.6113
vn -0.6840 0.3749 0.6258
vn -0.6198 0.3333 0.7105
vn -0.7935 0.4560 0.4031
vn -0.7133 0.3287 0.6190
vn -0.6965 0.3462 0.6285
vn -0.6165 0.3407 0.7099
vn -0.8431 0.3480 0.4099
vn -0.7141 0.2942 0.6353
vn -0.7012 0.3169 0.6387
vn -0.6150 0.3485 0.7073
vn -0.8632 0.2294 0.4497
vn -0.7046 0.2650 0.6583
vn -0.6974 0.2904 0.6552
vn -0.6159 0.3557 0.7030
vn -0.8457 0.1191 0.5202
vn -0.6860 0.2449 0.6851
vn -0.6856 0.2700 0.6761
vn -0.6189 0.3613 0.6975
vn -0.7909 0.0378 0.6108
vn -0.6672 0.2580 0.6987
vn -0.6237 0.3649 0.6913
vn -0.6341 -0.1006 0.7667
vn -0.6909 -0.1023 0.7157
vn -0.5755 -0.0864 0.8132
vn -0.6316 0.3994 0.6645
vn -0.6230 0.4019 0.6711
vn -0.6147 0.4018 0.6787
vn -0.5167 -0.0602 0.8541
vn -0.4594 -0.0228 0.8879
vn -0.6487 0.3901 0.6535
vn -0.6403 0.3959 0.6582
vn -0.4055 0.0246 0.9137
vn -0.3566 0.0806 0.9308
vn -0.6637 0.3750 0.6472
vn -0.6568 0.3834 0.6494
vn -0.3143 0.1435 0.9384
vn -0.2797 0.2114 0.9365
vn -0.6750 0.3558 0.6464
vn -0.6702 0.3659 0.6457
vn -0.2540 0.2823 0.9251
vn -0.2377 0.3538 0.9046
vn -0.6811 0.3349 0.6511
vn -0.6791 0.3454 0.6477
vn -0.2316 0.4241 0.8755
vn -0.2357 0.4907 0.8388
vn -0.6814 0.3149 0.6607
vn -0.6824 0.3245 0.6550
vn -0.2501 0.5519 0.7955
vn -0.2741 0.6056 0.7471
vn -0.6758 0.2980 0.6742
vn -0.6797 0.3056 0.6668
vn -0.3072 0.6503 0.6948
vn -0.3482 0.6845 0.6404
vn -0.6649 0.2864 0.6898
vn -0.6713 0.2911 0.6817
vn -0.3959 0.7074 0.5856
vn -0.4489 0.7181 0.5318
vn -0.6502 0.2816 0.7057
vn -0.6581 0.2827 0.6978
vn -0.5057 0.7163 0.4808
vn -0.5643 0.7021 0.4343
vn -0.6333 0.2839 0.7200
vn -0.6419 0.2814 0.7133
vn -0.6232 0.6759 0.3934
vn -0.6804 0.6385 0.3596
vn -0.6163 0.2932 0.7309
vn -0.6246 0.2873 0.7262
vn -0.7343 0.5911 0.3338
vn -0.7832 0.5351 0.3167
vn -0.6012 0.3084 0.7372
vn -0.6082 0.2998 0.7350
vn -0.8255 0.4722 0.3091
vn -0.8601 0.4043 0.3110
vn -0.5900 0.3275 0.7380
vn -0.5947 0.3174 0.7386
vn -0.8860 0.3334 0.3221
vn -0.9021 0.2618 0.3429
vn -0.5838 0.3484 0.7334
vn -0.5858 0.3379 0.7367
vn -0.9083 0.1916 0.3720
vn -0.9041 0.1250 0.4087
vn -0.5835 0.3684 0.7237
vn -0.5825 0.3588 0.7294
vn -0.8897 0.0638 0.4520
vn -0.8657 0.0101 0.5005
vn -0.5891 0.3852 0.7103
vn -0.5852 0.3776 0.7176
vn -0.8326 -0.0346 0.5527
vn -0.7916 -0.0688 0.6071
vn -0.6000 0.3969 0.6946
vn -0.5937 0.3921 0.7027
vn -0.7439 -0.0917 0.6619
vn -0.6068 0.4006 0.6865
vn -0.5289 0.6743 0.5153
vn -0.4791 0.6760 0.5598
vn -0.5804 0.6620 0.4742
vn -0.6337 0.3044 0.7111
vn -0.6393 0.3029 0.7068
vn -0.6448 0.3029 0.7018
vn -0.6320 0.6389 0.4386
vn -0.6822 0.6063 0.4088
vn -0.6226 0.3104 0.7183
vn -0.6281 0.3068 0.7151
vn -0.7294 0.5646 0.3863
vn -0.7723 0.5156 0.3712
vn -0.6128 0.3204 0.7224
vn -0.6174 0.3149 0.7209
vn -0.8094 0.4603 0.3646
vn -0.8398 0.4007 0.3662
vn -0.6055 0.3328 0.7229
vn -0.6086 0.3263 0.7233
vn -0.8624 0.3386 0.3763
vn -0.8767 0.2758 0.3942
vn -0.6014 0.3464 0.7199
vn -0.6029 0.3396 0.7220
vn -0.8820 0.2143 0.4198
vn -0.8784 0.1557 0.4518
vn -0.6013 0.3596 0.7136
vn -0.6007 0.3532 0.7173
vn -0.8658 0.1022 0.4899
vn -0.8447 0.0549 0.5324
vn -0.6049 0.3705 0.7048
vn -0.6025 0.3655 0.7095
vn -0.8157 0.0159 0.5783
vn -0.7798 -0.0143 0.6259
vn -0.6120 0.3781 0.6946
vn -0.6080 0.3750 0.6998
vn -0.7378 -0.0342 0.6741
vn -0.6913 -0.0437 0.7212
vn -0.6216 0.3813 0.6842
vn -0.6164 0.3804 0.6894
vn -0.6416 -0.0420 0.7659
vn -0.5901 -0.0297 0.8068
vn -0.6327 0.3797 0.6749
vn -0.6271 0.3813 0.6792
vn -0.5386 -0.0066 0.8426
vn -0.4883 0.0261 0.8723
vn -0.6438 0.3736 0.6678
vn -0.6383 0.3774 0.6709
vn -0.4411 0.0678 0.8949
vn -0.3982 0.1168 0.9099
vn -0.6536 0.3638 0.6637
vn -0.6490 0.3692 0.6652
vn -0.3611 0.1721 0.9165
vn -0.3307 0.2316 0.9149
vn -0.6610 0.3512 0.6631
vn -0.6578 0.3578 0.6628
vn -0.3082 0.2937 0.9049
vn -0.2938 0.3565 0.8869
vn -0.6650 0.3376 0.6662
vn -0.6636 0.3445 0.6641
vn -0.2885 0.4181 0.8614
vn -0.2921 0.4766 0.8292
vn -0.6651 0.3246 0.6725
vn -0.6657 0.3309 0.6688
vn -0.3048 0.5301 0.7912
vn -0.3257 0.5774 0.7487
vn -0.6615 0.3136 0.6812
vn -0.6639 0.3187 0.6765
vn -0.3548 0.6165 0.7029
vn -0.3906 0.6467 0.6551
vn -0.6544 0.3061 0.6914
vn -0.6584 0.3092 0.6862
vn -0.4327 0.6665 0.6070
vn -0.6500 0.3037 0.6966
vn -0.5997 0.6010 0.5284
vn -0.5586 0.6113 0.5606
vn -0.5192 0.6121 0.5964
vn -0.6806 0.5567 0.4763
vn -0.6407 0.5831 0.4996
vn -0.7523 0.4846 0.4464
vn -0.7183 0.5238 0.4579
vn -0.8060 0.3933 0.4424
vn -0.7820 0.4408 0.4406
vn -0.8353 0.2939 0.4647
vn -0.8242 0.3439 0.4499
vn -0.8367 0.1985 0.5105
vn -0.8398 0.2448 0.4846
vn -0.8098 0.1183 0.5746
vn -0.8269 0.1555 0.5405
vn -0.7582 0.0633 0.6489
vn -0.7870 0.0868 0.6108
vn -0.6879 0.0399 0.7247
vn -0.7250 0.0469 0.6871
vn -0.6074 0.0510 0.7928
vn -0.6483 0.0407 0.7603
vn -0.5265 0.0953 0.8448
vn -0.5662 0.0689 0.8214
vn -0.4548 0.1675 0.8747
vn -0.4886 0.1281 0.8630
vn -0.4011 0.2588 0.8787
vn -0.4249 0.2111 0.8803
vn -0.3718 0.3581 0.8565
vn -0.3827 0.3081 0.8710
vn -0.3704 0.4536 0.8106
vn -0.3671 0.4072 0.8363
vn -0.3973 0.5337 0.7466
vn -0.3800 0.4964 0.7805
vn -0.4488 0.5888 0.6722
vn -0.4199 0.5652 0.7101
vn -0.4819 0.6051 0.6338
vn -0.0677 0.9943 -0.0828
vn 0.0549 0.9981 0.0273
vn -0.1946 0.9636 -0.1834
vn 0.4697 0.3693 -0.8018
vn 0.5616 0.3921 -0.7286
vn 0.6507 0.3944 -0.6488
vn -0.3217 0.9070 -0.2717
vn -0.4454 0.8263 -0.3448
vn 0.2876 0.2697 -0.9190
vn 0.3772 0.3287 -0.8658
vn -0.5617 0.7238 -0.4007
vn -0.6673 0.6028 -0.4374
vn 0.1266 0.1075 -0.9861
vn 0.2029 0.1956 -0.9595
vn -0.7589 0.4668 -0.4541
vn -0.8338 0.3200 -0.4499
vn 0.0057 -0.0977 -0.9952
vn 0.0597 0.0090 -0.9982
vn -0.8895 0.1669 -0.4254
vn -0.9246 0.0121 -0.3808
vn -0.0601 -0.3211 -0.9451
vn -0.0352 -0.2088 -0.9773
vn -0.9377 -0.1397 -0.3181
vn -0.9287 -0.2837 -0.2386
vn -0.0632 -0.5359 -0.8419
vn -0.0702 -0.4314 -0.8994
vn -0.8977 -0.4159 -0.1452
vn -0.8459 -0.5319 -0.0404
vn -0.0030 -0.7161 -0.6980
vn -0.0411 -0.6319 -0.7739
vn -0.7744 -0.6286 0.0725
vn -0.6858 -0.7025 0.1901
vn 0.1131 -0.8400 -0.5307
vn 0.0484 -0.7864 -0.6159
vn -0.5826 -0.7519 0.3086
vn -0.4680 -0.7749 0.4248
vn 0.2712 -0.8925 -0.3603
vn 0.1878 -0.8759 -0.4444
vn -0.3453 -0.7711 0.5349
vn -0.2186 -0.7404 0.6356
vn 0.4523 -0.8675 -0.2073
vn 0.3600 -0.8899 -0.2801
vn -0.0914 -0.6839 0.7238
vn 0.0322 -0.6030 0.7971
vn 0.6344 -0.7678 -0.0902
vn 0.5445 -0.8265 -0.1429
vn 0.1487 -0.5007 0.8528
vn 0.2542 -0.3796 0.8895
vn 0.7955 -0.6055 -0.0230
vn 0.7187 -0.6935 -0.0493
vn 0.3459 -0.2436 0.9061
vn 0.4207 -0.0969 0.9020
vn 0.9163 -0.4003 -0.0139
vn 0.8619 -0.5069 -0.0105
vn 0.4765 0.0562 0.8774
vn 0.5114 0.2110 0.8330
vn 0.9822 -0.1769 -0.0640
vn 0.9568 -0.2892 -0.0313
vn 0.5247 0.3628 0.7701
vn 0.5156 0.5069 0.6908
vn 0.9852 0.0379 -0.1673
vn 0.9918 -0.0665 -0.1092
vn 0.4847 0.6390 0.5973
vn 0.4327 0.7551 0.4926
vn 0.9250 0.2181 -0.3111
vn 0.9628 0.1340 -0.2347
vn 0.3613 0.8517 0.3796
vn 0.2726 0.9257 0.2621
vn 0.8089 0.3418 -0.4784
vn 0.8732 0.2885 -0.3928
vn 0.1696 0.9750 0.1434
vn 0.7339 0.3780 -0.5644
vn 0.2557 -0.8832 -0.3931
vn 0.5419 -0.6485 -0.5346
vn 0.5692 -0.6614 -0.4884
vn 0.2592 -0.8060 -0.5322
vn 0.4219 -0.8728 -0.2454
vn 0.5525 -0.8320 -0.0507
vn -0.1103 -0.9527 0.2832
vn 0.1447 -0.8369 0.5278
vn -0.3229 -0.3386 0.8838
vn -0.6352 0.0584 0.7701
vn -0.7733 -0.2547 0.5806
vn -0.3551 -0.9335 0.0489
vn -0.5498 -0.8262 -0.1232
vn 0.6361 -0.6164 -0.4641
vn 0.6897 -0.5990 -0.4068
vn 0.4236 -0.8083 -0.4088
vn 0.5901 -0.7974 -0.1263
vn 0.7270 -0.6800 0.0950
vn 0.1348 -0.8723 0.4700
vn 0.3720 -0.6521 0.6606
vn -0.1625 -0.1740 0.9712
vn -0.5708 0.0836 0.8168
vn -0.6232 -0.3061 0.7196
vn -0.3118 -0.9446 0.1024
vn 0.7253 -0.5483 -0.4163
vn 0.7938 -0.4873 -0.3639
vn 0.5857 -0.7446 -0.3200
vn 0.7465 -0.6638 -0.0454
vn 0.8743 -0.4502 0.1813
vn 0.3634 -0.7107 0.6023
vn 0.5642 -0.4073 0.7182
vn -0.0354 0.0282 0.9990
vn -0.5049 0.1320 0.8530
vn -0.4546 -0.2725 0.8480
vn -0.0516 -0.9508 0.3054
vn 0.7984 -0.4526 -0.3971
vn 0.8613 -0.3512 -0.3672
vn 0.7242 -0.6355 -0.2677
vn 0.8768 -0.4806 -0.0125
vn 0.9687 -0.1732 0.1778
vn 0.5639 -0.4775 0.6738
vn 0.7045 -0.1157 0.7002
vn 0.0416 0.2507 0.9672
vn -0.4450 0.2040 0.8720
vn -0.2944 -0.1629 0.9417
vn 0.2064 -0.8574 0.4715
vn 0.8463 -0.3415 -0.4088
vn 0.8852 -0.2198 -0.4101
vn 0.8311 -0.4987 -0.2463
vn 0.9644 -0.2619 -0.0370
vn 0.9921 0.1004 0.0747
vn 0.7192 -0.1806 0.6710
vn 0.7668 0.2091 0.6069
vn 0.0554 0.4690 0.8814
vn -0.4010 0.2939 0.8677
vn -0.1630 0.0012 0.9866
vn 0.4440 -0.6746 0.5898
vn 0.8634 -0.2286 -0.4497
vn 0.8714 -0.1129 -0.4775
vn 0.9050 -0.3435 -0.2508
vn 0.9918 -0.0321 -0.1240
vn 0.9411 0.3204 -0.1084
vn 0.8005 0.1592 0.5779
vn 0.7246 0.5328 0.4371
vn 0.0070 0.6570 0.7539
vn -0.3809 0.3911 0.8378
vn -0.0743 0.1952 0.9779
vn 0.6422 -0.4113 0.6469
vn 0.8480 -0.1280 -0.5144
vn 0.8309 -0.0369 -0.5552
vn 0.9434 -0.1744 -0.2820
vn 0.9480 0.1742 -0.2664
vn 0.8260 0.4558 -0.3316
vn 0.7772 0.4929 0.3912
vn 0.5760 0.7925 0.2001
vn -0.0907 0.7960 0.5985
vn -0.3902 0.4834 0.7836
vn -0.0379 0.3955 0.9177
vn 0.7738 -0.0843 0.6278
vn 0.8023 -0.0513 -0.5948
vn 0.7730 0.0098 -0.6343
vn 0.9388 0.0009 -0.3444
vn 0.8364 0.3224 -0.4433
vn 0.6672 0.4990 -0.5530
vn 0.6426 0.7535 0.1387
vn 0.3549 0.9323 -0.0700
vn -0.2225 0.8771 0.4257
vn -0.4308 0.5573 0.7098
vn -0.0611 0.5777 0.8139
vn 0.8081 0.2698 0.5236
vn 0.7320 -0.0076 -0.6813
vn 0.7027 0.0298 -0.7108
vn 0.8818 0.1632 -0.4426
vn 0.6755 0.3897 -0.6260
vn 0.4871 0.4595 -0.7427
vn 0.4278 0.8948 -0.1278
vn 0.1040 0.9400 -0.3250
vn -0.3774 0.8935 0.2433
vn -0.5011 0.5991 0.6245
vn -0.1453 0.7156 0.6833
vn 0.7281 0.5925 0.3446
vn 0.6458 -0.0015 -0.7635
vn 0.6227 0.0233 -0.7821
vn 0.7702 0.2820 -0.5720
vn 0.4915 0.3718 -0.7875
vn 0.3046 0.3521 -0.8850
vn 0.1789 0.9136 -0.3652
vn -0.1447 0.8369 -0.5278
vn -0.5458 0.8357 0.0613
vn -0.5932 0.5967 0.5404
vn -0.2787 0.7877 0.5494
vn 0.5498 0.8262 0.1231
vn 0.5538 -0.0335 -0.8320
vn 0.5359 -0.0126 -0.8442
vn 0.6166 0.3287 -0.7153
vn 0.3093 0.2778 -0.9095
vn 0.1362 0.1899 -0.9723
vn -0.0699 0.8303 -0.5529
vn -0.3720 0.6521 -0.6606
vn -0.7141 0.6929 -0.0999
vn -0.6916 0.5449 0.4741
vn -0.4357 0.7876 0.4358
vn 0.3118 0.9446 -0.1024
vn 0.4666 -0.0998 -0.8788
vn 0.4495 -0.0805 -0.8896
vn 0.4453 0.2910 -0.8468
vn 0.1487 0.1231 -0.9812
vn -0.0003 -0.0148 -0.9999
vn -0.3018 0.6655 -0.6827
vn -0.5642 0.4073 -0.7182
vn -0.8604 0.4663 -0.2056
vn -0.7753 0.4524 0.4407
vn -0.5876 0.7270 0.3551
vn 0.0516 0.9508 -0.3054
vn 0.3945 -0.1927 -0.8985
vn 0.3744 -0.1775 -0.9101
vn 0.2821 0.1777 -0.9428
vn 0.0258 -0.0745 -0.9969
vn -0.0850 -0.2440 -0.9660
vn -0.5009 0.4280 -0.7523
vn -0.7045 0.1157 -0.7002
vn -0.9584 0.1852 -0.2173
vn -0.8275 0.3414 0.4458
vn -0.7164 0.6265 0.3069
vn -0.2064 0.8574 -0.4715
vn 0.3461 -0.3014 -0.8885
vn 0.3222 -0.2939 -0.8999
vn 0.1475 0.0094 -0.9890
vn -0.0456 -0.2943 -0.9546
vn -0.1016 -0.4718 -0.8758
vn -0.6534 0.1292 -0.7459
vn -0.7667 -0.2092 -0.6069
vn -0.9882 -0.0962 -0.1189
vn -0.8432 0.2366 0.4828
vn -0.8167 0.5014 0.2855
vn -0.4440 0.6745 -0.5898
vn 0.3272 -0.4134 -0.8498
vn 0.3016 -0.4156 -0.8581
vn 0.0557 -0.1894 -0.9803
vn -0.0553 -0.5106 -0.8581
vn -0.0486 -0.6683 -0.7423
vn -0.7304 -0.2096 -0.6501
vn -0.7246 -0.5328 -0.4371
vn -0.9437 -0.3230 0.0711
vn -0.8285 0.1541 0.5384
vn -0.8884 0.3585 0.2867
vn -0.6421 0.4113 -0.6469
vn 0.3403 -0.5151 -0.7867
vn 0.3170 -0.5277 -0.7880
vn 0.0168 -0.3952 -0.9184
vn -0.0010 -0.6950 -0.7190
vn 0.0598 -0.8116 -0.5812
vn -0.7032 -0.5395 -0.4632
vn -0.5760 -0.7926 -0.2001
vn -0.8331 -0.4595 0.3078
vn -0.7939 0.0982 0.6001
vn -0.9290 0.1993 0.3117
vn -0.7738 0.0843 -0.6279
vn 0.3844 -0.5942 -0.7066
vn 0.3694 -0.6158 -0.6959
vn 0.0384 -0.5834 -0.8113
vn 0.1084 -0.8235 -0.5569
vn 0.2054 -0.8908 -0.4053
vn -0.5676 -0.7951 -0.2136
vn -0.3549 -0.9323 0.0699
vn -0.6770 -0.4982 0.5418
vn -0.7478 0.0660 0.6607
vn -0.9299 0.0297 0.3667
vn -0.8081 -0.2698 -0.5236
vn 0.4544 -0.6407 -0.6189
vn 0.4565 -0.6649 -0.5912
vn 0.1226 -0.7280 -0.6746
vn 0.3735 -0.9001 -0.2244
vn -0.1039 -0.9400 0.3250
vn -0.4999 -0.4518 0.7389
vn -0.6944 0.0532 0.7176
vn -0.8794 -0.1321 0.4573
vn -0.7281 -0.5925 -0.3446
vn 0.3597 0.5244 -0.7718
vn 0.2179 0.8884 -0.4040
vn 0.5367 -0.5826 -0.6103
vn 0.5858 -0.8020 0.1169
vn -0.0486 0.7753 -0.6297
vn 0.6490 -0.7574 0.0720
vn -0.3025 0.5674 -0.7659
vn -0.6551 0.2131 -0.7249
vn -0.5526 0.3384 -0.7617
vn -0.7491 -0.1047 -0.6541
vn -0.7034 0.0485 -0.7092
vn -0.5366 0.3612 0.7626
vn -0.7387 -0.2887 -0.6090
vn 0.6409 -0.3357 -0.6903
vn -0.5272 0.4158 0.7411
vn 0.4894 -0.6439 -0.5881
vn 0.4999 -0.4270 -0.7536
vn -0.2014 -0.9711 0.1281
vn -0.3607 -0.9315 0.0466
vn 0.0473 0.8808 -0.4711
vn -0.1134 -0.9529 0.2814
vn 0.6309 -0.3353 -0.6997
vn -0.6271 0.2948 0.7210
vn -0.4852 0.4978 -0.7188
vn 0.6146 -0.3103 -0.7252
vn 0.1746 -0.2177 -0.9603
vn -0.5764 0.3608 -0.7332
vn 0.7709 0.0919 0.6303
vn 0.7286 -0.0620 0.6821
vn 0.7945 0.3795 0.4741
vn -0.7529 -0.2602 -0.6046
vn 0.8998 0.4341 -0.0446
vn 0.5657 -0.1959 0.8010
vn 0.5414 0.8408 0.0002
vn 0.6590 0.7438 0.1117
vn 0.4325 0.8923 -0.1296
vn -0.4569 0.4705 0.7549
vn -0.6280 0.4448 0.6386
vn -0.6337 0.3424 0.6937
vn -0.6338 0.3424 0.6936
vt 0.294329 0.639960
vt 0.247810 0.639960
vt 0.247810 0.608694
vt 0.294329 0.608694
vt 0.294329 0.888340
vt 0.247810 0.888340
vt 0.258209 0.877941
vt 0.283930 0.877941
vt 0.258209 0.650358
vt 0.283930 0.650358
vt 0.887888 0.412166
vt 0.887887 0.367887
vt 0.956806 0.367887
vt 0.956806 0.412165
vt 0.903292 0.017359
vt 0.887887 0.001953
vt 0.956806 0.001953
vt 0.941400 0.017359
vt 0.903296 0.354521
vt 0.941397 0.354520
vt 0.992963 0.912757
vt 0.974392 0.893665
vt 0.977441 0.892338
vt 0.995346 0.910438
vt 0.968061 0.410604
vt 0.992745 0.379605
vt 0.995346 0.381676
vt 0.970662 0.412675
vt 0.951470 0.431439
vt 0.954635 0.432458
vt 0.963913 0.682341
vt 0.961950 0.642763
vt 0.965271 0.642599
vt 0.967234 0.682176
vt 0.997185 0.586037
vt 0.997185 0.607947
vt 0.993860 0.607947
vt 0.993860 0.586037
vt 0.997186 0.801814
vt 0.993860 0.801814
vt 0.997186 0.823725
vt 0.993860 0.823725
vt 0.997186 0.392170
vt 0.993860 0.392170
vt 0.214129 0.127371
vt 0.208857 0.127988
vt 0.208641 0.125498
vt 0.214576 0.124563
vt 0.203444 0.131277
vt 0.202446 0.129922
vt 0.246315 0.015105
vt 0.236608 0.008456
vt 0.236957 0.004184
vt 0.248073 0.012970
vt 0.226766 0.007116
vt 0.225958 0.001953
vt 0.173461 0.140570
vt 0.168685 0.143630
vt 0.167787 0.141386
vt 0.173032 0.137779
vt 0.164351 0.149139
vt 0.162947 0.148213
vt 0.318576 0.048751
vt 0.311363 0.037890
vt 0.312973 0.034120
vt 0.320668 0.047628
vt 0.302773 0.031835
vt 0.303764 0.026556
vt 0.137848 0.171607
vt 0.134087 0.176786
vt 0.132630 0.175044
vt 0.136664 0.169131
vt 0.131275 0.183902
vt 0.129588 0.183568
vt 0.379425 0.113467
vt 0.375552 0.099712
vt 0.378169 0.096891
vt 0.381568 0.113415
vt 0.369211 0.089750
vt 0.371866 0.085047
vt 0.111462 0.216706
vt 0.109186 0.223450
vt 0.107344 0.222409
vt 0.109668 0.214792
vt 0.108279 0.231390
vt 0.106517 0.231752
vt 0.421738 0.201473
vt 0.421710 0.186486
vt 0.425025 0.184949
vt 0.423683 0.202458
vt 0.418370 0.173813
vt 0.422359 0.170273
vt 0.097670 0.270539
vt 0.097217 0.278039
vt 0.095209 0.277804
vt 0.095455 0.269394
vt 0.098357 0.285850
vt 0.096775 0.286883
vt 0.440490 0.302276
vt 0.444343 0.287900
vt 0.447971 0.287857
vt 0.442020 0.304162
vt 0.444432 0.274045
vt 0.449283 0.272114
vt 0.097953 0.326515
vt 0.099375 0.333852
vt 0.097430 0.334428
vt 0.095556 0.326259
vt 0.102477 0.340576
vt 0.101318 0.342143
vt 0.433410 0.403773
vt 0.440643 0.391761
vt 0.444163 0.393241
vt 0.434380 0.406328
vt 0.444153 0.378415
vt 0.449283 0.378344
vt 0.112257 0.377950
vt 0.115389 0.384218
vt 0.113724 0.385527
vt 0.109939 0.378627
vt 0.120092 0.388993
vt 0.119519 0.390849
vt 0.401440 0.493787
vt 0.411128 0.485538
vt 0.414125 0.488397
vt 0.401785 0.496745
vt 0.417596 0.474315
vt 0.422382 0.476119
vt 0.138956 0.418679
vt 0.143433 0.423091
vt 0.142249 0.424980
vt 0.136993 0.420241
vt 0.149134 0.425266
vt 0.149186 0.427120
vt 0.348450 0.561670
vt 0.359438 0.558081
vt 0.361544 0.562020
vt 0.348131 0.564773
vt 0.368055 0.550292
vt 0.371908 0.553752
vt 0.175012 0.443610
vt 0.180247 0.445591
vt 0.179704 0.447821
vt 0.173680 0.445902
vt 0.186141 0.444869
vt 0.186715 0.446460
vt 0.280447 0.599334
vt 0.291512 0.600784
vt 0.292412 0.605372
vt 0.279375 0.602309
vt 0.301286 0.597329
vt 0.303713 0.602018
vt 0.215897 0.449627
vt 0.221178 0.448932
vt 0.221349 0.451205
vt 0.215431 0.452374
vt 0.226427 0.445412
vt 0.227359 0.446557
vt 0.205373 0.601964
vt 0.215319 0.608266
vt 0.214847 0.612936
vt 0.203485 0.604474
vt 0.225157 0.609537
vt 0.225877 0.614832
vt 0.256389 0.436011
vt 0.261000 0.432761
vt 0.261844 0.434777
vt 0.256891 0.438836
vt 0.264894 0.426936
vt 0.266010 0.427537
vt 0.132405 0.569055
vt 0.140201 0.579480
vt 0.138441 0.583653
vt 0.129769 0.570742
vt 0.149051 0.585322
vt 0.148101 0.590543
vt 0.291509 0.404709
vt 0.294894 0.399367
vt 0.296279 0.400881
vt 0.292901 0.407236
vt 0.297001 0.392016
vt 0.298146 0.392050
vt 0.070491 0.504449
vt 0.075272 0.517856
vt 0.072478 0.521060
vt 0.067351 0.505001
vt 0.082161 0.527662
vt 0.079789 0.532241
vt 0.317502 0.359783
vt 0.319290 0.352996
vt 0.321049 0.353824
vt 0.319607 0.361703
vt 0.319353 0.345000
vt 0.320397 0.344480
vt 0.027407 0.415912
vt 0.028534 0.430757
vt 0.025046 0.432645
vt 0.024170 0.415164
vt 0.032587 0.443448
vt 0.029104 0.446932
vt 0.331260 0.306352
vt 0.331212 0.298942
vt 0.333142 0.298974
vt 0.333834 0.307415
vt 0.329241 0.291276
vt 0.330071 0.290276
vt 0.008489 0.314319
vt 0.005731 0.328801
vt 0.001953 0.329184
vt 0.005637 0.312320
vt 0.006375 0.342874
vt 0.002152 0.344907
vt 0.331101 0.250754
vt 0.329240 0.243621
vt 0.331115 0.242842
vt 0.333834 0.250829
vt 0.325488 0.237185
vt 0.326025 0.235826
vt 0.015935 0.212110
vt 0.009561 0.224422
vt 0.005921 0.223283
vt 0.013905 0.209145
vt 0.006671 0.238151
vt 0.002151 0.238509
vt 0.316975 0.199610
vt 0.313565 0.193605
vt 0.315171 0.192097
vt 0.319536 0.198689
vt 0.308503 0.189114
vt 0.308719 0.187536
vt 0.048660 0.121696
vt 0.039461 0.130270
vt 0.036364 0.127765
vt 0.047711 0.118231
vt 0.033384 0.141949
vt 0.029055 0.140570
vt 0.290636 0.158939
vt 0.286079 0.154735
vt 0.287218 0.152650
vt 0.292720 0.157134
vt 0.280256 0.152706
vt 0.280111 0.151044
vt 0.102550 0.053907
vt 0.091739 0.057662
vt 0.089539 0.054095
vt 0.102701 0.050460
vt 0.083248 0.065840
vt 0.079613 0.062836
vt 0.254916 0.133747
vt 0.249710 0.131845
vt 0.250212 0.129410
vt 0.256256 0.131277
vt 0.243767 0.132524
vt 0.243211 0.130927
vt 0.171200 0.016839
vt 0.160206 0.015291
vt 0.159199 0.011091
vt 0.172296 0.013874
vt 0.150386 0.018936
vt 0.147948 0.014595
vt 0.266500 0.065178
vt 0.234548 0.056755
vt 0.235406 0.034081
vt 0.271018 0.040175
vt 0.202205 0.055589
vt 0.200065 0.029534
vt 0.325715 0.104100
vt 0.297171 0.081414
vt 0.303672 0.060946
vt 0.336293 0.083180
vt 0.372749 0.167557
vt 0.351008 0.133381
vt 0.362411 0.117541
vt 0.388099 0.153190
vt 0.402063 0.247870
vt 0.389676 0.206314
vt 0.404632 0.197015
vt 0.420364 0.241753
vt 0.410114 0.335444
vt 0.408605 0.291467
vt 0.425308 0.289847
vt 0.429188 0.338304
vt 0.395935 0.419752
vt 0.405498 0.378640
vt 0.421921 0.384892
vt 0.413508 0.431231
vt 0.361290 0.490699
vt 0.380751 0.457381
vt 0.394932 0.470724
vt 0.375293 0.509413
vt 0.310320 0.539860
vt 0.337364 0.518308
vt 0.347641 0.537120
vt 0.319092 0.563604
vt 0.248963 0.561235
vt 0.280408 0.554109
vt 0.285570 0.576143
vt 0.251415 0.587180
vt 0.184563 0.552104
vt 0.216616 0.560327
vt 0.216038 0.582948
vt 0.180368 0.577075
vt 0.124962 0.513483
vt 0.153711 0.536100
vt 0.147419 0.556600
vt 0.114634 0.534430
vt 0.077518 0.449982
vt 0.099397 0.484286
vt 0.088081 0.500162
vt 0.062306 0.464358
vt 0.048019 0.369353
vt 0.060367 0.411141
vt 0.045414 0.420409
vt 0.029795 0.375417
vt 0.039989 0.281392
vt 0.041346 0.325584
vt 0.024634 0.327096
vt 0.020990 0.278421
vt 0.054340 0.196750
vt 0.044579 0.238007
vt 0.028177 0.231588
vt 0.036881 0.185117
vt 0.089304 0.125639
vt 0.069621 0.158989
vt 0.055530 0.145442
vt 0.075484 0.106750
vt 0.140645 0.076601
vt 0.113416 0.098047
vt 0.103322 0.079028
vt 0.132125 0.052697
vt 0.170697 0.062520
vt 0.165796 0.040332
vt 0.234147 0.065548
vt 0.203012 0.064485
vt 0.264941 0.073742
vt 0.263620 0.081019
vt 0.233813 0.073041
vt 0.203693 0.072045
vt 0.294497 0.089346
vt 0.321980 0.111299
vt 0.318817 0.117416
vt 0.292229 0.096105
vt 0.346380 0.139507
vt 0.367292 0.172530
vt 0.362673 0.176755
vt 0.342454 0.144724
vt 0.383648 0.209901
vt 0.395547 0.250024
vt 0.390027 0.251855
vt 0.378533 0.212954
vt 0.401899 0.292080
vt 0.403314 0.334524
vt 0.397552 0.333740
vt 0.396210 0.292600
vt 0.398920 0.376205
vt 0.389664 0.415872
vt 0.384351 0.412570
vt 0.393337 0.374130
vt 0.375084 0.452196
vt 0.356289 0.484326
vt 0.352050 0.478904
vt 0.370274 0.447780
vt 0.333281 0.510994
vt 0.307182 0.531751
vt 0.304524 0.524855
vt 0.329812 0.504764
vt 0.278396 0.545537
vt 0.248069 0.552354
vt 0.247314 0.544806
vt 0.276685 0.538235
vt 0.216923 0.551524
vt 0.186035 0.543526
vt 0.187284 0.536236
vt 0.217182 0.544024
vt 0.156314 0.528126
vt 0.128635 0.506254
vt 0.131748 0.500112
vt 0.158523 0.521336
vt 0.103995 0.478112
vt 0.082943 0.444987
vt 0.087539 0.440741
vt 0.107897 0.472859
vt 0.066400 0.407528
vt 0.054523 0.367195
vt 0.060033 0.365362
vt 0.071516 0.404455
vt 0.048067 0.324972
vt 0.046776 0.282327
vt 0.052527 0.283123
vt 0.053766 0.324452
vt 0.051163 0.240464
vt 0.060587 0.200660
vt 0.065883 0.203986
vt 0.056748 0.242557
vt 0.075268 0.164213
vt 0.094260 0.132050
vt 0.098460 0.137504
vt 0.080062 0.168662
vt 0.117446 0.105401
vt 0.143715 0.084745
vt 0.146314 0.091669
vt 0.120871 0.111664
vt 0.172627 0.071114
vt 0.174271 0.078435
vt 0.233423 0.080599
vt 0.204381 0.079652
vt 0.262182 0.088348
vt 0.258752 0.108289
vt 0.232617 0.101223
vt 0.206235 0.100393
vt 0.289788 0.102921
vt 0.315443 0.123574
vt 0.307153 0.140317
vt 0.283848 0.121504
vt 0.338275 0.149984
vt 0.357785 0.181014
vt 0.345639 0.192558
vt 0.327936 0.164303
vt 0.373129 0.216040
vt 0.384214 0.253713
vt 0.369678 0.258675
vt 0.359640 0.224397
vt 0.390218 0.293148
vt 0.391497 0.332982
vt 0.376301 0.330764
vt 0.375180 0.294535
vt 0.387463 0.372078
vt 0.378768 0.409285
vt 0.364730 0.400161
vt 0.372673 0.366328
vt 0.365209 0.443370
vt 0.347596 0.473480
vt 0.336373 0.458546
vt 0.352428 0.431173
vt 0.326158 0.498515
vt 0.301740 0.517930
vt 0.294676 0.498976
vt 0.316896 0.481339
vt 0.274897 0.530883
vt 0.246555 0.537208
vt 0.244518 0.516491
vt 0.270286 0.510769
vt 0.217498 0.536459
vt 0.188655 0.528894
vt 0.191910 0.508917
vt 0.218117 0.515825
vt 0.160906 0.514489
vt 0.135075 0.493927
vt 0.143245 0.477116
vt 0.166698 0.495838
vt 0.112049 0.467564
vt 0.092406 0.436463
vt 0.104502 0.424867
vt 0.122322 0.453164
vt 0.076922 0.401349
vt 0.065839 0.363500
vt 0.080361 0.358526
vt 0.090411 0.392950
vt 0.059767 0.323905
vt 0.058575 0.283893
vt 0.073757 0.286137
vt 0.074819 0.322523
vt 0.062625 0.244628
vt 0.071450 0.207296
vt 0.085453 0.216478
vt 0.077412 0.250425
vt 0.085109 0.173104
vt 0.102879 0.142960
vt 0.114013 0.157969
vt 0.097844 0.185375
vt 0.124480 0.117947
vt 0.149041 0.098622
vt 0.155959 0.117648
vt 0.133623 0.135207
vt 0.175991 0.085807
vt 0.180432 0.105972
vt 0.256954 0.118630
vt 0.232191 0.111924
vt 0.207198 0.111143
vt 0.302811 0.149003
vt 0.280730 0.131156
vt 0.339284 0.198551
vt 0.322508 0.171742
vt 0.362074 0.261256
vt 0.352569 0.228744
vt 0.368354 0.329621
vt 0.367299 0.295261
vt 0.357391 0.395432
vt 0.364927 0.363350
vt 0.330512 0.450799
vt 0.345740 0.424843
vt 0.290993 0.489147
vt 0.312054 0.472428
vt 0.243467 0.505752
vt 0.267885 0.500333
vt 0.193626 0.498557
vt 0.218455 0.505119
vt 0.147532 0.468397
vt 0.169743 0.486155
vt 0.110836 0.418851
vt 0.127716 0.445690
vt 0.087961 0.355940
vt 0.097481 0.388587
vt 0.081701 0.287293
vt 0.082705 0.321800
vt 0.092778 0.221234
vt 0.085157 0.253425
vt 0.119834 0.165751
vt 0.104509 0.191738
vt 0.159570 0.127511
vt 0.138406 0.144160
vt 0.182750 0.116431
vt 0.231856 0.116780
vt 0.207641 0.116011
vt 0.255859 0.123319
vt 0.236607 0.355545
vt 0.223026 0.359308
vt 0.222520 0.356117
vt 0.235399 0.352549
vt 0.209297 0.359874
vt 0.209517 0.356650
vt 0.278921 0.135528
vt 0.300357 0.152926
vt 0.261602 0.338842
vt 0.249600 0.348646
vt 0.247800 0.345962
vt 0.259332 0.336540
vt 0.319496 0.175101
vt 0.335812 0.201259
vt 0.281193 0.311774
vt 0.272234 0.326413
vt 0.269611 0.324520
vt 0.278314 0.310298
vt 0.348742 0.230727
vt 0.357997 0.262458
vt 0.293038 0.277649
vt 0.288203 0.295355
vt 0.285146 0.294293
vt 0.289863 0.277025
vt 0.363090 0.295648
vt 0.364125 0.329186
vt 0.295249 0.240578
vt 0.295343 0.259180
vt 0.292113 0.258991
vt 0.292020 0.240804
vt 0.360803 0.362105
vt 0.353484 0.393405
vt 0.288013 0.205195
vt 0.292778 0.222404
vt 0.289606 0.223052
vt 0.284964 0.206282
vt 0.342170 0.422090
vt 0.327382 0.447394
vt 0.272139 0.175789
vt 0.281051 0.189506
vt 0.278203 0.191043
vt 0.269587 0.177780
vt 0.309466 0.468473
vt 0.289040 0.484748
vt 0.249607 0.155903
vt 0.261535 0.164489
vt 0.259399 0.166917
vt 0.247984 0.158702
vt 0.266645 0.495627
vt 0.242987 0.500888
vt 0.223267 0.147478
vt 0.236769 0.150123
vt 0.235784 0.153202
vt 0.223034 0.150699
vt 0.218753 0.500259
vt 0.194686 0.493859
vt 0.195976 0.151956
vt 0.209523 0.148102
vt 0.210056 0.151287
vt 0.197200 0.154945
vt 0.171520 0.481769
vt 0.149963 0.464458
vt 0.171020 0.168686
vt 0.183005 0.158876
vt 0.184810 0.161556
vt 0.173293 0.170986
vt 0.130714 0.442317
vt 0.114301 0.416132
vt 0.151474 0.195768
vt 0.160401 0.181114
vt 0.163026 0.183004
vt 0.154361 0.197225
vt 0.101306 0.386598
vt 0.092038 0.354735
vt 0.139961 0.229973
vt 0.144629 0.212250
vt 0.147697 0.213277
vt 0.143138 0.230589
vt 0.086914 0.321413
vt 0.085928 0.287732
vt 0.137598 0.266997
vt 0.137598 0.248409
vt 0.140829 0.248614
vt 0.140828 0.266784
vt 0.089279 0.254680
vt 0.096680 0.223274
vt 0.144711 0.302375
vt 0.140007 0.285167
vt 0.143181 0.284528
vt 0.147765 0.301302
vt 0.108071 0.194505
vt 0.122948 0.169173
vt 0.160410 0.331847
vt 0.151584 0.318089
vt 0.154441 0.316568
vt 0.162975 0.329873
vt 0.140967 0.148136
vt 0.161490 0.131928
vt 0.182846 0.351835
vt 0.170934 0.343209
vt 0.173087 0.340795
vt 0.184452 0.349029
vt 0.183955 0.121148
vt 0.195778 0.357428
vt 0.196711 0.354335
vt 0.228066 0.141383
vt 0.209268 0.142198
vt 0.209012 0.134135
vt 0.218098 0.131322
vt 0.190606 0.146955
vt 0.199687 0.136267
vt 0.188979 0.139642
vt 0.195748 0.135559
vt 0.273509 0.030356
vt 0.253195 0.024442
vt 0.260484 0.023512
vt 0.236007 0.020055
vt 0.219164 0.014500
vt 0.198975 0.019309
vt 0.212783 0.010655
vt 0.228824 0.133822
vt 0.221444 0.129303
vt 0.172791 0.156502
vt 0.170441 0.149206
vt 0.178290 0.142349
vt 0.156101 0.169675
vt 0.162031 0.155506
vt 0.152356 0.163522
vt 0.157864 0.156449
vt 0.341766 0.075079
vt 0.322806 0.060558
vt 0.330261 0.062918
vt 0.307750 0.048297
vt 0.293533 0.035057
vt 0.289102 0.028492
vt 0.180720 0.139002
vt 0.141367 0.186759
vt 0.137214 0.181126
vt 0.142959 0.171018
vt 0.128672 0.206683
vt 0.130671 0.190863
vt 0.123317 0.202391
vt 0.126757 0.193324
vt 0.395689 0.147656
vt 0.380536 0.126373
vt 0.387181 0.131613
vt 0.369453 0.107739
vt 0.359513 0.088481
vt 0.357502 0.080172
vt 0.144288 0.166754
vt 0.118787 0.229263
vt 0.113321 0.226017
vt 0.116258 0.213800
vt 0.111715 0.253527
vt 0.109487 0.238084
vt 0.105361 0.251589
vt 0.106272 0.241780
vt 0.429165 0.239285
vt 0.419578 0.213936
vt 0.424660 0.221333
vt 0.413823 0.191214
vt 0.409344 0.168240
vt 0.409855 0.159208
vt 0.116391 0.209059
vt 0.107953 0.278983
vt 0.101858 0.278526
vt 0.101550 0.265649
vt 0.107166 0.304601
vt 0.101176 0.291458
vt 0.100533 0.305195
vt 0.098987 0.295938
vt 0.438281 0.339112
vt 0.435287 0.312781
vt 0.438275 0.321429
vt 0.435567 0.288749
vt 0.437134 0.264809
vt 0.440063 0.256073
vt 0.100433 0.260934
vt 0.109951 0.329823
vt 0.103969 0.332211
vt 0.100459 0.320246
vt 0.115470 0.353765
vt 0.106550 0.344456
vt 0.109294 0.356861
vt 0.105636 0.349231
vt 0.421962 0.435238
vt 0.425784 0.411041
vt 0.426376 0.419941
vt 0.432018 0.388620
vt 0.439456 0.366617
vt 0.444495 0.359177
vt 0.098181 0.316089
vt 0.124535 0.375679
vt 0.119390 0.380637
vt 0.113083 0.371066
vt 0.135739 0.395151
vt 0.124958 0.390703
vt 0.130768 0.400453
vt 0.125497 0.395228
vt 0.382184 0.516259
vt 0.392302 0.496959
vt 0.390452 0.505115
vt 0.403666 0.478797
vt 0.416044 0.461379
vt 0.422652 0.456124
vt 0.109844 0.367990
vt 0.149967 0.411033
vt 0.146328 0.417982
vt 0.137982 0.412006
vt 0.165687 0.423616
vt 0.154236 0.424562
vt 0.162643 0.430555
vt 0.156271 0.428226
vt 0.323497 0.572623
vt 0.338877 0.560373
vt 0.334762 0.566920
vt 0.354004 0.548541
vt 0.369806 0.537758
vt 0.377228 0.535356
vt 0.134143 0.410451
vt 0.183316 0.431486
vt 0.181641 0.439569
vt 0.172332 0.437975
vt 0.201636 0.435586
vt 0.190824 0.441815
vt 0.201008 0.443263
vt 0.194068 0.444051
vt 0.252600 0.597275
vt 0.271615 0.593687
vt 0.265585 0.597904
vt 0.288803 0.589550
vt 0.306169 0.586683
vt 0.313484 0.587484
vt 0.168410 0.438213
vt 0.220396 0.434525
vt 0.220878 0.442762
vt 0.211838 0.445734
vt 0.238961 0.429593
vt 0.230087 0.440393
vt 0.240840 0.436943
vt 0.233994 0.440876
vt 0.178190 0.586859
vt 0.198395 0.592649
vt 0.191065 0.593991
vt 0.215735 0.596716
vt 0.232626 0.602077
vt 0.238871 0.605965
vt 0.208435 0.447750
vt 0.256521 0.419802
vt 0.259085 0.427215
vt 0.251487 0.434341
vt 0.273003 0.406534
vt 0.267099 0.420588
vt 0.277015 0.412610
vt 0.271073 0.419322
vt 0.109536 0.542676
vt 0.128105 0.557192
vt 0.120323 0.555459
vt 0.143647 0.569059
vt 0.158174 0.581956
vt 0.162630 0.588328
vt 0.249114 0.437813
vt 0.287370 0.389336
vt 0.291659 0.395081
vt 0.286385 0.405407
vt 0.299962 0.369527
vt 0.297561 0.385123
vt 0.305481 0.373694
vt 0.301122 0.382373
vt 0.055001 0.470187
vt 0.069410 0.491448
vt 0.062098 0.486846
vt 0.081288 0.509811
vt 0.091819 0.528782
vt 0.094139 0.536832
vt 0.285291 0.409819
vt 0.309574 0.347066
vt 0.315109 0.350467
vt 0.312723 0.362747
vt 0.316760 0.323026
vt 0.318186 0.338371
vt 0.323167 0.324839
vt 0.320952 0.334484
vt 0.021111 0.378259
vt 0.029694 0.403381
vt 0.023677 0.396485
vt 0.036397 0.426053
vt 0.041616 0.448916
vt 0.041655 0.457787
vt 0.312942 0.367561
vt 0.320407 0.297816
vt 0.326556 0.298472
vt 0.327392 0.311260
vt 0.321404 0.272397
vt 0.326486 0.285703
vt 0.328004 0.271688
vt 0.328179 0.281143
vt 0.011830 0.277987
vt 0.013842 0.303800
vt 0.009782 0.295423
vt 0.014493 0.328015
vt 0.013692 0.352036
vt 0.011431 0.360801
vt 0.328908 0.315931
vt 0.318605 0.247430
vt 0.324650 0.245267
vt 0.328608 0.257028
vt 0.313286 0.223606
vt 0.321463 0.233323
vt 0.319367 0.220441
vt 0.321900 0.228594
vt 0.028213 0.181391
vt 0.023687 0.204867
vt 0.022072 0.195962
vt 0.018165 0.227646
vt 0.011394 0.249899
vt 0.006995 0.257581
vt 0.331258 0.261019
vt 0.304323 0.201860
vt 0.309561 0.197158
vt 0.316144 0.206489
vt 0.293339 0.182371
vt 0.303677 0.187393
vt 0.298230 0.177101
vt 0.302808 0.183013
vt 0.068342 0.100014
vt 0.057884 0.118574
vt 0.059001 0.110191
vt 0.046885 0.137109
vt 0.034948 0.154859
vt 0.028804 0.160516
vt 0.319642 0.209318
vt 0.279335 0.166464
vt 0.283138 0.159787
vt 0.291561 0.165614
vt 0.263798 0.153727
vt 0.275164 0.153361
vt 0.266854 0.146899
vt 0.273017 0.149815
vt 0.127584 0.043616
vt 0.112154 0.055276
vt 0.115970 0.048508
vt 0.097103 0.067310
vt 0.081470 0.078357
vt 0.074245 0.081192
vt 0.295496 0.166935
vt 0.246336 0.145658
vt 0.248219 0.137810
vt 0.257522 0.139408
vt 0.239039 0.135524
vt 0.235805 0.133251
vt 0.179991 0.022558
vt 0.186015 0.018399
vt 0.162789 0.026625
vt 0.145424 0.029557
vt 0.138056 0.029058
vt 0.261415 0.139028
vt 0.092184 0.622033
vt 0.080389 0.625560
vt 0.073143 0.588882
vt 0.089732 0.583922
vt 0.104161 0.621335
vt 0.106576 0.582939
vt 0.069139 0.631851
vt 0.058767 0.640673
vt 0.042735 0.610136
vt 0.057323 0.597728
vt 0.049602 0.651796
vt 0.041903 0.664850
vt 0.019019 0.644137
vt 0.029846 0.625779
vt 0.035929 0.679464
vt 0.031832 0.695175
vt 0.004856 0.686785
vt 0.010617 0.664690
vt 0.029768 0.711518
vt 0.029768 0.727991
vt 0.001953 0.732935
vt 0.001953 0.709768
vt 0.031864 0.744090
vt 0.035960 0.759338
vt 0.010662 0.777021
vt 0.004901 0.755577
vt 0.041963 0.773254
vt 0.049662 0.785438
vt 0.029931 0.813726
vt 0.019103 0.796591
vt 0.058847 0.795490
vt 0.069220 0.803140
vt 0.057436 0.838622
vt 0.042849 0.827863
vt 0.080480 0.808117
vt 0.092276 0.810311
vt 0.089861 0.848706
vt 0.073272 0.845621
vt 0.104253 0.809613
vt 0.116048 0.806085
vt 0.123293 0.842764
vt 0.106705 0.847724
vt 0.127298 0.799795
vt 0.137670 0.790973
vt 0.153702 0.821510
vt 0.139114 0.833917
vt 0.146835 0.779850
vt 0.154534 0.766796
vt 0.177417 0.787509
vt 0.166590 0.805867
vt 0.160509 0.752182
vt 0.164605 0.736471
vt 0.191581 0.744861
vt 0.185820 0.766956
vt 0.166669 0.720128
vt 0.166669 0.703655
vt 0.194484 0.698711
vt 0.194484 0.721877
vt 0.164573 0.687555
vt 0.160477 0.672307
vt 0.185775 0.654625
vt 0.191536 0.676069
vt 0.154474 0.658392
vt 0.146775 0.646208
vt 0.166506 0.617920
vt 0.177334 0.635055
vt 0.137590 0.636156
vt 0.127217 0.628505
vt 0.139000 0.593024
vt 0.153588 0.603783
vt 0.115956 0.623529
vt 0.123164 0.586025
vt 0.001953 0.045899
vt 0.001953 0.001954
vt 0.001954 0.001953
vt 0.001954 0.043744
vt 0.001953 0.043744
vt 0.001953 0.001953
vt 0.001954 0.039326
vt 0.001953 0.039326
vt 0.001954 0.001953
vt 0.001954 0.037652
vt 0.001953 0.037652
vt 0.001954 0.001954
vt 0.001954 0.037653
vt 0.001955 0.039328
vt 0.001953 0.039327
vt 0.001955 0.001954
vt 0.882810 0.600253
vt 0.455517 0.600253
vt 0.455517 0.001953
vt 0.882810 0.001953
vt 0.593115 0.998047
vt 0.311394 0.998047
vt 0.311394 0.603578
vt 0.593115 0.603578
s 1
usemtl wire_088088225
f 1/1/1 2/2/2 3/3/3 4/4/4
f 5/5/5 6/6/6 7/7/7 8/8/8
f 6/6/6 2/2/2 9/9/9 7/7/7
f 2/2/2 1/1/1 10/10/10 9/9/9
f 1/1/1 5/5/5 8/8/8 10/10/10
f 11/11/11 12/12/12 13/13/13 14/14/14
f 15/15/15 16/16/16 17/17/17 18/18/18
f 19/19/19 12/12/12 16/16/16 15/15/15
f 20/20/20 13/13/13 12/12/12 19/19/19
f 18/18/18 17/17/17 13/13/13 20/20/20
f 3/21/3 2/22/2 12/23/12 11/24/11
f 4/25/4 3/26/3 11/27/11 14/28/14
f 1/29/1 4/25/4 14/28/14 13/30/13
f 6/31/6 5/32/5 17/33/17 16/34/16
f 8/35/8 7/36/7 15/37/15 18/38/18
f 2/22/2 6/31/6 16/34/16 12/23/12
f 7/36/7 9/39/9 19/40/19 15/37/15
f 9/39/9 10/41/10 20/42/20 19/40/19
f 5/32/5 1/29/1 13/30/13 17/33/17
f 10/43/10 8/35/8 18/38/18 20/44/20
usemtl marquito
f 21/45/21 22/46/22 23/47/23 24/48/24
f 22/46/22 25/49/25 26/50/26 23/47/23
f 27/51/27 28/52/28 23/53/23 26/54/26
f 28/52/28 29/55/29 24/56/24 23/53/23
f 30/57/30 31/58/31 32/59/32 33/60/33
f 31/58/31 34/61/34 35/62/35 32/59/32
f 36/63/36 37/64/37 32/65/32 35/66/35
f 37/64/37 38/67/38 33/68/33 32/65/32
f 39/69/39 40/70/40 41/71/41 42/72/42
f 40/70/40 43/73/43 44/74/44 41/71/41
f 45/75/45 46/76/46 41/77/41 44/78/44
f 46/76/46 47/79/47 42/80/42 41/77/41
f 48/81/48 49/82/49 50/83/50 51/84/51
f 49/82/49 52/85/52 53/86/53 50/83/50
f 54/87/54 55/88/55 50/89/50 53/90/53
f 55/88/55 56/91/56 51/92/51 50/89/50
f 57/93/57 58/94/58 59/95/59 60/96/60
f 58/94/58 61/97/61 62/98/62 59/95/59
f 63/99/63 64/100/64 59/101/59 62/102/62
f 64/100/64 65/103/65 60/104/60 59/101/59
f 66/105/66 67/106/67 68/107/68 69/108/69
f 67/106/67 70/109/70 71/110/71 68/107/68
f 72/111/72 73/112/73 68/113/68 71/114/71
f 73/112/73 74/115/74 69/116/69 68/113/68
f 75/117/75 76/118/76 77/119/77 78/120/78
f 76/118/76 79/121/79 80/122/80 77/119/77
f 81/123/81 82/124/82 77/125/77 80/126/80
f 82/124/82 83/127/83 78/128/78 77/125/77
f 84/129/84 85/130/85 86/131/86 87/132/87
f 85/130/85 88/133/88 89/134/89 86/131/86
f 90/135/90 91/136/91 86/137/86 89/138/89
f 91/136/91 92/139/92 87/140/87 86/137/86
f 93/141/93 94/142/94 95/143/95 96/144/96
f 94/142/94 97/145/97 98/146/98 95/143/95
f 99/147/99 100/148/100 95/149/95 98/150/98
f 100/148/100 101/151/101 96/152/96 95/149/95
f 102/153/102 103/154/103 104/155/104 105/156/105
f 103/154/103 106/157/106 107/158/107 104/155/104
f 108/159/108 109/160/109 104/161/104 107/162/107
f 109/160/109 110/163/110 105/164/105 104/161/104
f 111/165/111 112/166/112 113/167/113 114/168/114
f 112/166/112 115/169/115 116/170/116 113/167/113
f 117/171/117 118/172/118 113/173/113 116/174/116
f 118/172/118 119/175/119 114/176/114 113/173/113
f 120/177/120 121/178/121 122/179/122 123/180/123
f 121/178/121 124/181/124 125/182/125 122/179/122
f 126/183/126 127/184/127 122/185/122 125/186/125
f 127/184/127 128/187/128 123/188/123 122/185/122
f 129/189/129 130/190/130 131/191/131 132/192/132
f 130/190/130 133/193/133 134/194/134 131/191/131
f 135/195/135 136/196/136 131/197/131 134/198/134
f 136/196/136 137/199/137 132/200/132 131/197/131
f 138/201/138 139/202/139 140/203/140 141/204/141
f 139/202/139 142/205/142 143/206/143 140/203/140
f 144/207/144 145/208/145 140/209/140 143/210/143
f 145/208/145 146/211/146 141/212/141 140/209/140
f 147/213/147 148/214/148 149/215/149 150/216/150
f 148/214/148 151/217/151 152/218/152 149/215/149
f 153/219/153 154/220/154 149/221/149 152/222/152
f 154/220/154 155/223/155 150/224/150 149/221/149
f 156/225/156 157/226/157 158/227/158 159/228/159
f 157/226/157 160/229/160 161/230/161 158/227/158
f 162/231/162 163/232/163 158/233/158 161/234/161
f 163/232/163 164/235/164 159/236/159 158/233/158
f 165/237/165 166/238/166 167/239/167 168/240/168
f 166/238/166 169/241/169 170/242/170 167/239/167
f 171/243/171 172/244/172 167/245/167 170/246/170
f 172/244/172 173/247/173 168/248/168 167/245/167
f 174/249/174 175/250/175 176/251/176 177/252/177
f 175/250/175 178/253/178 179/254/179 176/251/176
f 180/255/180 181/256/181 176/257/176 179/258/179
f 181/256/181 182/259/182 177/260/177 176/257/176
f 183/261/183 184/262/184 185/263/185 186/264/186
f 184/262/184 187/265/187 188/266/188 185/263/185
f 189/267/189 190/268/190 191/269/191 192/270/192
f 190/268/190 183/261/183 186/264/186 191/269/191
f 193/271/193 194/272/194 195/273/195 196/274/196
f 194/272/194 189/267/189 192/270/192 195/273/195
f 197/275/197 198/276/198 199/277/199 200/278/200
f 198/276/198 193/271/193 196/274/196 199/277/199
f 201/279/201 202/280/202 203/281/203 204/282/204
f 202/280/202 197/275/197 200/278/200 203/281/203
f 205/283/205 206/284/206 207/285/207 208/286/208
f 206/284/206 201/279/201 204/282/204 207/285/207
f 209/287/209 210/288/210 211/289/211 212/290/212
f 210/288/210 205/283/205 208/286/208 211/289/211
f 213/291/213 214/292/214 215/293/215 216/294/216
f 214/292/214 209/287/209 212/290/212 215/293/215
f 217/295/217 218/296/218 219/297/219 220/298/220
f 218/296/218 213/291/213 216/294/216 219/297/219
f 221/299/221 222/300/222 223/301/223 224/302/224
f 222/300/222 217/295/217 220/298/220 223/301/223
f 225/303/225 226/304/226 227/305/227 228/306/228
f 226/304/226 221/299/221 224/302/224 227/305/227
f 229/307/229 230/308/230 231/309/231 232/310/232
f 230/308/230 225/303/225 228/306/228 231/309/231
f 233/311/233 234/312/234 235/313/235 236/314/236
f 234/312/234 229/307/229 232/310/232 235/313/235
f 237/315/237 238/316/238 239/317/239 240/318/240
f 238/316/238 233/311/233 236/314/236 239/317/239
f 241/319/241 242/320/242 243/321/243 244/322/244
f 242/320/242 237/315/237 240/318/240 243/321/243
f 245/323/245 246/324/246 247/325/247 248/326/248
f 246/324/246 241/319/241 244/322/244 247/325/247
f 249/327/249 250/328/250 251/329/251 252/330/252
f 250/328/250 245/323/245 248/326/248 251/329/251
f 187/265/187 253/331/253 254/332/254 188/266/188
f 253/331/253 249/327/249 252/330/252 254/332/254
f 187/265/187 184/262/184 255/333/255 256/334/256
f 184/262/184 183/261/183 257/335/257 255/333/255
f 258/336/258 259/337/259 255/333/255 257/335/257
f 259/337/259 260/338/260 256/334/256 255/333/255
f 183/261/183 190/268/190 261/339/261 257/335/257
f 190/268/190 189/267/189 262/340/262 261/339/261
f 263/341/263 264/342/264 261/339/261 262/340/262
f 264/342/264 258/336/258 257/335/257 261/339/261
f 189/267/189 194/272/194 265/343/265 262/340/262
f 194/272/194 193/271/193 266/344/266 265/343/265
f 267/345/267 268/346/268 265/343/265 266/344/266
f 268/346/268 263/341/263 262/340/262 265/343/265
f 193/271/193 198/276/198 269/347/269 266/344/266
f 198/276/198 197/275/197 270/348/270 269/347/269
f 271/349/271 272/350/272 269/347/269 270/348/270
f 272/350/272 267/345/267 266/344/266 269/347/269
f 197/275/197 202/280/202 273/351/273 270/348/270
f 202/280/202 201/279/201 274/352/274 273/351/273
f 275/353/275 276/354/276 273/351/273 274/352/274
f 276/354/276 271/349/271 270/348/270 273/351/273
f 201/279/201 206/284/206 277/355/277 274/352/274
f 206/284/206 205/283/205 278/356/278 277/355/277
f 279/357/279 280/358/280 277/355/277 278/356/278
f 280/358/280 275/353/275 274/352/274 277/355/277
f 205/283/205 210/288/210 281/359/281 278/356/278
f 210/288/210 209/287/209 282/360/282 281/359/281
f 283/361/283 284/362/284 281/359/281 282/360/282
f 284/362/284 279/357/279 278/356/278 281/359/281
f 209/287/209 214/292/214 285/363/285 282/360/282
f 214/292/214 213/291/213 286/364/286 285/363/285
f 287/365/287 288/366/288 285/363/285 286/364/286
f 288/366/288 283/361/283 282/360/282 285/363/285
f 213/291/213 218/296/218 289/367/289 286/364/286
f 218/296/218 217/295/217 290/368/290 289/367/289
f 291/369/291 292/370/292 289/367/289 290/368/290
f 292/370/292 287/365/287 286/364/286 289/367/289
f 217/295/217 222/300/222 293/371/293 290/368/290
f 222/300/222 221/299/221 294/372/294 293/371/293
f 295/373/295 296/374/296 293/371/293 294/372/294
f 296/374/296 291/369/291 290/368/290 293/371/293
f 221/299/221 226/304/226 297/375/297 294/372/294
f 226/304/226 225/303/225 298/376/298 297/375/297
f 299/377/299 300/378/300 297/375/297 298/376/298
f 300/378/300 295/373/295 294/372/294 297/375/297
f 225/303/225 230/308/230 301/379/301 298/376/298
f 230/308/230 229/307/229 302/380/302 301/379/301
f 303/381/303 304/382/304 301/379/301 302/380/302
f 304/382/304 299/377/299 298/376/298 301/379/301
f 229/307/229 234/312/234 305/383/305 302/380/302
f 234/312/234 233/311/233 306/384/306 305/383/305
f 307/385/307 308/386/308 305/383/305 306/384/306
f 308/386/308 303/381/303 302/380/302 305/383/305
f 233/311/233 238/316/238 309/387/309 306/384/306
f 238/316/238 237/315/237 310/388/310 309/387/309
f 311/389/311 312/390/312 309/387/309 310/388/310
f 312/390/312 307/385/307 306/384/306 309/387/309
f 237/315/237 242/320/242 313/391/313 310/388/310
f 242/320/242 241/319/241 314/392/314 313/391/313
f 315/393/315 316/394/316 313/391/313 314/392/314
f 316/394/316 311/389/311 310/388/310 313/391/313
f 241/319/241 246/324/246 317/395/317 314/392/314
f 246/324/246 245/323/245 318/396/318 317/395/317
f 319/397/319 320/398/320 317/395/317 318/396/318
f 320/398/320 315/393/315 314/392/314 317/395/317
f 245/323/245 250/328/250 321/399/321 318/396/318
f 250/328/250 249/327/249 322/400/322 321/399/321
f 323/401/323 324/402/324 321/399/321 322/400/322
f 324/402/324 319/397/319 318/396/318 321/399/321
f 249/327/249 253/331/253 325/403/325 322/400/322
f 253/331/253 187/265/187 256/334/256 325/403/325
f 260/338/260 326/404/326 325/403/325 256/334/256
f 326/404/326 323/401/323 322/400/322 325/403/325
f 260/338/260 259/337/259 327/405/327 328/406/328
f 259/337/259 258/336/258 329/407/329 327/405/327
f 330/408/330 331/409/331 327/405/327 329/407/329
f 331/409/331 332/410/332 328/406/328 327/405/327
f 258/336/258 264/342/264 333/411/333 329/407/329
f 264/342/264 263/341/263 334/412/334 333/411/333
f 335/413/335 336/414/336 333/411/333 334/412/334
f 336/414/336 330/408/330 329/407/329 333/411/333
f 263/341/263 268/346/268 337/415/337 334/412/334
f 268/346/268 267/345/267 338/416/338 337/415/337
f 339/417/339 340/418/340 337/415/337 338/416/338
f 340/418/340 335/413/335 334/412/334 337/415/337
f 267/345/267 272/350/272 341/419/341 338/416/338
f 272/350/272 271/349/271 342/420/342 341/419/341
f 343/421/343 344/422/344 341/419/341 342/420/342
f 344/422/344 339/417/339 338/416/338 341/419/341
f 271/349/271 276/354/276 345/423/345 342/420/342
f 276/354/276 275/353/275 346/424/346 345/423/345
f 347/425/347 348/426/348 345/423/345 346/424/346
f 348/426/348 343/421/343 342/420/342 345/423/345
f 275/353/275 280/358/280 349/427/349 346/424/346
f 280/358/280 279/357/279 350/428/350 349/427/349
f 351/429/351 352/430/352 349/427/349 350/428/350
f 352/430/352 347/425/347 346/424/346 349/427/349
f 279/357/279 284/362/284 353/431/353 350/428/350
f 284/362/284 283/361/283 354/432/354 353/431/353
f 355/433/355 356/434/356 353/431/353 354/432/354
f 356/434/356 351/429/351 350/428/350 353/431/353
f 283/361/283 288/366/288 357/435/357 354/432/354
f 288/366/288 287/365/287 358/436/358 357/435/357
f 359/437/359 360/438/360 357/435/357 358/436/358
f 360/438/360 355/433/355 354/432/354 357/435/357
f 287/365/287 292/370/292 361/439/361 358/436/358
f 292/370/292 291/369/291 362/440/362 361/439/361
f 363/441/363 364/442/364 361/439/361 362/440/362
f 364/442/364 359/437/359 358/436/358 361/439/361
f 291/369/291 296/374/296 365/443/365 362/440/362
f 296/374/296 295/373/295 366/444/366 365/443/365
f 367/445/367 368/446/368 365/443/365 366/444/366
f 368/446/368 363/441/363 362/440/362 365/443/365
f 295/373/295 300/378/300 369/447/369 366/444/366
f 300/378/300 299/377/299 370/448/370 369/447/369
f 371/449/371 372/450/372 369/447/369 370/448/370
f 372/450/372 367/445/367 366/444/366 369/447/369
f 299/377/299 304/382/304 373/451/373 370/448/370
f 304/382/304 303/381/303 374/452/374 373/451/373
f 375/453/375 376/454/376 373/451/373 374/452/374
f 376/454/376 371/449/371 370/448/370 373/451/373
f 303/381/303 308/386/308 377/455/377 374/452/374
f 308/386/308 307/385/307 378/456/378 377/455/377
f 379/457/379 380/458/380 377/455/377 378/456/378
f 380/458/380 375/453/375 374/452/374 377/455/377
f 307/385/307 312/390/312 381/459/381 378/456/378
f 312/390/312 311/389/311 382/460/382 381/459/381
f 383/461/383 384/462/384 381/459/381 382/460/382
f 384/462/384 379/457/379 378/456/378 381/459/381
f 311/389/311 316/394/316 385/463/385 382/460/382
f 316/394/316 315/393/315 386/464/386 385/463/385
f 387/465/387 388/466/388 385/463/385 386/464/386
f 388/466/388 383/461/383 382/460/382 385/463/385
f 315/393/315 320/398/320 389/467/389 386/464/386
f 320/398/320 319/397/319 390/468/390 389/467/389
f 391/469/391 392/470/392 389/467/389 390/468/390
f 392/470/392 387/465/387 386/464/386 389/467/389
f 319/397/319 324/402/324 393/471/393 390/468/390
f 324/402/324 323/401/323 394/472/394 393/471/393
f 395/473/395 396/474/396 393/471/393 394/472/394
f 396/474/396 391/469/391 390/468/390 393/471/393
f 323/401/323 326/404/326 397/475/397 394/472/394
f 326/404/326 260/338/260 328/406/328 397/475/397
f 332/410/332 398/476/398 397/475/397 328/406/328
f 398/476/398 395/473/395 394/472/394 397/475/397
f 399/477/399 400/478/400 331/409/331 330/408/330
f 400/478/400 401/479/401 332/410/332 331/409/331
f 402/480/402 403/481/403 336/414/336 335/413/335
f 403/481/403 399/477/399 330/408/330 336/414/336
f 404/482/404 405/483/405 340/418/340 339/417/339
f 405/483/405 402/480/402 335/413/335 340/418/340
f 406/484/406 407/485/407 344/422/344 343/421/343
f 407/485/407 404/482/404 339/417/339 344/422/344
f 408/486/408 409/487/409 348/426/348 347/425/347
f 409/487/409 406/484/406 343/421/343 348/426/348
f 410/488/410 411/489/411 352/430/352 351/429/351
f 411/489/411 408/486/408 347/425/347 352/430/352
f 412/490/412 413/491/413 356/434/356 355/433/355
f 413/491/413 410/488/410 351/429/351 356/434/356
f 414/492/414 415/493/415 360/438/360 359/437/359
f 415/493/415 412/490/412 355/433/355 360/438/360
f 416/494/416 417/495/417 364/442/364 363/441/363
f 417/495/417 414/492/414 359/437/359 364/442/364
f 418/496/418 419/497/419 368/446/368 367/445/367
f 419/497/419 416/494/416 363/441/363 368/446/368
f 420/498/420 421/499/421 372/450/372 371/449/371
f 421/499/421 418/496/418 367/445/367 372/450/372
f 422/500/422 423/501/423 376/454/376 375/453/375
f 423/501/423 420/498/420 371/449/371 376/454/376
f 424/502/424 425/503/425 380/458/380 379/457/379
f 425/503/425 422/500/422 375/453/375 380/458/380
f 426/504/426 427/505/427 384/462/384 383/461/383
f 427/505/427 424/502/424 379/457/379 384/462/384
f 428/506/428 429/507/429 388/466/388 387/465/387
f 429/507/429 426/504/426 383/461/383 388/466/388
f 430/508/430 431/509/431 392/470/392 391/469/391
f 431/509/431 428/506/428 387/465/387 392/470/392
f 432/510/432 433/511/433 396/474/396 395/473/395
f 433/511/433 430/508/430 391/469/391 396/474/396
f 401/479/401 434/512/434 398/476/398 332/410/332
f 434/512/434 432/510/432 395/473/395 398/476/398
f 401/479/401 400/478/400 435/513/435 436/514/436
f 400/478/400 399/477/399 437/515/437 435/513/435
f 438/516/438 439/517/439 435/518/435 437/519/437
f 439/517/439 440/520/440 436/521/436 435/518/435
f 399/477/399 403/481/403 441/522/441 437/515/437
f 403/481/403 402/480/402 442/523/442 441/522/441
f 443/524/443 444/525/444 441/526/441 442/527/442
f 444/525/444 438/516/438 437/519/437 441/526/441
f 402/480/402 405/483/405 445/528/445 442/523/442
f 405/483/405 404/482/404 446/529/446 445/528/445
f 447/530/447 448/531/448 445/532/445 446/533/446
f 448/531/448 443/524/443 442/527/442 445/532/445
f 404/482/404 407/485/407 449/534/449 446/529/446
f 407/485/407 406/484/406 450/535/450 449/534/449
f 451/536/451 452/537/452 449/538/449 450/539/450
f 452/537/452 447/530/447 446/533/446 449/538/449
f 406/484/406 409/487/409 453/540/453 450/535/450
f 409/487/409 408/486/408 454/541/454 453/540/453
f 455/542/455 456/543/456 453/544/453 454/545/454
f 456/543/456 451/536/451 450/539/450 453/544/453
f 408/486/408 411/489/411 457/546/457 454/541/454
f 411/489/411 410/488/410 458/547/458 457/546/457
f 459/548/459 460/549/460 457/550/457 458/551/458
f 460/549/460 455/542/455 454/545/454 457/550/457
f 410/488/410 413/491/413 461/552/461 458/547/458
f 413/491/413 412/490/412 462/553/462 461/552/461
f 463/554/463 464/555/464 461/556/461 462/557/462
f 464/555/464 459/548/459 458/551/458 461/556/461
f 412/490/412 415/493/415 465/558/465 462/553/462
f 415/493/415 414/492/414 466/559/466 465/558/465
f 467/560/467 468/561/468 465/562/465 466/563/466
f 468/561/468 463/554/463 462/557/462 465/562/465
f 414/492/414 417/495/417 469/564/469 466/559/466
f 417/495/417 416/494/416 470/565/470 469/564/469
f 471/566/471 472/567/472 469/568/469 470/569/470
f 472/567/472 467/560/467 466/563/466 469/568/469
f 416/494/416 419/497/419 473/570/473 470/565/470
f 419/497/419 418/496/418 474/571/474 473/570/473
f 475/572/475 476/573/476 473/574/473 474/575/474
f 476/573/476 471/566/471 470/569/470 473/574/473
f 418/496/418 421/499/421 477/576/477 474/571/474
f 421/499/421 420/498/420 478/577/478 477/576/477
f 479/578/479 480/579/480 477/580/477 478/581/478
f 480/579/480 475/572/475 474/575/474 477/580/477
f 420/498/420 423/501/423 481/582/481 478/577/478
f 423/501/423 422/500/422 482/583/482 481/582/481
f 483/584/483 484/585/484 481/586/481 482/587/482
f 484/585/484 479/578/479 478/581/478 481/586/481
f 422/500/422 425/503/425 485/588/485 482/583/482
f 425/503/425 424/502/424 486/589/486 485/588/485
f 487/590/487 488/591/488 485/592/485 486/593/486
f 488/591/488 483/584/483 482/587/482 485/592/485
f 424/502/424 427/505/427 489/594/489 486/589/486
f 427/505/427 426/504/426 490/595/490 489/594/489
f 491/596/491 492/597/492 489/598/489 490/599/490
f 492/597/492 487/590/487 486/593/486 489/598/489
f 426/504/426 429/507/429 493/600/493 490/595/490
f 429/507/429 428/506/428 494/601/494 493/600/493
f 495/602/495 496/603/496 493/604/493 494/605/494
f 496/603/496 491/596/491 490/599/490 493/604/493
f 428/506/428 431/509/431 497/606/497 494/601/494
f 431/509/431 430/508/430 498/607/498 497/606/497
f 499/608/499 500/609/500 497/610/497 498/611/498
f 500/609/500 495/602/495 494/605/494 497/610/497
f 430/508/430 433/511/433 501/612/501 498/607/498
f 433/511/433 432/510/432 502/613/502 501/612/501
f 503/614/503 504/615/504 501/616/501 502/617/502
f 504/615/504 499/608/499 498/611/498 501/616/501
f 432/510/432 434/512/434 505/618/505 502/613/502
f 434/512/434 401/479/401 436/514/436 505/618/505
f 440/520/440 506/619/506 505/620/505 436/521/436
f 506/619/506 503/614/503 502/617/502 505/620/505
f 507/621/507 508/622/508 509/623/509 510/624/510
f 508/622/508 511/625/511 512/626/512 509/623/509
f 25/49/25 22/46/22 509/623/509 512/626/512
f 22/46/22 21/45/21 510/624/510 509/623/509
f 511/625/511 513/627/513 514/628/514 512/626/512
f 513/629/513 186/264/186 515/630/515 514/631/514
f 27/51/27 26/54/26 514/631/514 515/630/515
f 26/50/26 25/49/25 512/626/512 514/628/514
f 186/264/186 185/263/185 516/632/516 515/630/515
f 185/263/185 188/266/188 517/633/517 516/632/516
f 29/55/29 28/52/28 516/632/516 517/633/517
f 28/52/28 27/51/27 515/630/515 516/632/516
f 188/266/188 518/634/518 519/635/519 517/633/517
f 518/636/518 507/621/507 510/624/510 519/637/519
f 21/45/21 24/48/24 519/637/519 510/624/510
f 24/56/24 29/55/29 517/633/517 519/635/519
f 511/625/511 520/638/520 521/639/521 522/640/522
f 520/638/520 523/641/523 524/642/524 521/639/521
f 34/61/34 31/58/31 521/639/521 524/642/524
f 31/58/31 30/57/30 522/640/522 521/639/521
f 523/641/523 525/643/525 526/644/526 524/642/524
f 525/645/525 192/270/192 527/646/527 526/647/526
f 36/63/36 35/66/35 526/647/526 527/646/527
f 35/62/35 34/61/34 524/642/524 526/644/526
f 192/270/192 191/269/191 528/648/528 527/646/527
f 191/269/191 186/264/186 529/649/529 528/648/528
f 38/67/38 37/64/37 528/648/528 529/649/529
f 37/64/37 36/63/36 527/646/527 528/648/528
f 186/264/186 513/629/513 530/650/530 529/649/529
f 513/627/513 511/625/511 522/640/522 530/651/530
f 30/57/30 33/60/33 530/651/530 522/640/522
f 33/68/33 38/67/38 529/649/529 530/650/530
f 523/641/523 531/652/531 532/653/532 533/654/533
f 531/652/531 534/655/534 535/656/535 532/653/532
f 43/73/43 40/70/40 532/653/532 535/656/535
f 40/70/40 39/69/39 533/654/533 532/653/532
f 534/655/534 536/657/536 537/658/537 535/656/535
f 536/659/536 196/274/196 538/660/538 537/661/537
f 45/75/45 44/78/44 537/661/537 538/660/538
f 44/74/44 43/73/43 535/656/535 537/658/537
f 196/274/196 195/273/195 539/662/539 538/660/538
f 195/273/195 192/270/192 540/663/540 539/662/539
f 47/79/47 46/76/46 539/662/539 540/663/540
f 46/76/46 45/75/45 538/660/538 539/662/539
f 192/270/192 525/645/525 541/664/541 540/663/540
f 525/643/525 523/641/523 533/654/533 541/665/541
f 39/69/39 42/72/42 541/665/541 533/654/533
f 42/80/42 47/79/47 540/663/540 541/664/541
f 534/655/534 542/666/542 543/667/543 544/668/544
f 542/666/542 545/669/545 546/670/546 543/667/543
f 52/85/52 49/82/49 543/667/543 546/670/546
f 49/82/49 48/81/48 544/668/544 543/667/543
f 545/669/545 547/671/547 548/672/548 546/670/546
f 547/673/547 200/278/200 549/674/549 548/675/548
f 54/87/54 53/90/53 548/675/548 549/674/549
f 53/86/53 52/85/52 546/670/546 548/672/548
f 200/278/200 199/277/199 550/676/550 549/674/549
f 199/277/199 196/274/196 551/677/551 550/676/550
f 56/91/56 55/88/55 550/676/550 551/677/551
f 55/88/55 54/87/54 549/674/549 550/676/550
f 196/274/196 536/659/536 552/678/552 551/677/551
f 536/657/536 534/655/534 544/668/544 552/679/552
f 48/81/48 51/84/51 552/679/552 544/668/544
f 51/92/51 56/91/56 551/677/551 552/678/552
f 545/669/545 553/680/553 554/681/554 555/682/555
f 553/680/553 556/683/556 557/684/557 554/681/554
f 61/97/61 58/94/58 554/681/554 557/684/557
f 58/94/58 57/93/57 555/682/555 554/681/554
f 556/683/556 558/685/558 559/686/559 557/684/557
f 558/687/558 204/282/204 560/688/560 559/689/559
f 63/99/63 62/102/62 559/689/559 560/688/560
f 62/98/62 61/97/61 557/684/557 559/686/559
f 204/282/204 203/281/203 561/690/561 560/688/560
f 203/281/203 200/278/200 562/691/562 561/690/561
f 65/103/65 64/100/64 561/690/561 562/691/562
f 64/100/64 63/99/63 560/688/560 561/690/561
f 200/278/200 547/673/547 563/692/563 562/691/562
f 547/671/547 545/669/545 555/682/555 563/693/563
f 57/93/57 60/96/60 563/693/563 555/682/555
f 60/104/60 65/103/65 562/691/562 563/692/563
f 556/683/556 564/694/564 565/695/565 566/696/566
f 564/694/564 567/697/567 568/698/568 565/695/565
f 70/109/70 67/106/67 565/695/565 568/698/568
f 67/106/67 66/105/66 566/696/566 565/695/565
f 567/697/567 569/699/569 570/700/570 568/698/568
f 569/701/569 208/286/208 571/702/571 570/703/570
f 72/111/72 71/114/71 570/703/570 571/702/571
f 71/110/71 70/109/70 568/698/568 570/700/570
f 208/286/208 207/285/207 572/704/572 571/702/571
f 207/285/207 204/282/204 573/705/573 572/704/572
f 74/115/74 73/112/73 572/704/572 573/705/573
f 73/112/73 72/111/72 571/702/571 572/704/572
f 204/282/204 558/687/558 574/706/574 573/705/573
f 558/685/558 556/683/556 566/696/566 574/707/574
f 66/105/66 69/108/69 574/707/574 566/696/566
f 69/116/69 74/115/74 573/705/573 574/706/574
f 567/697/567 575/708/575 576/709/576 577/710/577
f 575/708/575 578/711/578 579/712/579 576/709/576
f 79/121/79 76/118/76 576/709/576 579/712/579
f 76/118/76 75/117/75 577/710/577 576/709/576
f 578/711/578 580/713/580 581/714/581 579/712/579
f 580/715/580 212/290/212 582/716/582 581/717/581
f 81/123/81 80/126/80 581/717/581 582/716/582
f 80/122/80 79/121/79 579/712/579 581/714/581
f 212/290/212 211/289/211 583/718/583 582/716/582
f 211/289/211 208/286/208 584/719/584 583/718/583
f 83/127/83 82/124/82 583/718/583 584/719/584
f 82/124/82 81/123/81 582/716/582 583/718/583
f 208/286/208 569/701/569 585/720/585 584/719/584
f 569/699/569 567/697/567 577/710/577 585/721/585
f 75/117/75 78/120/78 585/721/585 577/710/577
f 78/128/78 83/127/83 584/719/584 585/720/585
f 578/711/578 586/722/586 587/723/587 588/724/588
f 586/722/586 589/725/589 590/726/590 587/723/587
f 88/133/88 85/130/85 587/723/587 590/726/590
f 85/130/85 84/129/84 588/724/588 587/723/587
f 589/725/589 591/727/591 592/728/592 590/726/590
f 591/729/591 216/294/216 593/730/593 592/731/592
f 90/135/90 89/138/89 592/731/592 593/730/593
f 89/134/89 88/133/88 590/726/590 592/728/592
f 216/294/216 215/293/215 594/732/594 593/730/593
f 215/293/215 212/290/212 595/733/595 594/732/594
f 92/139/92 91/136/91 594/732/594 595/733/595
f 91/136/91 90/135/90 593/730/593 594/732/594
f 212/290/212 580/715/580 596/734/596 595/733/595
f 580/713/580 578/711/578 588/724/588 596/735/596
f 84/129/84 87/132/87 596/735/596 588/724/588
f 87/140/87 92/139/92 595/733/595 596/734/596
f 589/725/589 597/736/597 598/737/598 599/738/599
f 597/736/597 600/739/600 601/740/601 598/737/598
f 97/145/97 94/142/94 598/737/598 601/740/601
f 94/142/94 93/141/93 599/738/599 598/737/598
f 600/739/600 602/741/602 603/742/603 601/740/601
f 602/743/602 220/298/220 604/744/604 603/745/603
f 99/147/99 98/150/98 603/745/603 604/744/604
f 98/146/98 97/145/97 601/740/601 603/742/603
f 220/298/220 219/297/219 605/746/605 604/744/604
f 219/297/219 216/294/216 606/747/606 605/746/605
f 101/151/101 100/148/100 605/746/605 606/747/606
f 100/148/100 99/147/99 604/744/604 605/746/605
f 216/294/216 591/729/591 607/748/607 606/747/606
f 591/727/591 589/725/589 599/738/599 607/749/607
f 93/141/93 96/144/96 607/749/607 599/738/599
f 96/152/96 101/151/101 606/747/606 607/748/607
f 600/739/600 608/750/608 609/751/609 610/752/610
f 608/750/608 611/753/611 612/754/612 609/751/609
f 106/157/106 103/154/103 609/751/609 612/754/612
f 103/154/103 102/153/102 610/752/610 609/751/609
f 611/753/611 613/755/613 614/756/614 612/754/612
f 613/757/613 224/302/224 615/758/615 614/759/614
f 108/159/108 107/162/107 614/759/614 615/758/615
f 107/158/107 106/157/106 612/754/612 614/756/614
f 224/302/224 223/301/223 616/760/616 615/758/615
f 223/301/223 220/298/220 617/761/617 616/760/616
f 110/163/110 109/160/109 616/760/616 617/761/617
f 109/160/109 108/159/108 615/758/615 616/760/616
f 220/298/220 602/743/602 618/762/618 617/761/617
f 602/741/602 600/739/600 610/752/610 618/763/618
f 102/153/102 105/156/105 618/763/618 610/752/610
f 105/164/105 110/163/110 617/761/617 618/762/618
f 611/753/611 619/764/619 620/765/620 621/766/621
f 619/764/619 622/767/622 623/768/623 620/765/620
f 115/169/115 112/166/112 620/765/620 623/768/623
f 112/166/112 111/165/111 621/766/621 620/765/620
f 622/767/622 624/769/624 625/770/625 623/768/623
f 624/771/624 228/306/228 626/772/626 625/773/625
f 117/171/117 116/174/116 625/773/625 626/772/626
f 116/170/116 115/169/115 623/768/623 625/770/625
f 228/306/228 227/305/227 627/774/627 626/772/626
f 227/305/227 224/302/224 628/775/628 627/774/627
f 119/175/119 118/172/118 627/774/627 628/775/628
f 118/172/118 117/171/117 626/772/626 627/774/627
f 224/302/224 613/757/613 629/776/629 628/775/628
f 613/755/613 611/753/611 621/766/621 629/777/629
f 111/165/111 114/168/114 629/777/629 621/766/621
f 114/176/114 119/175/119 628/775/628 629/776/629
f 622/767/622 630/778/630 631/779/631 632/780/632
f 630/778/630 633/781/633 634/782/634 631/779/631
f 124/181/124 121/178/121 631/779/631 634/782/634
f 121/178/121 120/177/120 632/780/632 631/779/631
f 633/781/633 635/783/635 636/784/636 634/782/634
f 635/785/635 232/310/232 637/786/637 636/787/636
f 126/183/126 125/186/125 636/787/636 637/786/637
f 125/182/125 124/181/124 634/782/634 636/784/636
f 232/310/232 231/309/231 638/788/638 637/786/637
f 231/309/231 228/306/228 639/789/639 638/788/638
f 128/187/128 127/184/127 638/788/638 639/789/639
f 127/184/127 126/183/126 637/786/637 638/788/638
f 228/306/228 624/771/624 640/790/640 639/789/639
f 624/769/624 622/767/622 632/780/632 640/791/640
f 120/177/120 123/180/123 640/791/640 632/780/632
f 123/188/123 128/187/128 639/789/639 640/790/640
f 633/781/633 641/792/641 642/793/642 643/794/643
f 641/792/641 644/795/644 645/796/645 642/793/642
f 133/193/133 130/190/130 642/793/642 645/796/645
f 130/190/130 129/189/129 643/794/643 642/793/642
f 644/795/644 646/797/646 647/798/647 645/796/645
f 646/799/646 236/314/236 648/800/648 647/801/647
f 135/195/135 134/198/134 647/801/647 648/800/648
f 134/194/134 133/193/133 645/796/645 647/798/647
f 236/314/236 235/313/235 649/802/649 648/800/648
f 235/313/235 232/310/232 650/803/650 649/802/649
f 137/199/137 136/196/136 649/802/649 650/803/650
f 136/196/136 135/195/135 648/800/648 649/802/649
f 232/310/232 635/785/635 651/804/651 650/803/650
f 635/783/635 633/781/633 643/794/643 651/805/651
f 129/189/129 132/192/132 651/805/651 643/794/643
f 132/200/132 137/199/137 650/803/650 651/804/651
f 644/795/644 652/806/652 653/807/653 654/808/654
f 652/806/652 655/809/655 656/810/656 653/807/653
f 142/205/142 139/202/139 653/807/653 656/810/656
f 139/202/139 138/201/138 654/808/654 653/807/653
f 655/809/655 657/811/657 658/812/658 656/810/656
f 657/813/657 240/318/240 659/814/659 658/815/658
f 144/207/144 143/210/143 658/815/658 659/814/659
f 143/206/143 142/205/142 656/810/656 658/812/658
f 240/318/240 239/317/239 660/816/660 659/814/659
f 239/317/239 236/314/236 661/817/661 660/816/660
f 146/211/146 145/208/145 660/816/660 661/817/661
f 145/208/145 144/207/144 659/814/659 660/816/660
f 236/314/236 646/799/646 662/818/662 661/817/661
f 646/797/646 644/795/644 654/808/654 662/819/662
f 138/201/138 141/204/141 662/819/662 654/808/654
f 141/212/141 146/211/146 661/817/661 662/818/662
f 655/809/655 663/820/663 664/821/664 665/822/665
f 663/820/663 666/823/666 667/824/667 664/821/664
f 151/217/151 148/214/148 664/821/664 667/824/667
f 148/214/148 147/213/147 665/822/665 664/821/664
f 666/823/666 668/825/668 669/826/669 667/824/667
f 668/827/668 244/322/244 670/828/670 669/829/669
f 153/219/153 152/222/152 669/829/669 670/828/670
f 152/218/152 151/217/151 667/824/667 669/826/669
f 244/322/244 243/321/243 671/830/671 670/828/670
f 243/321/243 240/318/240 672/831/672 671/830/671
f 155/223/155 154/220/154 671/830/671 672/831/672
f 154/220/154 153/219/153 670/828/670 671/830/671
f 240/318/240 657/813/657 673/832/673 672/831/672
f 657/811/657 655/809/655 665/822/665 673/833/673
f 147/213/147 150/216/150 673/833/673 665/822/665
f 150/224/150 155/223/155 672/831/672 673/832/673
f 666/823/666 674/834/674 675/835/675 676/836/676
f 674/834/674 677/837/677 678/838/678 675/835/675
f 160/229/160 157/226/157 675/835/675 678/838/678
f 157/226/157 156/225/156 676/836/676 675/835/675
f 677/837/677 679/839/679 680/840/680 678/838/678
f 679/841/679 248/326/248 681/842/681 680/843/680
f 162/231/162 161/234/161 680/843/680 681/842/681
f 161/230/161 160/229/160 678/838/678 680/840/680
f 248/326/248 247/325/247 682/844/682 681/842/681
f 247/325/247 244/322/244 683/845/683 682/844/682
f 164/235/164 163/232/163 682/844/682 683/845/683
f 163/232/163 162/231/162 681/842/681 682/844/682
f 244/322/244 668/827/668 684/846/684 683/845/683
f 668/825/668 666/823/666 676/836/676 684/847/684
f 156/225/156 159/228/159 684/847/684 676/836/676
f 159/236/159 164/235/164 683/845/683 684/846/684
f 677/837/677 685/848/685 686/849/686 687/850/687
f 685/848/685 688/851/688 689/852/689 686/849/686
f 169/241/169 166/238/166 686/849/686 689/852/689
f 166/238/166 165/237/165 687/850/687 686/849/686
f 688/851/688 690/853/690 691/854/691 689/852/689
f 690/855/690 252/330/252 692/856/692 691/857/691
f 171/243/171 170/246/170 691/857/691 692/856/692
f 170/242/170 169/241/169 689/852/689 691/854/691
f 252/330/252 251/329/251 693/858/693 692/856/692
f 251/329/251 248/326/248 694/859/694 693/858/693
f 173/247/173 172/244/172 693/858/693 694/859/694
f 172/244/172 171/243/171 692/856/692 693/858/693
f 248/326/248 679/841/679 695/860/695 694/859/694
f 679/839/679 677/837/677 687/850/687 695/861/695
f 165/237/165 168/240/168 695/861/695 687/850/687
f 168/248/168 173/247/173 694/859/694 695/860/695
f 688/851/688 696/862/696 697/863/697 698/864/698
f 696/862/696 507/621/507 699/865/699 697/863/697
f 178/253/178 175/250/175 697/863/697 699/865/699
f 175/250/175 174/249/174 698/864/698 697/863/697
f 507/621/507 518/636/518 700/866/700 699/865/699
f 518/634/518 188/266/188 701/867/701 700/868/700
f 180/255/180 179/258/179 700/868/700 701/867/701
f 179/254/179 178/253/178 699/865/699 700/866/700
f 188/266/188 254/332/254 702/869/702 701/867/701
f 254/332/254 252/330/252 703/870/703 702/869/702
f 182/259/182 181/256/181 702/869/702 703/870/703
f 181/256/181 180/255/180 701/867/701 702/869/702
f 252/330/252 690/855/690 704/871/704 703/870/703
f 690/853/690 688/851/688 698/864/698 704/872/704
f 174/249/174 177/252/177 704/872/704 698/864/698
f 177/260/177 182/259/182 703/870/703 704/871/704
f 439/873/439 438/874/438 705/875/705 706/876/706
f 440/877/440 439/873/439 706/876/706 707/878/707
f 444/879/444 443/880/443 708/881/708 709/882/709
f 438/874/438 444/879/444 709/882/709 705/875/705
f 448/883/448 447/884/447 710/885/710 711/886/711
f 443/880/443 448/883/448 711/886/711 708/881/708
f 452/887/452 451/888/451 712/889/712 713/890/713
f 447/884/447 452/887/452 713/890/713 710/885/710
f 456/891/456 455/892/455 714/893/714 715/894/715
f 451/888/451 456/891/456 715/894/715 712/889/712
f 460/895/460 459/896/459 716/897/716 717/898/717
f 455/892/455 460/895/460 717/898/717 714/893/714
f 464/899/464 463/900/463 718/901/718 719/902/719
f 459/896/459 464/899/464 719/902/719 716/897/716
f 468/903/468 467/904/467 720/905/720 721/906/721
f 463/900/463 468/903/468 721/906/721 718/901/718
f 472/907/472 471/908/471 722/909/722 723/910/723
f 467/904/467 472/907/472 723/910/723 720/905/720
f 476/911/476 475/912/475 724/913/724 725/914/725
f 471/908/471 476/911/476 725/914/725 722/909/722
f 480/915/480 479/916/479 726/917/726 727/918/727
f 475/912/475 480/915/480 727/918/727 724/913/724
f 484/919/484 483/920/483 728/921/728 729/922/729
f 479/916/479 484/919/484 729/922/729 726/917/726
f 488/923/488 487/924/487 730/925/730 731/926/731
f 483/920/483 488/923/488 731/926/731 728/921/728
f 492/927/492 491/928/491 732/929/732 733/930/733
f 487/924/487 492/927/492 733/930/733 730/925/730
f 496/931/496 495/932/495 734/933/734 735/934/735
f 491/928/491 496/931/496 735/934/735 732/929/732
f 500/935/500 499/936/499 736/937/736 737/938/737
f 495/932/495 500/935/500 737/938/737 734/933/734
f 504/939/504 503/940/503 738/941/738 739/942/739
f 499/936/499 504/939/504 739/942/739 736/937/736
f 506/943/506 440/877/440 707/878/707 740/944/740
f 503/940/503 506/943/506 740/944/740 738/941/738
f 734/945/734 737/946/737 743/947/741
f 743/948/741 737/949/737 736/950/736
f 742/951/742 724/952/724 727/950/727
f 725/953/725 724/954/724 742/955/742
f 720/956/720 723/957/723 741/950/743
f 720/958/720 741/959/743 721/960/721
usemtl fotito
f 744/961/744 745/962/744 746/963/744 747/964/744
usemtl vidrio_cuadrito
f 748/965/744 749/966/744 750/967/744 751/968/744
