# Blender 4.4.0
# www.blender.org
mtllib layoutUpdated.mtl
o layout
v 6.025418 3.348679 4.995657
v 4.995657 3.348679 6.025417
v 4.995657 3.348679 -6.025418
v 6.025418 3.348679 -4.995657
v -6.025417 3.348679 -4.995657
v -4.995657 3.348679 -6.025418
v -6.025417 3.348679 4.995657
v -4.995657 3.348679 6.025417
v -4.995657 -5.104790 6.025417
v -6.025417 -5.104790 4.995657
v -6.025418 6.689175 3.330438
v -3.330438 6.689175 6.025418
v -6.025417 -5.104790 -4.995657
v -4.995657 -5.104790 -6.025418
v -3.330438 6.689175 -6.025418
v -6.025418 6.689175 -3.330438
v 6.025418 -5.104790 4.995657
v 4.995657 -5.104790 6.025417
v 3.330438 6.689175 6.025418
v 6.025418 6.689175 3.330438
v 4.995657 -5.104790 -6.025418
v 6.025418 -5.104790 -4.995657
v 6.025418 6.689175 -3.330438
v 3.330438 6.689175 -6.025418
v 4.995658 -5.104790 -29.968216
v 4.995658 3.348680 -29.968216
v -4.995658 3.348680 -29.968216
v -4.995658 -5.104790 -29.968216
v 29.968216 -5.104790 4.995658
v 29.968216 3.348680 4.995658
v 29.968216 3.348680 -4.995658
v 29.968216 -5.104790 -4.995658
v -4.995658 -5.104790 29.968216
v -4.995658 3.348680 29.968216
v 4.995658 3.348680 29.968216
v 4.995658 -5.104790 29.968216
v -29.968216 -5.104790 -4.995658
v -29.968216 3.348680 -4.995658
v -29.968216 3.348680 4.995658
v -29.968216 -5.104790 4.995658
v -6.675025 3.656559 6.709129
v -6.709129 3.656559 6.675025
v -6.675025 3.656559 -6.709130
v -6.709129 3.656559 -6.675025
v 6.675025 3.656559 6.709129
v 6.709130 3.656559 6.675025
v 3.708346 7.376104 6.709129
v 6.675025 -10.467126 -6.709130
v 6.675025 3.656559 -6.709130
v 6.709129 7.376104 -3.708346
v 6.709130 3.656559 -6.675025
v -6.675025 -10.467126 6.709129
v -6.709129 -10.467126 -6.675025
v -6.709129 7.376104 3.708346
v -3.708346 7.376104 -6.709129
v 6.709130 -10.467126 6.675025
v -6.709129 -10.467126 6.675025
v -3.708346 7.376104 6.709129
v -6.709129 7.376104 -3.708346
v -6.675025 -10.467126 -6.709130
v 3.708346 7.376104 -6.709129
v 6.709130 -10.467126 -6.675025
v 6.709129 7.376104 3.708346
v 6.675025 -10.467126 6.709129
v 6.675026 -10.467126 -33.368744
v 6.675026 3.656559 -33.368744
v -6.675026 3.656559 -33.368744
v -6.675026 -10.467126 -33.368744
v 33.368744 -10.467126 6.675026
v 33.368744 3.656559 6.675026
v 33.368744 3.656559 -6.675026
v 33.368744 -10.467126 -6.675026
v -6.675026 -10.467126 33.368744
v -6.675026 3.656559 33.368744
v 6.675026 3.656559 33.368744
v 6.675026 -10.467126 33.368744
v -33.368744 -10.467126 -6.675026
v -33.368744 3.656559 -6.675026
v -33.368744 3.656559 6.675026
v -33.368744 -10.467126 6.675026
vn -0.0000 -0.0000 -1.0000
vn -1.0000 -0.0000 -0.0000
vn -0.6669 -0.3324 0.6669
vn -0.6669 -0.3324 -0.6669
vn 1.0000 -0.0000 -0.0000
vn -0.0000 -0.0000 1.0000
vn 0.6669 -0.3324 -0.6669
vn 0.7071 -0.0000 0.7071
vn -0.7071 -0.0000 0.7071
vn -0.7071 -0.0000 -0.7071
vn -0.0000 1.0000 -0.0000
vn 0.6669 -0.3324 0.6669
vn 0.7071 -0.0000 -0.7071
vn -0.0000 -1.0000 -0.0000
vn 0.6159 0.4912 -0.6159
vn 0.6159 0.4912 0.6159
vn -0.6159 0.4912 0.6159
vn -0.6159 0.4912 -0.6159
vn 0.4774 0.7377 0.4774
vn 0.4774 0.7377 -0.4774
vn -0.7088 0.7054 -0.0000
vn 0.7088 0.7054 -0.0000
vn -0.0000 0.7054 0.7088
vn -0.4774 0.7377 -0.4774
vn -0.0000 0.7054 -0.7088
vn -0.4774 0.7377 0.4774
vt 0.500000 0.805909
vt 0.500000 0.944091
vt 0.625000 0.944091
vt 0.625000 0.805909
vt 0.500000 0.555909
vt 0.500000 0.694091
vt 0.625000 0.694091
vt 0.625000 0.555909
vt 0.625000 0.444091
vt 0.500000 0.444091
vt 0.500000 0.055909
vt 0.500000 0.194091
vt 0.625000 0.194091
vt 0.625000 0.055909
vt 0.500000 0.305909
vt 0.625000 0.305909
vt 0.500000 0.000000
vt 0.625000 0.000000
vt 0.375000 0.194091
vt 0.375000 0.305909
vt 0.375000 0.444091
vt 0.375000 0.555909
vt 0.375000 0.694091
vt 0.375000 0.805909
vt 0.125000 0.555909
vt 0.125000 0.694091
vt 0.180909 0.750000
vt 0.319091 0.750000
vt 0.319091 0.500000
vt 0.180909 0.500000
vt 0.375000 0.000000
vt 0.375000 0.055909
vt 0.375000 0.944091
s 0
f 2/1/1 8/2/1 12/3/1 19/4/1
f 4/5/2 1/6/2 20/7/2 23/8/2
f 23/8/3 24/9/3 3/10/3 4/5/3
f 19/4/4 20/7/4 1/6/4 2/1/4
f 7/11/5 5/12/5 16/13/5 11/14/5
f 6/15/6 3/10/6 24/9/6 15/16/6
f 8/17/7 7/11/7 11/14/7 12/18/7
f 6/15/8 5/12/8 13/19/8 14/20/8
f 4/5/9 3/10/9 21/21/9 22/22/9
f 2/1/10 1/6/10 17/23/10 18/24/10
f 13/25/11 10/26/11 9/27/11 18/28/11 17/23/11 22/22/11 21/29/11 14/30/11
f 15/16/12 16/13/12 5/12/12 6/15/12
f 9/31/13 10/32/13 7/11/13 8/17/13
f 21/29/11 25/29/11 28/30/11 14/30/11
f 5/12/6 38/12/6 37/19/6 13/19/6
f 1/6/1 30/6/1 29/23/1 17/23/1
f 8/17/5 34/17/5 33/31/5 9/31/5
f 28/20/6 25/21/6 26/10/6 27/15/6
f 6/15/14 27/15/14 26/10/14 3/10/14
f 14/20/5 28/20/5 27/15/5 6/15/5
f 3/10/2 26/10/2 25/21/2 21/21/2
f 32/22/2 29/23/2 30/6/2 31/5/2
f 4/5/14 31/5/14 30/6/14 1/6/14
f 22/22/6 32/22/6 31/5/6 4/5/6
f 17/23/11 29/23/11 32/22/11 22/22/11
f 36/24/1 33/33/1 34/2/1 35/1/1
f 2/1/14 35/1/14 34/2/14 8/2/14
f 9/27/11 33/27/11 36/28/11 18/28/11
f 18/24/2 36/24/2 35/1/2 2/1/2
f 40/32/5 37/19/5 38/12/5 39/11/5
f 13/25/11 37/25/11 40/26/11 10/26/11
f 10/32/1 40/32/1 39/11/1 7/11/1
f 7/11/14 39/11/14 38/12/14 5/12/14
f 45/1/6 47/4/6 58/3/6 41/2/6
f 51/5/5 50/8/5 63/7/5 46/6/5
f 50/8/15 51/5/15 49/10/15 61/9/15
f 47/4/16 45/1/16 46/6/16 63/7/16
f 42/11/2 54/14/2 59/13/2 44/12/2
f 43/15/1 55/16/1 61/9/1 49/10/1
f 41/17/17 58/18/17 54/14/17 42/11/17
f 43/15/10 60/20/10 53/19/10 44/12/10
f 51/5/13 62/22/13 48/21/13 49/10/13
f 45/1/8 64/24/8 56/23/8 46/6/8
f 53/25/14 60/30/14 48/29/14 62/22/14 56/23/14 64/28/14 52/27/14 57/26/14
f 55/16/18 43/15/18 44/12/18 59/13/18
f 52/31/9 41/17/9 42/11/9 57/32/9
f 48/29/14 60/30/14 68/30/14 65/29/14
f 44/12/1 53/19/1 77/19/1 78/12/1
f 46/6/6 56/23/6 69/23/6 70/6/6
f 41/17/2 52/31/2 73/31/2 74/17/2
f 68/20/1 67/15/1 66/10/1 65/21/1
f 43/15/11 49/10/11 66/10/11 67/15/11
f 60/20/2 43/15/2 67/15/2 68/20/2
f 49/10/5 48/21/5 65/21/5 66/10/5
f 72/22/5 71/5/5 70/6/5 69/23/5
f 51/5/11 46/6/11 70/6/11 71/5/11
f 62/22/1 51/5/1 71/5/1 72/22/1
f 56/23/14 62/22/14 72/22/14 69/23/14
f 76/24/6 75/1/6 74/2/6 73/33/6
f 45/1/11 41/2/11 74/2/11 75/1/11
f 52/27/14 64/28/14 76/28/14 73/27/14
f 64/24/5 45/1/5 75/1/5 76/24/5
f 80/32/2 79/11/2 78/12/2 77/19/2
f 53/25/14 57/26/14 80/26/14 77/25/14
f 57/32/6 42/11/6 79/11/6 80/32/6
f 42/11/11 44/12/11 78/12/11 79/11/11
f 16/13/19 15/16/19 55/16/19 59/13/19
f 12/18/20 11/14/20 54/14/20 58/18/20
f 23/8/21 20/7/21 63/7/21 50/8/21
f 11/14/22 16/13/22 59/13/22 54/14/22
f 15/16/23 24/9/23 61/9/23 55/16/23
f 20/7/24 19/4/24 47/4/24 63/7/24
f 19/4/25 12/3/25 58/3/25 47/4/25
f 24/9/26 23/8/26 50/8/26 61/9/26
